<svg xmlns:xlink="http://www.w3.org/1999/xlink" xmlns="http://www.w3.org/2000/svg" width="568" height="453.824"
     viewBox="0 0 568 453.824">
    <defs>
        <style>
            .a{fill:#fffcdd;}.b{fill:#27213b;}.c{fill:#31293c;}.d{fill:#d8234a;}.e{fill:#51c0aa;}.f{fill:url(#a);}.g{opacity:0.3;}.h{fill:#6e7abb;}.i{fill:url(#b);}.j{fill:url(#c);}.k{fill:url(#d);}.l{fill:url(#e);}.m{fill:url(#f);}.n{fill:#f0565d;}
        </style>
        <radialGradient id="a" cx="0.983" cy="0.98" r="0.962"
                        gradientTransform="matrix(-0.707, -0.707, -0.707, 0.707, 1.926, 0.798)"
                        gradientUnits="objectBoundingBox">
            <stop offset="0.21"/>
            <stop offset="0.49" stop-color="#151220"/>
            <stop offset="0.73" stop-color="#221d34"/>
            <stop offset="0.89" stop-color="#27213b"/>
        </radialGradient>
        <linearGradient id="b" x1="4.154" y1="0.221" x2="3.097" y2="0.737" gradientUnits="objectBoundingBox">
            <stop offset="0.22" stop-color="#51c0aa"/>
            <stop offset="0.41" stop-color="#4ebda7"/>
            <stop offset="0.57" stop-color="#45b39f"/>
            <stop offset="0.71" stop-color="#36a291"/>
            <stop offset="0.85" stop-color="#218a7d"/>
            <stop offset="0.97" stop-color="#066b64"/>
            <stop offset="1" stop-color="#00645e"/>
        </linearGradient>
        <linearGradient id="c" x1="4.532" y1="0.221" x2="3.474" y2="0.737" gradientUnits="objectBoundingBox">
            <stop offset="0.22" stop-color="#51c0aa"/>
            <stop offset="0.36" stop-color="#47b5a1"/>
            <stop offset="0.62" stop-color="#2c9687"/>
            <stop offset="0.95" stop-color="#01655f"/>
            <stop offset="0.96" stop-color="#00645e"/>
        </linearGradient>
        <radialGradient id="d" cx="1.317" cy="0.977" r="0.962"
                        gradientTransform="matrix(-0.953, -0.707, -0.953, 0.707, -4.055, -1.479)" xlink:href="#a"/>
        <linearGradient id="e" x1="-2.851" y1="-0.642" x2="-3.909" y2="-0.126" xlink:href="#b"/>
        <linearGradient id="f" x1="-3.331" y1="-0.747" x2="-4.388" y2="-0.231" xlink:href="#c"/>
    </defs>
    <g transform="translate(115.521 115.534)">
        <path class="a"
              d="M761.628,99.574h0a1.428,1.428,0,0,0,1.428-1.428,49.885,49.885,0,0,1,4.521-20.874,50.449,50.449,0,0,1,45.779-29.416,1.428,1.428,0,0,0,0-2.856,53.3,53.3,0,0,0-48.377,31.094A52.765,52.765,0,0,0,760.2,98.156a1.425,1.425,0,0,0,1.428,1.418Z"
              transform="translate(-597.863 -109.598)"/>
        <path class="b" d="M1099,794.98a9.122,9.122,0,1,0,11.921-4.94A9.122,9.122,0,0,0,1099,794.98Z"
              transform="translate(-828.694 -617.769)"/>
        <path class="c" d="M44.152,358.046a9.122,9.122,0,1,0,11.921-4.937A9.122,9.122,0,0,0,44.152,358.046Z"
              transform="translate(-108.535 -319.471)"/>
        <path class="d" d="M1047.088,892.1a9.125,9.125,0,1,0,12.654-2.519,9.125,9.125,0,0,0-12.654,2.519Z"
              transform="translate(-792.674 -685.152)"/>
        <path class="d" d="M97.745,257.78a9.125,9.125,0,1,0,12.654-2.516A9.125,9.125,0,0,0,97.745,257.78Z"
              transform="translate(-144.547 -252.099)"/>
        <path class="d" d="M1130.969,470.41a9.122,9.122,0,1,0,7.168-10.731A9.122,9.122,0,0,0,1130.969,470.41Z"
              transform="translate(-850.87 -392.583)"/>
        <path class="d" d="M11.14,693.16a9.125,9.125,0,1,0,7.171-10.731A9.125,9.125,0,0,0,11.14,693.16Z"
              transform="translate(-86.352 -544.657)"/>
        <path class="e" d="M977.252,977.251a9.122,9.122,0,1,0,12.9,0,9.122,9.122,0,0,0-12.9,0Z"
              transform="translate(-744.223 -744.231)"/>
        <path class="e" d="M169.878,169.88a9.125,9.125,0,1,0,12.9,0A9.125,9.125,0,0,0,169.878,169.88Z"
              transform="translate(-193.02 -193.031)"/>
        <path class="e" d="M1141.76,580.005a9.125,9.125,0,1,0,9.125-9.125A9.125,9.125,0,0,0,1141.76,580.005Z"
              transform="translate(-858.359 -468.622)"/>
        <path class="e" d="M0,580.012a9.125,9.125,0,1,0,9.124-9.122A9.125,9.125,0,0,0,0,580.012Z"
              transform="translate(-78.867 -468.629)"/>
        <path class="a" d="M892.1,1047.092a9.125,9.125,0,1,0,12.654,2.516A9.125,9.125,0,0,0,892.1,1047.092Z"
              transform="translate(-685.141 -792.687)"/>
        <path class="a" d="M257.759,97.75a9.125,9.125,0,1,0,12.657,2.519,9.125,9.125,0,0,0-12.657-2.519Z"
              transform="translate(-252.072 -144.561)"/>
        <path class="b" d="M794.969,1098.995a9.125,9.125,0,1,0,11.921,4.94A9.125,9.125,0,0,0,794.969,1098.995Z"
              transform="translate(-617.752 -828.697)"/>
        <path class="c" d="M358.037,44.151a9.125,9.125,0,1,0,11.924,4.937,9.125,9.125,0,0,0-11.924-4.937Z"
              transform="translate(-319.457 -108.543)"/>
        <path class="d" d="M689.606,1130.969a9.122,9.122,0,1,0,10.731,7.168A9.122,9.122,0,0,0,689.606,1130.969Z"
              transform="translate(-544.658 -850.879)"/>
        <path class="d" d="M466.836,11.14a9.125,9.125,0,1,0,10.728,7.171,9.125,9.125,0,0,0-10.728-7.171Z"
              transform="translate(-392.564 -86.361)"/>
        <path class="e" d="M580,1141.76a9.125,9.125,0,1,0,9.122,9.124A9.125,9.125,0,0,0,580,1141.76Z"
              transform="translate(-468.606 -858.367)"/>
        <path class="e" d="M580,0a9.125,9.125,0,1,0,9.122,9.124A9.125,9.125,0,0,0,580,0Z"
              transform="translate(-468.606 -78.876)"/>
        <path class="a" d="M470.417,1130.971a9.119,9.119,0,1,0,5.809,3.877A9.122,9.122,0,0,0,470.417,1130.971Z"
              transform="translate(-392.585 -850.881)"/>
        <path class="a" d="M693.152,11.139a9.125,9.125,0,1,0,7.171,10.728A9.125,9.125,0,0,0,693.152,11.139Z"
              transform="translate(-544.643 -86.36)"/>
        <path class="b" d="M365.024,1098.989a9.125,9.125,0,1,0,4.937,11.924A9.125,9.125,0,0,0,365.024,1098.989Z"
              transform="translate(-319.457 -828.691)"/>
        <path class="c" d="M801.952,44.138a9.125,9.125,0,1,0,4.937,11.921A9.125,9.125,0,0,0,801.952,44.138Z"
              transform="translate(-617.751 -108.534)"/>
        <path class="d" d="M267.9,1047.088a9.125,9.125,0,1,0,2.519,12.654,9.125,9.125,0,0,0-2.519-12.654Z"
              transform="translate(-252.076 -792.683)"/>
        <path class="d" d="M902.229,97.745a9.125,9.125,0,1,0,2.516,12.654,9.125,9.125,0,0,0-2.516-12.654Z"
              transform="translate(-685.135 -144.556)"/>
        <path class="e" d="M182.794,977.252a9.122,9.122,0,1,0,0,12.9,9.122,9.122,0,0,0,0-12.9Z"
              transform="translate(-193.031 -744.232)"/>
        <path class="e" d="M990.127,169.875a9.125,9.125,0,1,0,0,12.9A9.125,9.125,0,0,0,990.127,169.875Z"
              transform="translate(-744.201 -193.025)"/>
        <path class="a" d="M112.926,892.114a9.125,9.125,0,1,0-2.5,12.654,9.125,9.125,0,0,0,2.5-12.654Z"
              transform="translate(-144.555 -685.166)"/>
        <path class="a" d="M1062.258,257.763a9.125,9.125,0,1,0-2.516,12.657A9.125,9.125,0,0,0,1062.258,257.763Z"
              transform="translate(-792.672 -252.084)"/>
        <path class="a" d="M29.035,470.406a9.125,9.125,0,1,0-10.728,7.168,9.125,9.125,0,0,0,10.728-7.168Z"
              transform="translate(-86.349 -392.579)"/>
        <path class="a" d="M1148.866,693.139a9.125,9.125,0,1,0-10.712,7.168A9.125,9.125,0,0,0,1148.866,693.139Z"
              transform="translate(-850.87 -544.639)"/>
        <path class="b" d="M61.008,794.969a9.125,9.125,0,1,0-4.94,11.921A9.125,9.125,0,0,0,61.008,794.969Z"
              transform="translate(-108.53 -617.76)"/>
        <path class="b" d="M1115.849,358.031a9.125,9.125,0,1,0-4.937,11.921,9.125,9.125,0,0,0,4.937-11.921Z"
              transform="translate(-828.681 -319.46)"/>
        <circle class="f" cx="160.45" cy="160.45" r="160.45" transform="translate(-115.521 111.378) rotate(-45)"/>
        <g class="g" transform="translate(-40.528 -40.529)">
            <path class="h"
                  d="M378.468,167.054l-.933-.974c-.635-.635-1.507-1.615-2.748-2.808a136.5,136.5,0,0,0-11.137-9.976l-1.942-1.545-2.081-1.586-1.079-.815-1.126-.806c-.761-.539-1.526-1.111-2.332-1.656l-2.465-1.678c-.844-.555-1.723-1.1-2.608-1.669s-1.809-1.111-2.741-1.678c-.466-.279-.933-.571-1.415-.847l-1.456-.831c-3.919-2.221-8.192-4.426-12.819-6.5a147.123,147.123,0,0,0-31.748-10.033c-2.948-.6-5.975-1.066-9.052-1.5l-2.326-.282-1.168-.14-1.177-.114-2.364-.228-2.386-.178-1.2-.089-1.206-.06-2.424-.117-2.443-.057-1.228-.029h-3.7l-2.491.06-1.25.032-1.25.063-2.516.124c-3.36.225-6.752.53-10.153.987s-6.838,1-10.271,1.713-6.885,1.507-10.312,2.459c-1.72.457-3.42,1-5.14,1.517-1.7.565-3.417,1.1-5.108,1.729s-3.392,1.253-5.077,1.9l-2.522,1.038c-.422.174-.844.343-1.269.524l-1.25.552c-3.347,1.46-6.641,3.084-9.9,4.813s-6.451,3.595-9.595,5.565-6.206,4.1-9.2,6.308l-2.221,1.682-2.2,1.739c-.365.289-.733.574-1.095.873l-1.076.9c-.714.6-1.444,1.19-2.145,1.809l-2.11,1.853c-.7.612-1.377,1.269-2.069,1.9s-1.377,1.269-2.043,1.926l-2.037,1.986-1.9,1.974c-.317.333-.635.635-.952,1l-.952,1.041c-.635.695-1.3,1.38-1.9,2.085l-1.853,2.11c-.619.7-1.2,1.431-1.809,2.145l-.974,1.072c-.3.359-.581.73-.873,1.095l-1.739,2.2-1.682,2.221c-2.221,3-4.347,6.057-6.3,9.2s-3.852,6.346-5.568,9.595-3.341,6.558-4.8,9.918l-.555,1.25c-.181.419-.349.841-.524,1.269l-1.038,2.522c-.635,1.694-1.317,3.379-1.9,5.077s-1.164,3.411-1.729,5.112c-.514,1.717-1.06,3.42-1.517,5.14-.971,3.424-1.764,6.872-2.462,10.3s-1.247,6.866-1.717,10.271-.761,6.8-.984,10.153q-.067,1.269-.127,2.516l-.063,1.25-.032,1.25c-.019.831-.041,1.663-.06,2.488s0,1.653,0,2.475v1.244l.029,1.228c.019.815.038,1.631.057,2.44s.079,1.621.117,2.427l.063,1.2.086,1.2c.06.8.117,1.586.178,2.386s.152,1.586.228,2.364l.114,1.177.143,1.168q.136,1.168.282,2.323c.432,3.081.892,6.108,1.494,9.055A147.123,147.123,0,0,0,133.673,331.6c2.072,4.623,4.271,8.9,6.5,12.819l.831,1.456c.276.482.568.952.847,1.415.568.933,1.1,1.859,1.678,2.741s1.114,1.764,1.672,2.608l1.675,2.465c.546.806,1.117,1.586,1.656,2.332l.806,1.126c.276.362.549.723.815,1.079l1.586,2.078,1.548,1.945a135.435,135.435,0,0,0,9.969,11.134c1.2,1.241,2.177,2.129,2.811,2.751l.974.933-.907-1c-.593-.663-1.5-1.618-2.621-2.922-2.275-2.573-5.511-6.447-9.259-11.635a153.027,153.027,0,0,1-12.022-19.605c-2.027-3.95-4-8.25-5.835-12.857a152.163,152.163,0,0,1-5.042-14.8,146.8,146.8,0,0,1-3.693-16.537c-.489-2.887-.866-5.841-1.2-8.84-.07-.752-.143-1.507-.213-2.262-.035-.381-.07-.758-.108-1.139s-.051-.762-.079-1.145c-.054-.761-.108-1.529-.162-2.3s-.07-1.545-.108-2.319a150.663,150.663,0,0,1,.371-19.082c.159-1.621.286-3.252.5-4.883.1-.819.178-1.637.3-2.456s.232-1.637.346-2.459c.511-3.281,1.079-6.587,1.828-9.88.089-.412.171-.828.27-1.241l.3-1.234c.2-.822.384-1.653.6-2.475.438-1.644.869-3.3,1.361-4.94s1.006-3.284,1.523-4.931c.565-1.631,1.1-3.278,1.723-4.9s1.25-3.246,1.9-4.867l1.025-2.415c.174-.4.339-.806.52-1.206l.546-1.2c.371-.8.714-1.605,1.1-2.392s.765-1.586,1.149-2.38.8-1.571,1.2-2.357l.606-1.161.635-1.164a148,148,0,0,1,11.511-17.99l1.621-2.142,1.672-2.107c.282-.349.555-.7.841-1.05l.866-1.028c.581-.685,1.145-1.383,1.742-2.056l1.783-2.021c.59-.679,1.206-1.31,1.809-1.967l.907-.977c.3-.317.635-.657.952-.984l1.923-1.967,1.9-1.859c.635-.635,1.295-1.244,1.954-1.853s1.307-1.234,1.983-1.824l2.021-1.783c.673-.6,1.371-1.161,2.056-1.742l1.031-.866c.343-.286.7-.558,1.047-.841l2.107-1.672,2.142-1.621a148.25,148.25,0,0,1,17.99-11.511l1.164-.635,1.177-.606c.787-.4,1.567-.815,2.357-1.2l2.38-1.149c.79-.39,1.586-.733,2.392-1.1l1.2-.546c.4-.181.806-.346,1.206-.52l2.415-1.025c1.621-.635,3.233-1.307,4.867-1.9s3.268-1.158,4.9-1.723c1.647-.517,3.278-1.063,4.931-1.523s3.3-.923,4.94-1.361c.822-.219,1.653-.4,2.475-.606l1.234-.3c.412-.1.828-.181,1.241-.273,3.293-.746,6.6-1.314,9.88-1.824l2.459-.346c.819-.121,1.64-.2,2.456-.3,1.631-.216,3.262-.343,4.883-.5a150.657,150.657,0,0,1,19.1-.381l2.319.108,2.3.162,1.145.079,1.139.108,2.262.213c3,.336,5.952.714,8.84,1.2a146.1,146.1,0,0,1,16.524,3.684,152.154,152.154,0,0,1,14.789,5.032c4.617,1.831,8.906,3.807,12.857,5.835a153.026,153.026,0,0,1,19.621,12.016c5.188,3.747,9.062,6.98,11.632,9.258,1.307,1.12,2.265,2.031,2.925,2.621Z"
                  transform="translate(-120.833 -120.86)"/>
            <path class="h"
                  d="M379.748,189.433l-1.022-.73c-.692-.489-1.387-1.006-2.116-1.5l-2.18-1.485c-.771-.514-1.586-1.009-2.383-1.526s-1.653-1.015-2.5-1.533c-.425-.254-.85-.517-1.285-.768l-1.323-.755c-3.56-2.024-7.44-4.02-11.641-5.9q-5.416-2.427-11.533-4.515-.99-.34-2.005-.666a133.042,133.042,0,0,0-15.278-3.938c-2.678-.546-5.426-.952-8.221-1.358l-2.11-.257-1.06-.127-1.066-.1-2.148-.209-1.218-.092-.952-.073-1.107-.079-1.095-.057-1.2-.057-1-.048-1.31-.035-.9-.022h-.27l-.844-.019h-3.366l-1.663.038h-1.729l-.673.035-.463.022-1.9.1-.374.019c-3.049.194-6.13.479-9.227.885q-2.323.317-4.664.695-1.164.19-2.335.4c-.784.143-1.571.3-2.354.46-3.128.635-6.27,1.355-9.389,2.237-1.567.419-3.119.911-4.68,1.383s-3.116,1.006-4.661,1.571-3.087,1.142-4.632,1.732l-2.3.952c-.384.162-.768.317-1.149.479l-1.158.549c-.761.317-1.52.666-2.272,1.019-.692.317-1.571.739-2.259,1.076s-1.561.771-2.243,1.117c-.343.175-.781.4-1.12.574l-1.123.593q-2.221,1.174-4.407,2.443c-1.46.85-2.9,1.729-4.334,2.627-.657.409-1.494.952-2.139,1.364s-1.469.98-2.11,1.421-1.453,1.009-2.085,1.46c-.689.495-1.38.99-2.062,1.5l-2.034,1.533c-.057.048-1.945,1.539-2.005,1.586-.317.263-.669.524-1,.8l-.98.819c-.6.5-1.371,1.133-1.955,1.647l-1.923,1.685c-.635.558-1.253,1.152-1.885,1.729-.574.527-1.3,1.2-1.859,1.751l-1.859,1.809-1.745,1.8c-.267.276-.606.616-.873.907l-.879.952-.841.9c-.317.317-.606.654-.895.99l-1.691,1.926c-.514.584-1.145,1.361-1.65,1.955l-.819.984c-.273.317-.53.666-.8,1L191.83,217.1l-1.536,2.034c-.508.685-1.006,1.377-1.5,2.069-.454.635-1.022,1.45-1.463,2.088s-1,1.463-1.425,2.11-.952,1.475-1.355,2.129c-.9,1.434-1.78,2.881-2.63,4.341s-1.659,2.919-2.44,4.4c-.181.34-.412.774-.59,1.117l-.577,1.123c-.349.685-.784,1.564-1.12,2.253s-.758,1.586-1.079,2.265c-.346.727-.663,1.482-.98,2.227,0,.032-.489,1.107-.5,1.139-.165.384-.317.768-.476,1.152-.317.765-.635,1.533-.952,2.3-.59,1.545-1.193,3.081-1.732,4.632s-1.06,3.109-1.571,4.658-.952,3.116-1.383,4.683c-.882,3.119-1.605,6.26-2.237,9.389q-.241,1.171-.46,2.342c-.143.784-.276,1.586-.4,2.354-.254,1.558-.482,3.109-.695,4.658-.406,3.106-.692,6.2-.885,9.259q-.063,1.149-.117,2.291l-.054,1.139-.029,1.139c0,.755-.035,1.507-.051,2.259s0,1.51,0,2.262v1.12l.025,1.117q.029,1.118.057,2.221c.019.736.073,1.475.108,2.221,0,.029.054,1.063.057,1.091s.076,1.066.082,1.1c.054.723.108,1.447.162,2.164l.209,2.145.1,1.066c.044.352.086.7.13,1.057.086.7.171,1.409.257,2.107.393,2.792.815,5.534,1.361,8.208a133.263,133.263,0,0,0,3.919,15.262c.19.584.381,1.161.577,1.739q2.107,6.238,4.6,11.781c1.875,4.188,3.868,8.065,5.889,11.622.254.444.5.882.752,1.32s.514.86.768,1.269l.121.2c.47.777.92,1.548,1.4,2.284l.267.419c.422.66.828,1.314,1.247,1.948l.425.635,1.088,1.615c.5.73,1.012,1.425,1.5,2.116l.73,1.018q.476.633.952,1.241l1.437,1.9,1.415,1.764q1.39,1.732,2.678,3.224c.863,1,1.688,1.9,2.462,2.76,1.453,1.586,2.738,2.906,3.807,3.976s1.926,1.878,2.5,2.44l1.107,1.053-1.012-1.142c-.536-.6-1.342-1.453-2.326-2.6q-.92-1.05-2.05-2.408c-.714-.86-1.488-1.809-2.31-2.856-1.2-1.526-2.51-3.249-3.9-5.175-.425-.587-.854-1.2-1.291-1.821s-.876-1.269-1.32-1.945c-.892-1.333-1.805-2.741-2.722-4.229s-1.84-3.049-2.77-4.686q-1.345-2.37-2.675-4.959-.663-1.288-1.314-2.637c-1.383-2.856-2.726-5.867-3.995-9.062a137.183,137.183,0,0,1-4.639-13.666c-.171-.587-.317-1.18-.492-1.78s-.317-1.2-.47-1.809q-.463-1.818-.882-3.681t-.784-3.776q-.365-1.9-.685-3.807c-.111-.635-.209-1.288-.317-1.935-.289-1.948-.536-3.925-.765-5.924-.073-.736-.14-1.479-.209-2.221l-.1-1.12c-.022-.317-.054-.72-.076-1.041-.044-.635-.092-1.361-.136-2-.035-.755-.07-1.517-.108-2.278-.067-1.4-.1-2.8-.114-4.21v-3.179c0-.324,0-.7.016-1.06q.048-2.142.152-4.309c.016-.317.038-.749.057-1.079.06-1.072.143-2.237.232-3.316.14-1.412.251-2.83.435-4.252.089-.742.159-1.488.267-2.221s.206-1.491.317-2.24q.317-2.085.682-4.185.422-2.383.952-4.759c.086-.406.168-.812.257-1.218,0-.06.279-1.152.292-1.215.2-.809.381-1.625.6-2.43.4-1.494.793-3,1.237-4.486s.917-2.983,1.387-4.477,1-2.976,1.567-4.442,1.136-2.948,1.72-4.42l1.015-2.37c.174-.393.336-.793.517-1.187l.543-1.171c.317-.663.685-1.517,1.009-2.173s.682-1.409,1-2.069.717-1.4,1.05-2.053l.555-1.069.676-1.228c.768-1.412,1.571-2.811,2.392-4.2.374-.635.863-1.434,1.25-2.062s.895-1.415,1.295-2.037.92-1.409,1.329-2.024c.451-.673.9-1.342,1.368-2.005q1.406-2.008,2.875-3.979c.022-.025,1.393-1.837,1.412-1.863l1.46-1.831c.235-.292.59-.736.831-1.022l.847-1.009c.508-.6,1-1.206,1.52-1.79L203,213.15c.492-.568,1.145-1.237,1.647-1.786l.9-.952c.251-.273.606-.635.869-.892l1.818-1.847c.051-.044,1.682-1.64,1.732-1.685.53-.53,1.234-1.168,1.783-1.678s1.241-1.158,1.805-1.653l1.761-1.552c.584-.517,1.193-1.006,1.79-1.51l.952-.787c.317-.257.635-.508.952-.761l1.9-1.517,1.945-1.469c.593-.438,1.352-.99,1.951-1.418s1.361-.968,1.964-1.387,1.377-.952,1.989-1.345q1.993-1.329,4.026-2.583t4.1-2.424c.711-.4,1.507-.844,2.221-1.231l1.072-.654,1.158-.593c.657-.336,1.482-.771,2.142-1.091.72-.352,1.44-.695,2.161-1.041s1.456-.666,2.177-1l1.174-.533c.365-.162.733-.317,1.1-.47l2.281-.952c1.472-.587,2.938-1.177,4.423-1.707s2.967-1.053,4.442-1.555,2.976-.952,4.477-1.374,2.992-.828,4.486-1.222c.749-.2,1.5-.368,2.246-.549.063,0,1.155-.273,1.215-.282.374-.086.752-.162,1.126-.244q1.666-.371,3.328-.685c1.9-.352,3.773-.663,5.651-.952l2.316-.317c.739-.1,1.485-.175,2.221-.267.34-.044.771-.092,1.111-.13l1.1-.108c.742-.067,1.482-.13,2.221-.2s1.444-.108,2.164-.155l1.091-.063c.333-.022.755-.038,1.088-.057l2.167-.086c1.444-.044,2.878-.079,4.306-.076s2.856.019,4.261.06c.689.019,1.46.051,2.142.079l2.018.1,2.088.152,1.041.073,1.034.1,2.05.194q2,.228,3.966.489c.657.089,1.314.178,1.964.279.7.1,1.4.216,2.091.317q1.9.317,3.807.682t3.7.815q.92.206,1.821.419t1.8.444q1.98.5,3.9,1.05a138.5,138.5,0,0,1,13.444,4.591c2.776,1.1,5.419,2.265,7.932,3.458q1.361.635,2.672,1.3l1.085.552c.495.251.984.508,1.463.765,1.659.879,3.249,1.764,4.759,2.643s2.948,1.751,4.321,2.611q1.019.642,1.986,1.269c.644.419,1.269.834,1.866,1.244q1.809,1.228,3.427,2.392c1.034.749,2.008,1.475,2.925,2.17s1.713,1.317,2.491,1.929c.73.577,1.409,1.136,2.04,1.659q1.847,1.523,3.122,2.662l.539.463c.841.736,1.425,1.269,1.783,1.586.527.476.787.708.762.682s-.19-.2-.524-.549l-.317-.34c-.387-.4-.876-.93-1.5-1.561q-.454-.466-1-.993-.574-.574-1.253-1.234c-.793-.768-1.685-1.621-2.684-2.538s-2-1.8-3.141-2.776q-.838-.717-1.745-1.466c-.422-.349-.857-.7-1.3-1.057l-.562-.444-1.209-.952-1.878-1.456Z"
                  transform="translate(-150.015 -150.025)"/>
            <path class="h"
                  d="M400.889,229.534l-.92-.654c-.635-.438-1.247-.9-1.9-1.345l-1.9-1.291c-.695-.466-1.421-.911-2.154-1.38s-1.494-.917-2.262-1.387c-.381-.228-.762-.463-1.155-.689l-1.187-.676c-3.2-1.821-6.688-3.614-10.471-5.3-3.246-1.453-6.711-2.814-10.366-4.058-.593-.2-1.2-.4-1.8-.6a119.654,119.654,0,0,0-13.742-3.538c-2.405-.489-4.877-.869-7.39-1.222l-1.9-.232-.952-.117-.952-.1-1.929-.187-1.1-.086-.85-.067-1.015-.07-.984-.051-1.079-.051-.9-.044-1.177-.032-.812-.022H328l-1.491.029H325.44l-.489.016-.6.029-.419.022-1.713.086-.336.016q-4.125.251-8.294.787-2.094.286-4.207.635c-.7.111-1.406.232-2.11.355s-1.415.273-2.123.419c-2.824.562-5.657,1.215-8.472,2.012-1.415.374-2.814.819-4.223,1.244s-2.811.907-4.207,1.415-2.786,1.028-4.182,1.558l-2.075.85c-.346.146-.695.286-1.038.432l-1.034.46c-.685.3-1.374.6-2.053.917-.552.254-1.488.7-2.034.971s-1.485.73-2.031,1.009c-.273.14-.736.371-1.009.514s-.739.39-1.012.536q-2,1.061-3.979,2.221c-1.317.774-2.627,1.539-3.9,2.348-.524.317-1.412.885-1.932,1.225s-1.39.933-1.9,1.285-1.374.952-1.882,1.32c-.635.444-1.247.888-1.859,1.348l-1.837,1.387-1.809,1.425c-.3.238-.606.473-.9.717l-.882.739c-.476.4-1.295,1.076-1.761,1.488l-1.739,1.52c-.581.5-1.133,1.041-1.7,1.558-.46.425-1.234,1.142-1.675,1.586l-1.682,1.628-1.571,1.625c-.216.222-.574.584-.787.819l-.8.857c-.2.222-.552.593-.758.812-.273.292-.543.587-.806.888L236.1,249.19c-.412.466-1.091,1.291-1.494,1.767l-.742.885c-.244.3-.479.6-.717.9l-1.425,1.809c-.089.114-1.3,1.72-1.387,1.834-.473.609-.92,1.244-1.364,1.878-.362.5-.952,1.371-1.32,1.885s-.952,1.383-1.285,1.9-.9,1.4-1.222,1.923c-.809,1.3-1.609,2.6-2.373,3.919s-1.494,2.637-2.2,3.972c-.143.273-.39.733-.533,1.006s-.378.742-.517,1.015c-.279.549-.742,1.482-1.009,2.034s-.72,1.488-.977,2.043c-.317.673-.616,1.358-.911,2.04-.029.067-.425.952-.451,1.031-.149.343-.289.692-.435,1.038-.282.692-.568,1.38-.854,2.072-.53,1.4-1.069,2.783-1.558,4.182s-.952,2.8-1.412,4.2-.869,2.811-1.247,4.223c-.8,2.818-1.45,5.651-2.012,8.475q-.219,1.057-.416,2.113c-.127.708-.244,1.415-.359,2.123q-.338,2.108-.635,4.2c-.359,2.8-.635,5.591-.79,8.354l-.1,2.066-.051,1.028-.022,1.028c0,.676-.029,1.355-.041,2.027s0,1.368,0,2.05v1.012l.029,1.009.057,2.005q.048,1,.1,1.989c0,.06.048.923.051.98s.07.933.076,1c.051.635.1,1.295.149,1.939l.19,1.926c.032.317.067.635.1.952l.114.952q.114.952.235,1.9c.352,2.5.736,4.962,1.222,7.361a119.961,119.961,0,0,0,3.535,13.685q.257.787.517,1.561c1.269,3.728,2.649,7.26,4.125,10.569,1.685,3.757,3.468,7.234,5.283,10.423.225.4.451.793.676,1.187s.457.771.685,1.152l.108.178c.422.695.828,1.387,1.269,2.05l.238.374c.378.59.742,1.18,1.117,1.748l.381.558c.317.489.66.968.984,1.444.444.654.9,1.269,1.342,1.9l.654.911c.359.485.72.952,1.066,1.4.444.581.876,1.152,1.3,1.7l1.269,1.586c.838,1.034,1.647,2,2.418,2.9s1.526,1.717,2.221,2.475c1.244,1.355,2.345,2.484,3.259,3.408s1.675,1.631,2.2,2.135l1.241,1.171-1.12-1.285c-.479-.543-1.184-1.288-2.027-2.288-.546-.635-1.161-1.364-1.831-2.177s-1.336-1.634-2.069-2.573c-1.034-1.326-2.161-2.821-3.354-4.48-.381-.53-.768-1.079-1.161-1.64s-.784-1.155-1.183-1.758c-.8-1.206-1.618-2.472-2.44-3.807s-1.647-2.751-2.481-4.226c-.768-1.342-1.52-2.754-2.272-4.223-.4-.774-.793-1.567-1.187-2.373-1.244-2.561-2.456-5.286-3.6-8.164a125.311,125.311,0,0,1-4.245-12.542c-.152-.53-.3-1.066-.438-1.606s-.282-1.082-.419-1.628c-.273-1.095-.539-2.2-.79-3.319s-.476-2.253-.7-3.4q-.317-1.609-.584-3.252c-.1-.577-.187-1.161-.273-1.745-.251-1.688-.466-3.4-.666-5.134-.079-.723-.14-1.45-.209-2.183l-.1-1.1c-.016-.254-.051-.679-.07-.933-.035-.511-.076-1.193-.114-1.707-.032-.742-.067-1.491-.1-2.24-.063-1.269-.082-2.519-.1-3.792v-2.856c0-.317,0-.635.019-.952q.048-1.932.143-3.88c0-.263.035-.708.048-.971.051-.857.127-1.9.2-2.764.117-1.2.216-2.408.368-3.617.076-.673.143-1.345.235-2.015s.184-1.345.279-2.018q.286-1.885.606-3.776c.247-1.421.533-2.856.844-4.261.082-.4.162-.8.247-1.2.029-.121.257-1.069.286-1.193.2-.793.374-1.586.584-2.389.362-1.342.72-2.691,1.117-4.033s.828-2.678,1.269-4.023.895-2.675,1.409-4,1.022-2.646,1.545-3.972c.336-.774.669-1.548,1.006-2.326.171-.387.317-.781.511-1.164l.543-1.149c.247-.53.654-1.425.914-1.948s.6-1.234.854-1.764.635-1.218.9-1.745c.032-.057.47-.9.5-.952.1-.175.619-1.123.717-1.295.695-1.269,1.425-2.516,2.167-3.763.3-.508.819-1.348,1.13-1.85s.854-1.333,1.174-1.831.873-1.32,1.2-1.815c.406-.6.812-1.206,1.234-1.8q1.269-1.793,2.6-3.563c.041-.051,1.161-1.536,1.206-1.586L238,256.186l.819-1,.834-.984c.428-.508.854-1.025,1.3-1.523l1.336-1.5c.393-.454,1.085-1.164,1.485-1.605l.888-.952c.2-.216.574-.581.784-.8l1.717-1.729c.1-.089,1.46-1.425,1.564-1.513.422-.422,1.168-1.091,1.609-1.5s1.174-1.088,1.628-1.482l1.5-1.32c.5-.441,1.018-.857,1.529-1.269.054-.041.793-.66.847-.7.286-.235.574-.46.863-.689l1.713-1.358c.1-.086,1.644-1.237,1.755-1.317.473-.349,1.269-.926,1.755-1.269s1.285-.914,1.767-1.247,1.307-.882,1.8-1.206c1.2-.793,2.405-1.586,3.627-2.323s2.456-1.469,3.7-2.173c.568-.317,1.31-.736,1.885-1.044l.952-.514,1.139-.581c.527-.267,1.4-.723,1.926-.98.635-.317,1.3-.619,1.942-.93s1.31-.6,1.964-.9l1.149-.52c.317-.143.66-.279.99-.419l2.151-.9c1.32-.53,2.643-1.047,3.976-1.52s2.665-.952,4-1.387,2.681-.85,4.026-1.225,2.691-.736,4.036-1.085c.669-.178,1.345-.317,2.018-.492.124-.022,1.069-.244,1.193-.267.339-.076.676-.143,1.015-.216,1-.219,1.993-.425,2.992-.609q2.538-.457,5.077-.834,1.085-.152,2.17-.286c.666-.092,1.336-.155,2-.235.273-.035.727-.086,1-.114s.723-.063.993-.092c.666-.057,1.333-.111,2-.171l1.945-.133.98-.057c.267-.016.711-.029.977-.041q.974-.041,1.948-.07c1.295-.035,2.586-.07,3.865-.057s2.561.029,3.826.067c.552,0,1.269.044,1.818.07s1.206.063,1.717.089l1.875.136.936.07.933.089c.612.057,1.225.114,1.834.178q1.8.209,3.569.444c.59.079,1.18.159,1.767.251s1.247.2,1.862.317q1.732.292,3.424.612c1.126.222,2.221.463,3.338.711l1.64.378q.815.19,1.618.4,1.78.451,3.512.952a124.282,124.282,0,0,1,12.1,4.055c2.5,1,4.877,2.043,7.136,3.119q1.222.587,2.4,1.177l.977.495q.673.343,1.317.689,2.243,1.2,4.3,2.383c1.358.79,2.649,1.586,3.884,2.354.612.387,1.212.765,1.793,1.142s1.133.755,1.675,1.123q1.628,1.111,3.081,2.151c.933.676,1.809,1.333,2.634,1.958s1.545,1.183,2.243,1.732,1.269,1.028,1.837,1.494c1.136.952,2.075,1.745,2.814,2.4l.485.416c.673.59,1.072.952,1.234,1.06a5.907,5.907,0,0,0,.527.454l-.473-.495-.289-.317c-.355-.368-.8-.847-1.348-1.409-.276-.276-.574-.577-.9-.892s-.727-.717-1.133-1.111c-.717-.695-1.517-1.463-2.411-2.285s-1.805-1.615-2.833-2.494l-1.571-1.323q-.571-.476-1.174-.952l-.508-.4-1.088-.863q-.828-.635-1.7-1.291Z"
                  transform="translate(-179.136 -179.218)"/>
            <path class="h"
                  d="M422.074,269.57l-.815-.581c-.549-.387-1.107-.793-1.685-1.19l-1.612-1.1c-.635-.422-1.269-.815-1.929-1.234s-1.336-.822-2.024-1.241c-.336-.2-.676-.409-1.022-.609l-1.05-.6c-2.856-1.615-5.94-3.2-9.284-4.7-2.884-1.291-5.956-2.5-9.2-3.6q-.79-.273-1.586-.533a106.15,106.15,0,0,0-12.19-3.138c-2.139-.432-4.328-.774-6.558-1.085l-1.678-.209-.85-.111-.85-.086-1.713-.168-.974-.076-.755-.063c-.108,0-.815-.06-.923-.063l-.869-.044-.952-.044-.8-.038-1.044-.032-.736-.019h-3.56l-1.323.022h-1.374l-.533.025-.371.019-1.52.076h-.3c-2.434.14-4.886.384-7.358.692-1.247.162-2.5.359-3.754.555l-1.882.317q-.952.178-1.9.371c-2.519.495-5.045,1.079-7.558,1.786-1.269.336-2.507.73-3.763,1.111s-2.507.809-3.754,1.269-2.488.914-3.731,1.383l-1.847.765c-.317.127-.635.254-.923.384-.1.041-.825.362-.923.4-.612.27-1.228.533-1.831.819-.416.19-1.406.666-1.815.869s-1.4.685-1.812.895l-.9.457-.888.5q-1.783.952-3.55,1.964c-1.174.679-2.329,1.4-3.49,2.113-.393.244-1.339.838-1.726,1.091s-1.31.885-1.694,1.149-1.3.9-1.678,1.174c-.555.4-1.117.79-1.659,1.2-.171.13-1.463,1.1-1.634,1.237s-1.447,1.136-1.618,1.269c-.267.213-.543.419-.806.635l-.787.663c-.355.3-1.218,1.018-1.571,1.326l-1.548,1.352c-.524.447-1.012.93-1.517,1.393-.346.317-1.161,1.079-1.491,1.409l-1.5,1.447-1.4,1.453c-.159.165-.539.555-.7.73l-.711.765-.676.723c-.241.257-.479.514-.714.787l-1.358,1.561c-.317.349-1.038,1.222-1.339,1.586l-.663.793c-.222.263-.428.536-.635.806l-1.269,1.615c-.133.171-1.107,1.463-1.241,1.637-.416.546-.809,1.1-1.206,1.663-.27.381-.911,1.3-1.174,1.682s-.892,1.307-1.149,1.694-.844,1.326-1.088,1.72c-.717,1.158-1.434,2.313-2.116,3.49s-1.326,2.357-1.961,3.547l-.476.895c-.108.206-.355.7-.46.907-.209.409-.695,1.4-.9,1.815s-.676,1.4-.869,1.818c-.286.6-.549,1.215-.812,1.824-.041.1-.359.822-.4.92-.133.317-.257.619-.387.927l-.761,1.847c-.47,1.244-.952,2.481-1.387,3.731s-.847,2.5-1.269,3.75-.771,2.507-1.111,3.766c-.7,2.513-1.291,5.039-1.783,7.558q-.2.952-.371,1.885t-.317,1.9c-.2,1.269-.39,2.5-.555,3.75-.317,2.5-.558,4.985-.692,7.447-.032.635-.063,1.231-.092,1.843l-.048.917v.917c0,.6-.022,1.2-.032,1.8s0,1.228,0,1.837v.9l.029.9c.016.6.035,1.193.054,1.786l.086,1.777c0,.089.038.781.044.866s.06.8.073.895c.044.574.089,1.145.136,1.717s.111,1.136.168,1.7c.032.282.06.562.089.844s.067.562.1.838c.07.562.14,1.117.209,1.672.317,2.221.657,4.394,1.088,6.517a106.234,106.234,0,0,0,3.135,12.111q.222.695.457,1.38c1.12,3.3,2.348,6.425,3.658,9.354,1.488,3.325,3.065,6.4,4.671,9.23.2.352.4.7.6,1.05s.406.682.606,1.019l.1.159c.374.616.736,1.225,1.114,1.812l.209.317c.333.527.654,1.047.984,1.552l.336.495.873,1.269c.4.581.8,1.136,1.19,1.688.194.27.384.539.571.806.406.543.809,1.06,1.2,1.561s.777,1.025,1.158,1.513.774.952,1.145,1.406q1.123,1.377,2.158,2.573c.695.793,1.364,1.52,1.989,2.192,1.031,1.117,1.948,2.059,2.719,2.84s1.425,1.383,1.885,1.831l1.377,1.288s-.422-.495-1.228-1.428c-.422-.485-1.022-1.123-1.729-1.97-.482-.574-1.025-1.222-1.612-1.948s-1.18-1.46-1.828-2.294c-.869-1.13-1.812-2.389-2.811-3.785-.336-.473-.682-.952-1.031-1.463s-.689-1.028-1.044-1.564c-.7-1.079-1.431-2.221-2.161-3.4s-1.453-2.453-2.2-3.766c-.635-1.111-1.247-2.278-1.869-3.49q-.53-1.038-1.057-2.113c-1.1-2.281-2.183-4.705-3.2-7.269a110.833,110.833,0,0,1-3.852-11.422c-.136-.473-.263-.952-.384-1.428s-.247-.952-.368-1.45c-.241-.974-.482-1.954-.7-2.951s-.416-2.005-.612-3.027c-.171-.882-.317-1.777-.482-2.678-.089-.514-.162-1.031-.241-1.552-.209-1.431-.393-2.881-.568-4.347-.083-.708-.136-1.425-.206-2.142-.035-.359-.067-.717-.1-1.079,0-.19-.051-.635-.063-.828-.029-.384-.067-1.025-.092-1.409-.035-.73-.067-1.466-.1-2.2-.06-1.117-.063-2.24-.079-3.373v-2.548c0-.282,0-.565.022-.85.029-1.142.073-2.294.13-3.449,0-.2.032-.666.044-.866.035-.635.108-1.558.159-2.205.1-.993.178-1.993.317-2.989.067-.6.124-1.2.2-1.793s.162-1.2.247-1.8q.247-1.678.527-3.366c.216-1.25.466-2.5.733-3.75.079-.39.155-.784.238-1.174.044-.184.238-.987.279-1.171.194-.781.365-1.567.571-2.351.317-1.19.635-2.386,1-3.576s.736-2.376,1.114-3.57.79-2.376,1.269-3.547.907-2.351,1.374-3.525l.993-2.284c.171-.378.317-.765.508-1.139l.539-1.13c.184-.4.635-1.333.819-1.726s.517-1.057.708-1.453.549-1.044.749-1.441c.048-.086.4-.761.451-.85.146-.257.612-1.1.758-1.358.635-1.123,1.269-2.221,1.945-3.328.225-.381.774-1.269,1.009-1.64s.815-1.244,1.053-1.618.828-1.237,1.076-1.609c.362-.533.72-1.069,1.1-1.586.761-1.06,1.533-2.107,2.319-3.151.06-.076.93-1.231,1-1.307l1.028-1.269.809-.974.819-.952c.349-.419.7-.844,1.076-1.269l1.111-1.237c.3-.34,1.022-1.091,1.323-1.421l.882-.936c.149-.162.539-.543.7-.7l1.612-1.605c.149-.14,1.241-1.212,1.393-1.342.317-.317,1.107-1.018,1.437-1.323s1.111-1.012,1.45-1.307l1.237-1.088c.412-.365.844-.7,1.269-1.057.082-.063.679-.562.758-.635.254-.206.511-.406.768-.609l1.52-1.2c.155-.127,1.4-1.047,1.558-1.161.355-.267,1.206-.869,1.564-1.13s1.209-.857,1.571-1.107,1.231-.822,1.586-1.066c1.069-.7,2.142-1.4,3.23-2.059s2.186-1.3,3.29-1.926c.425-.241,1.114-.635,1.542-.857l.847-.451,1.12-.571c.393-.2,1.314-.676,1.71-.869.571-.282,1.152-.546,1.726-.819s1.164-.53,1.745-.8c.178-.076.952-.428,1.123-.508.3-.127.59-.244.882-.368l2.021-.831q1.755-.711,3.531-1.336t3.554-1.218c1.193-.362,2.38-.742,3.573-1.079s2.389-.635,3.582-.952c.6-.155,1.193-.289,1.79-.435.187-.035.99-.219,1.174-.254l.9-.187c.885-.19,1.77-.371,2.659-.53,1.51-.26,3.014-.5,4.515-.723.676-.089,1.352-.178,2.024-.254.593-.076,1.187-.133,1.774-.2.2-.029.679-.076.882-.1s.679-.057.882-.076l1.771-.14,1.723-.114c.292-.016.581-.035.873-.048.2,0,.666-.022.866-.032.577-.022,1.152-.038,1.726-.051,1.152-.025,2.294-.06,3.43-.038s2.269.035,3.389.073c.416,0,1.085.038,1.494.057l1.415.079,1.663.127.831.063.831.076c.539.051,1.082.1,1.618.162,1.066.13,2.126.26,3.173.4.524.073,1.05.14,1.567.222s1.1.178,1.64.273c1.025.175,2.037.359,3.043.549s1.986.419,2.967.635l1.456.34c.485.111.952.228,1.44.355q1.586.406,3.122.85a110.9,110.9,0,0,1,10.753,3.706c2.221.892,4.334,1.824,6.346,2.783q1.088.523,2.135,1.047l.873.441c.4.2.787.4,1.168.612q1.989,1.072,3.807,2.119c1.206.7,2.351,1.412,3.449,2.1.546.343,1.079.679,1.586,1.015s1.006.673,1.488,1q1.447.987,2.738,1.9c.828.6,1.605,1.19,2.338,1.745s1.377,1.053,2,1.539,1.13.917,1.631,1.329c1.041.863,1.882,1.586,2.51,2.126l.431.371c.5.441.72.635.685.53.263.232.365.317.289.228l-.432-.428-.257-.27c-.317-.336-.714-.765-1.2-1.253-.247-.247-.514-.514-.806-.793L432.9,278.7c-.635-.619-1.352-1.307-2.145-2.034s-1.612-1.434-2.522-2.221c-.447-.384-.914-.777-1.393-1.177-.339-.279-.689-.555-1.047-.841l-.454-.355c-.317-.251-.635-.508-.968-.765q-.733-.568-1.5-1.152Z"
                  transform="translate(-208.304 -208.342)"/>
            <path class="h"
                  d="M443.323,309.647l-.714-.5c-.479-.336-.952-.685-1.469-1.031l-1.326-.907c-.546-.378-1.126-.72-1.7-1.088s-1.18-.727-1.783-1.1c-.3-.174-.59-.355-.892-.53l-.917-.524c-2.484-1.412-5.188-2.8-8.1-4.1-2.519-1.126-5.2-2.183-8.031-3.148-.46-.159-.926-.317-1.393-.466a93.368,93.368,0,0,0-10.642-2.741c-1.869-.371-3.779-.676-5.711-.952l-1.463-.181-.736-.089-.742-.076-1.494-.149-.85-.07-.66-.054c-.143,0-.685-.051-.831-.057l-.758-.038-.834-.041-.695-.032-.911-.029-.635-.022h-3.1l-1.155.019h-1.2l-.463.022-.317.016-1.326.067h-.26c-2.126.111-4.264.333-6.422.59-1.095.14-2.192.317-3.3.489q-.828.127-1.656.27t-1.659.317q-3.322.635-6.641,1.558c-1.1.3-2.205.635-3.306.977s-2.205.708-3.3,1.1-2.186.8-3.281,1.212l-1.621.673c-.27.111-.543.222-.812.339l-.812.349c-.536.232-1.079.46-1.612.714-.276.127-1.32.635-1.586.765s-1.32.635-1.586.787l-.8.4-.787.422q-1.567.841-3.122,1.723c-1.034.6-2.047,1.231-3.065,1.859-.26.162-1.269.784-1.517.952s-1.231.834-1.488,1.012-1.222.847-1.475,1.028c-.489.349-.984.689-1.46,1.057-.232.174-1.206.914-1.434,1.091s-1.193.933-1.425,1.111-.476.368-.708.562l-.692.581c-.238.2-1.142.952-1.377,1.171l-1.38,1.225c-.457.39-.885.819-1.329,1.225-.228.209-1.085,1.015-1.307,1.237l-1.32,1.269-1.228,1.269c-.1.111-.5.523-.612.635l-.635.673-.6.635c-.206.222-.416.444-.619.682l-1.2,1.38c-.206.232-.98,1.152-1.18,1.39l-.587.695c-.194.235-.374.476-.562.711s-.933,1.193-1.111,1.421l-1.1,1.444c-.368.476-.708.971-1.057,1.463-.181.254-.857,1.222-1.031,1.475s-.841,1.228-1.012,1.488-.79,1.253-.952,1.513c-.635,1.022-1.269,2.034-1.859,3.068s-1.161,2.075-1.723,3.119c-.07.136-.349.65-.419.787s-.317.66-.4.8c-.14.273-.654,1.32-.787,1.586s-.635,1.323-.768,1.586c-.254.53-.479,1.069-.711,1.605-.057.133-.3.679-.349.809l-.34.815c-.225.539-.447,1.082-.673,1.621-.409,1.095-.825,2.183-1.212,3.281s-.742,2.2-1.1,3.3-.676,2.2-.974,3.309q-.927,3.313-1.561,6.641c-.111.552-.222,1.1-.317,1.656s-.184,1.107-.27,1.663c-.171,1.1-.349,2.2-.489,3.293-.26,2.2-.489,4.379-.593,6.543-.029.543-.057,1.082-.082,1.618l-.041.806v.806l-.019,1.567v2.415l.025.79c.019.527.035,1.047.054,1.571s.051,1.041.073,1.558c0,.121.035.635.041.755s.054.663.067.79l.124,1.494c.048.495.1.99.152,1.482l.076.733c.032.244.06.485.089.73.06.485.124.971.187,1.453.273,1.926.577,3.807.952,5.67a91.861,91.861,0,0,0,2.735,10.537c.13.4.263.8.4,1.2.977,2.856,2.047,5.591,3.189,8.142,1.291,2.891,2.665,5.568,4.061,8.031.175.317.349.616.52.917s.352.593.527.888l.083.133c.317.536.635,1.066.971,1.586l.181.286c.289.457.565.914.854,1.352.1.146.194.286.292.428l.762,1.107c.343.5.695.99,1.031,1.472l.495.7c.447.606.9,1.171,1.32,1.726.349.451.682.895,1.019,1.323l1.012,1.225q.99,1.2,1.9,2.246c.609.7,1.206,1.32,1.755,1.9.822.885,1.558,1.64,2.183,2.275s1.174,1.136,1.586,1.526l1.51,1.406s-.46-.546-1.333-1.586c-.365-.425-.863-.952-1.434-1.65-.419-.514-.885-1.085-1.393-1.72s-1.028-1.269-1.586-2.018c-.7-.93-1.463-1.961-2.269-3.09-.3-.416-.593-.844-.9-1.269s-.6-.907-.9-1.377c-.609-.952-1.25-1.932-1.882-2.979s-1.269-2.158-1.9-3.306c-.5-.876-.98-1.8-1.469-2.754-.317-.606-.616-1.222-.926-1.853-.968-2-1.9-4.125-2.808-6.368a96.637,96.637,0,0,1-3.458-10.3c-.124-.412-.228-.828-.333-1.25s-.213-.844-.317-1.269c-.206-.85-.419-1.71-.609-2.583s-.355-1.758-.527-2.653q-.2-1.041-.381-2.107c-.079-.451-.14-.9-.206-1.361-.171-1.171-.317-2.357-.47-3.557-.089-.692-.136-1.4-.209-2.1-.032-.352-.063-.7-.1-1.06,0-.127-.048-.6-.057-.723-.019-.254-.051-.853-.07-1.11q-.048-1.076-.1-2.164c-.057-.977-.048-1.964-.06-2.954v-2.231c0-.247,0-.5.019-.746q.048-1.5.121-3.021c0-.133.032-.635.038-.758.025-.428.089-1.222.124-1.653.076-.784.143-1.586.235-2.357.054-.524.1-1.047.171-1.586s.14-1.05.213-1.586c.143-.984.3-1.97.451-2.957.181-1.079.4-2.158.635-3.24.076-.384.149-.768.228-1.155.057-.244.216-.9.273-1.149.187-.768.359-1.539.562-2.307.286-1.038.568-2.081.876-3.122s.635-2.075.977-3.116.689-2.078,1.095-3.1.8-2.053,1.2-3.081c.317-.742.654-1.491.984-2.237.168-.371.317-.755.5-1.12l.539-1.1c.124-.267.593-1.241.723-1.5s.432-.882.562-1.149.46-.869.6-1.13c.063-.117.333-.635.4-.742.194-.346.6-1.079.8-1.425.549-.977,1.136-1.932,1.72-2.894.149-.254.733-1.18.885-1.431s.777-1.155.936-1.406.781-1.152.952-1.4c.317-.466.635-.936.971-1.387q1.009-1.374,2.04-2.735c.082-.1.7-.926.787-1.028l.815-1c.1-.117.7-.831.8-.952l.8-.952c.276-.317.562-.663.857-.987l.885-.977c.2-.228.952-1.022,1.161-1.241l.873-.923c.1-.108.511-.5.616-.612l1.507-1.485c.2-.184,1.018-1,1.225-1.171s1.041-.952,1.269-1.145,1.044-.936,1.269-1.133l.977-.86c.317-.286.669-.552,1-.828.108-.082.558-.457.666-.539.222-.181.447-.355.673-.533s1.117-.882,1.323-1.041,1.149-.857,1.364-1.012,1.133-.809,1.371-.98l1.374-.974c.241-.165,1.158-.762,1.4-.923.952-.609,1.872-1.222,2.827-1.8s1.923-1.126,2.887-1.675c.282-.162.914-.514,1.2-.669l.742-.39,1.1-.558c.263-.133,1.228-.635,1.491-.755.5-.251,1.009-.473,1.51-.711s1.022-.463,1.533-.7l1.1-.495.774-.317,1.888-.768c1.022-.416,2.056-.787,3.087-1.149s2.066-.733,3.106-1.05,2.078-.635,3.119-.93,2.088-.546,3.128-.809c.52-.133,1.044-.251,1.564-.378.247-.044.9-.19,1.152-.238l.787-.159c.774-.162,1.548-.317,2.323-.454,1.323-.213,2.64-.425,3.95-.609.635-.082,1.253-.159,1.882-.222.514-.063,1.031-.111,1.545-.168.136-.019.635-.07.771-.083s.635-.048.768-.06l1.545-.111,1.5-.092.762-.038c.133,0,.635-.016.755-.022.5,0,1.006-.025,1.507-.032,1,0,2-.051,2.989-.019s1.977.044,2.957.079l1.168.048c.257,0,.857.054,1.114.067l1.45.117.727.057.727.067c.473.044.952.089,1.406.146q1.4.171,2.776.359c.46.063.917.121,1.371.194l1.415.241c.895.159,1.783.317,2.662.485s1.739.374,2.592.568l1.269.3c.422.1.844.2,1.269.317q1.387.362,2.729.752a98.175,98.175,0,0,1,9.411,3.262q2.913,1.177,5.546,2.443c.635.317,1.269.616,1.866.92.257.13.514.257.765.387.349.174.692.349,1.025.536q1.736.952,3.338,1.859c1.057.616,2.056,1.241,3.017,1.837.476.3.952.59,1.4.885l1.3.882q1.269.866,2.392,1.669c.727.53,1.406,1.044,2.047,1.526s1.209.923,1.748,1.345.993.809,1.428,1.168c.952.784,1.682,1.412,2.2,1.859l.378.317c.336.3.371.3.133,0,.136.108.155.111.057,0l-.365-.39-.225-.238c-.292-.317-.635-.679-1.05-1.1l-.7-.692-.885-.863c-.565-.546-1.187-1.152-1.878-1.783s-1.418-1.269-2.221-1.932q-.59-.5-1.218-1.034c-.3-.244-.6-.485-.917-.733l-.4-.317-.914-.606-1.314-1.006Z"
                  transform="translate(-237.534 -237.508)"/>
            <path class="h"
                  d="M464.438,349.71l-.609-.428c-.409-.286-.825-.581-1.269-.876l-1.044-.717c-.47-.317-.974-.635-1.475-.952s-1.022-.635-1.545-.952l-.762-.451-.781-.447c-2.126-1.206-4.442-2.386-6.923-3.49-2.154-.952-4.442-1.866-6.863-2.691-.393-.136-.79-.27-1.19-.4a78.606,78.606,0,0,0-9.094-2.345c-1.586-.317-3.23-.581-4.893-.812l-1.25-.159-.635-.073-.635-.07-1.269-.127-.727-.06-.562-.051c-.181,0-.562-.041-.742-.048l-.635-.032-.711-.035-.593-.029-.777-.029-.533-.022h-4.655l-.4.019H413.6l-1.136.057h-.222c-1.815.082-3.639.286-5.486.492-.952.117-1.9.276-2.856.419l-1.431.225-1.428.286q-2.856.533-5.711,1.333c-.952.26-1.9.546-2.856.838s-1.9.612-2.856.952-1.885.689-2.83,1.038l-1.4.581-.7.3-.7.3c-.463.2-.933.39-1.39.612-.14.063-1.237.6-1.374.663l-1.374.673-.689.34-.676.365q-1.345.733-2.694,1.485c-.892.511-1.761,1.063-2.64,1.586-.13.082-1.184.736-1.31.822l-1.269.873c-.127.089-1.145.8-1.269.888-.422.3-.854.587-1.269.907l-1.234.952-1.231.952c-.2.162-.412.317-.609.482l-.6.5c-.117.1-1.069.907-1.187,1.012L362,355.38c-.4.336-.761.708-1.145,1.06-.114.1-1.012.952-1.123,1.063l-1.142,1.088-1.05,1.1-.508.609-.552.568-.514.546c-.178.187-.352.374-.527.581l-1.031,1.2c-.1.114-.923,1.082-1.025,1.2l-.511.6c-.168.2-.317.409-.482.612l-.952,1.228-.952,1.237c-.317.406-.609.838-.911,1.269l-.885,1.269c-.089.127-.79,1.149-.873,1.269s-.739,1.18-.819,1.31c-.539.879-1.091,1.748-1.605,2.64s-.993,1.8-1.482,2.694l-.365.676c-.035.067-.317.619-.339.689-.07.136-.606,1.237-.673,1.374s-.6,1.237-.663,1.377c-.222.454-.412.923-.612,1.387l-.3.7c-.1.232-.2.466-.292.7-.194.466-.387.93-.584,1.4-.349.952-.7,1.885-1.038,2.83s-.635,1.9-.952,2.856-.581,1.9-.841,2.856q-.795,2.856-1.333,5.711c-.1.476-.19.952-.282,1.428s-.155.952-.228,1.431c-.143.952-.3,1.9-.419,2.856-.209,1.9-.422,3.773-.495,5.638-.025.466-.048.933-.07,1.4l-.035.692v4.125l.025.679c0,.454.035.9.051,1.352s.044.9.063,1.345c0,.146.025.495.038.635s.041.527.06.689c.035.425.07.85.108,1.269s.086.844.133,1.269c.022.209.044.416.07.635s.048.412.076.619q.076.635.162,1.237c.232,1.64.5,3.249.815,4.823a79.3,79.3,0,0,0,2.332,8.963q.165.514.343,1.018c.831,2.443,1.745,4.759,2.716,6.93,1.1,2.456,2.262,4.734,3.449,6.834q.222.4.447.781c.146.254.3.5.444.755.025.038.048.076.07.114.279.454.552.9.828,1.342.051.083.1.162.149.244.247.387.479.777.723,1.152.083.124.165.244.251.362l.635.952c.3.428.59.844.876,1.269l.419.6c.489.663.984,1.269,1.444,1.885.3.387.59.768.879,1.136s.6.7.879,1.047c.574.679,1.117,1.32,1.634,1.9s1.044,1.12,1.517,1.621c.612.635,1.164,1.215,1.647,1.71s.923.885,1.269,1.218l1.644,1.523-1.44-1.717c-.317-.362-.7-.793-1.136-1.329-.355-.447-.749-.952-1.174-1.488s-.873-1.111-1.345-1.742q-.806-1.095-1.726-2.4l-.771-1.1c-.254-.384-.5-.784-.765-1.19-.517-.815-1.066-1.663-1.605-2.564s-1.063-1.856-1.618-2.856c-.374-.635-.708-1.323-1.066-2.015l-.793-1.586c-.831-1.713-1.644-3.541-2.415-5.47a84.223,84.223,0,0,1-3.068-9.176c-.1-.355-.194-.714-.279-1.076l-.267-1.095c-.171-.73-.355-1.466-.517-2.221s-.3-1.51-.441-2.278c-.1-.508-.19-1.019-.279-1.536-.07-.384-.117-.777-.174-1.168-.13-.914-.251-1.837-.371-2.77-.092-.679-.133-1.368-.206-2.059l-.1-1.041c0-.063-.051-.555-.054-.635,0-.127-.035-.685-.044-.812q-.048-1.057-.1-2.126c-.054-.838-.029-1.685-.041-2.538v-1.9c0-.213.016-.425.022-.635.032-.857.07-1.723.111-2.592l.032-.65c0-.213.07-.882.086-1.1.057-.571.108-1.149.171-1.723.038-.451.082-.9.136-1.352s.117-.9.178-1.358c.121-.847.251-1.694.374-2.538.146-.907.333-1.815.511-2.726l.219-1.133.267-1.13c.184-.752.349-1.51.549-2.265.247-.885.495-1.777.755-2.668s.558-1.771.844-2.659.581-1.777.936-2.649.682-1.751,1.028-2.63l.974-2.2c.168-.365.317-.739.495-1.1l.536-1.082.635-1.269.412-.838c.063-.133.378-.695.444-.825s.267-.489.349-.635l.841-1.485c.476-.834.993-1.644,1.5-2.462.073-.127.689-1.1.765-1.222s.736-1.069.815-1.193.746-1.117.841-1.244c.276-.4.543-.8.838-1.18q.876-1.161,1.761-2.316c.1-.133.473-.635.581-.752l.6-.723c.048-.06.739-.863.787-.923l.787-.917c.2-.238.412-.482.635-.72l.66-.717c.1-.114.9-.952,1-1.06l.863-.907c.051-.054.479-.466.53-.52l1.409-1.364c.244-.228.793-.781,1.05-1,.108-.1.98-.863,1.088-.952s.98-.863,1.095-.952l.717-.635c.238-.206.492-.4.736-.6l.574-.46.581-.454c.26-.2.869-.685,1.13-.885s.9-.666,1.168-.86l1.18-.834,1.177-.834c.121-.082,1.085-.7,1.206-.784.809-.517,1.605-1.047,2.427-1.536s1.653-.952,2.481-1.428l.86-.482.635-.317,1.079-.546,1.269-.635c.422-.216.863-.4,1.291-.6s.879-.4,1.317-.6l1.076-.482.666-.267,1.758-.7c.869-.359,1.758-.657,2.643-.952s1.761-.635,2.656-.876,1.777-.53,2.665-.784,1.786-.451,2.675-.673c.447-.111.892-.213,1.336-.317.317-.057.825-.162,1.133-.222l.676-.13c.663-.133,1.323-.267,1.986-.378,1.133-.168,2.259-.346,3.382-.495.581-.076,1.158-.143,1.736-.194l1.32-.136.657-.067.657-.041,1.32-.083,1.285-.07.635-.032h.635l1.285-.016c.857,0,1.71-.035,2.538,0s1.685.054,2.519.086l.844.035.812.057,1.234.1c.209.022.419.038.635.054l.635.057c.4.035.8.076,1.19.127l2.38.317c.393.054.787.1,1.174.168l1.19.209c.768.136,1.526.276,2.281.419s1.488.317,2.221.5l1.095.254c.365.086.727.168,1.079.273q1.19.317,2.342.65a83.944,83.944,0,0,1,8.065,2.818c1.666.676,3.249,1.383,4.759,2.1q.815.4,1.586.8l.66.317c.3.149.59.3.876.463q1.485.819,2.856,1.586c.907.53,1.758,1.072,2.583,1.586.406.257.812.5,1.2.758l1.11.762c.723.5,1.406.971,2.047,1.425s1.206.9,1.755,1.314l1.5,1.149c.451.352.85.7,1.218,1.006.85.708,1.488,1.244,1.9,1.586l.317.276c.168.146.019-.032-.416-.52a1.58,1.58,0,0,0-.181-.225L475,359.08l-.194-.2c-.26-.273-.552-.6-.9-.952l-.606-.59-.761-.742c-.492-.47-1.019-.993-1.609-1.536s-1.225-1.069-1.9-1.65c-.336-.289-.685-.587-1.044-.888-.254-.209-.517-.416-.787-.635l-.343-.27c-.241-.184-.482-.374-.73-.568l-1.088-.895C464.841,350.008,464.641,349.859,464.438,349.71Z"
                  transform="translate(-266.631 -266.66)"/>
            <path class="h"
                  d="M496.13,399.348l-1.64-1.777c-.273-.286-.562-.619-.907-.952l-1.145-1.111c-.416-.4-.854-.838-1.342-1.285l-1.586-1.368-.869-.746c-.3-.247-.635-.489-.952-.742-.635-.5-1.323-1.038-2.043-1.571l-2.3-1.586c-.393-.286-.825-.527-1.25-.8l-1.307-.806a67.29,67.29,0,0,0-12.714-5.876,68.438,68.438,0,0,0-16.334-3.366c-.371-.038-.742-.073-1.117-.086l-1.126-.054-1.133-.051-.571-.025h-3.462l-.581.029-1.171.057c-1.567.048-3.141.238-4.734.4-.793.1-1.586.235-2.386.352l-1.2.181-1.2.238a66.655,66.655,0,0,0-9.592,2.6l-2.38.866-2.348.984c-.39.168-.79.317-1.174.511l-1.152.558-1.155.562-.581.282-.565.317-2.265,1.222c-.749.428-1.475.9-2.221,1.345l-1.107.685-1.072.736-1.069.742c-.355.251-.72.489-1.06.761l-2.069,1.586c-.171.136-.349.263-.517.4l-.495.425-1,.85-.98.863c-.333.279-.635.593-.952.888l-1.9,1.818-1.78,1.882-.441.441c-.146.152-.289.3-.435.476l-.869,1.015-.866,1.012-.431.508c-.143.168-.27.343-.406.517l-1.586,2.069c-.273.34-.511.7-.761,1.06l-.742,1.069-.736,1.072-.685,1.107c-.447.739-.917,1.466-1.345,2.221l-1.244,2.265-.317.565-.282.581-.562,1.155-.558,1.152c-.19.384-.343.781-.511,1.171l-.984,2.351-.866,2.38a66.54,66.54,0,0,0-2.6,9.592l-.238,1.2-.181,1.2c-.117.8-.257,1.586-.349,2.386-.165,1.586-.355,3.173-.4,4.734-.022.39-.041.781-.06,1.171l-.029.581V447.8l.025.571c.019.378.035.755.051,1.133s.038.752.054,1.126.048.746.086,1.117a68.378,68.378,0,0,0,3.366,16.331A67.323,67.323,0,0,0,386.6,480.8l.806,1.307c.27.425.511.854.8,1.25l1.586,2.3c.533.72,1.072,1.393,1.586,2.043.251.317.492.635.739.952l.746.869,1.367,1.586c.447.485.888.923,1.285,1.339s.768.793,1.107,1.142.673.635.952.911l1.78,1.644-1.548-1.859c-.251-.317-.543-.635-.838-1.012L396.012,492c-.343-.454-.717-.936-1.1-1.46s-.765-1.1-1.184-1.7l-.635-.923c-.209-.317-.412-.657-.635-1-.422-.685-.882-1.393-1.326-2.145s-.869-1.561-1.333-2.386c-.241-.406-.438-.847-.66-1.269l-.666-1.329a70.794,70.794,0,0,1-4.712-12.638c-.089-.3-.159-.6-.228-.9s-.14-.606-.213-.911c-.143-.612-.3-1.225-.432-1.85s-.232-1.269-.352-1.9c-.057-.317-.117-.635-.178-.952s-.092-.65-.14-.98c-.092-.654-.181-1.314-.276-1.98s-.13-1.342-.2-2.018l-.1-1.022-.048-.514-.022-.517q-.041-1.034-.092-2.085c-.048-.7,0-1.406-.022-2.113v-1.6c0-.178.016-.359.022-.536.035-.717.067-1.437.1-2.164l.025-.543.051-.546.1-1.091c.108-1.463.352-2.925.546-4.4.111-.739.27-1.472.4-2.221l.209-1.114c.086-.368.174-.736.26-1.107.181-.736.343-1.482.536-2.221s.422-1.475.635-2.221.47-1.469.708-2.221.479-1.475.781-2.2.568-1.453.854-2.186l.952-2.151c.168-.355.317-.723.492-1.076l.533-1.057.533-1.06.27-.533.292-.517,1.18-2.075c.4-.689.85-1.352,1.269-2.028l.635-1.012.695-.98.692-.984c.232-.317.451-.666.7-.977.495-.635.987-1.269,1.482-1.9.124-.159.244-.317.371-.473l.387-.447.774-.9.771-.895a5.062,5.062,0,0,1,.416-.454l.435-.457,1.691-1.77,1.751-1.672c.3-.273.571-.565.882-.825l.914-.79.914-.79.457-.393c.155-.13.317-.251.476-.374l1.9-1.482c.317-.254.65-.473.977-.708l.984-.689.98-.695,1.012-.635c.676-.425,1.339-.869,2.027-1.269l2.075-1.177.517-.292.533-.27,1.06-.533,1.06-.533c.349-.184.717-.317,1.076-.492l2.151-.952,2.183-.854c.72-.3,1.466-.53,2.2-.781s1.46-.517,2.221-.708l2.221-.635c.739-.194,1.485-.355,2.221-.536l1.1-.26,1.114-.209c.742-.133,1.475-.289,2.221-.4,1.482-.2,2.941-.438,4.4-.546l1.095-.1.543-.051.546-.025,2.161-.1c.178,0,.359-.019.536-.022h1.6c.708,0,1.415-.025,2.113.022l2.085.092.517.022.514.048,1.022.1c.676.07,1.355.108,2.018.2l1.98.276c.317.048.657.079.98.14l.952.178,1.9.352c.635.133,1.237.289,1.85.431l.914.213c.3.07.6.14.9.228a70.791,70.791,0,0,1,12.628,4.693l1.333.666c.432.222.873.419,1.269.66l2.386,1.333c.755.444,1.46.9,2.145,1.323.343.216.679.419,1,.635l.92.635,1.7,1.184c.524.384,1,.758,1.46,1.1l1.269.952c.384.3.711.59,1.015.841Z"
                  transform="translate(-295.816 -295.832)"/>
        </g>
        <path class="i" d="M436.71,517.311a56.995,56.995,0,1,0,0-80.592,56.995,56.995,0,0,0,0,80.592Z"
              transform="translate(-365.62 -365.628)"/>
        <path class="j" d="M454.454,526.277a50.782,50.782,0,1,0,0-71.819A50.782,50.782,0,0,0,454.454,526.277Z"
              transform="translate(-378.973 -378.985)"/>
        <path class="c" d="M580.379,589.911a6.742,6.742,0,1,0,0-9.519A6.742,6.742,0,0,0,580.379,589.911Z"
              transform="translate(-473.755 -473.762)"/>
        <path class="k"
              d="M1075.31,31.391A187.784,187.784,0,0,0,851.466,63.374c-73.11,73.5-72.789,192.354.711,265.464A187.792,187.792,0,0,0,1075.32,360.11Z"
              transform="translate(-622.879 -84.367)"/>
        <g class="g" transform="translate(186.653 -67.111)">
            <path class="h"
                  d="M1102.616,62.27c-1.52-.92-3.059-1.824-4.626-2.694-1.805-1.044-3.668-1.993-5.514-2.983-1.878-.952-3.747-1.9-5.667-2.783s-3.849-1.758-5.791-2.618l-2.944-1.222c-.495-.2-.984-.409-1.482-.6l-1.495-.574c-3.979-1.552-8.053-2.922-12.178-4.172s-8.316-2.342-12.552-3.3-8.51-1.729-12.841-2.364l-3.243-.451-3.255-.371c-.543-.06-1.085-.127-1.631-.178l-1.634-.143c-1.088-.089-2.177-.206-3.268-.273l-3.262-.206c-1.091-.073-2.186-.089-3.281-.136s-2.189-.082-3.284-.086l-3.328-.035-3.221.054c-.539,0-1.063,0-1.618.035l-1.656.067c-1.1.054-2.221.076-3.306.155l-3.278.222c-1.091.07-2.177.194-3.268.286l-1.631.152c-.546.054-1.088.127-1.631.187l-3.268.4-3.243.466c-4.309.666-8.6,1.434-12.828,2.437s-8.418,2.075-12.533,3.366-8.183,2.665-12.155,4.236l-1.491.584c-.495.2-.984.409-1.475.612L941.8,51.58c-1.935.869-3.877,1.717-5.775,2.646s-3.779,1.866-5.651,2.818c-1.844,1-3.7,1.958-5.5,3.011-3.633,2.037-7.133,4.245-10.543,6.514s-6.7,4.664-9.9,7.1-6.241,5.013-9.2,7.615q-1.088.993-2.18,1.98l-1.082.99-1.06,1.009-2.1,2.015-2.04,2.05-1.015,1.022-.99,1.041L882.8,93.469l-1.9,2.107-.952,1.05-.917,1.069L877.2,99.821q-.885,1.076-1.761,2.151l-.876,1.069-.847,1.085-1.682,2.161c-2.183,2.91-4.3,5.8-6.232,8.741a172.363,172.363,0,0,0-17.863,34.616c-2.1,5.546-3.807,10.905-5.188,15.995l-.511,1.9c-.168.635-.317,1.253-.466,1.872-.3,1.241-.635,2.453-.869,3.658s-.53,2.383-.765,3.544-.435,2.307-.635,3.427-.368,2.221-.549,3.3c-.089.539-.174,1.072-.26,1.586s-.143,1.053-.213,1.586l-.409,3.027c-.108.987-.216,1.951-.317,2.887a159.326,159.326,0,0,0-.917,17.451c-.032,2.015.051,3.56.063,4.6s.038,1.586.038,1.586.025-.536.07-1.586.092-2.58.241-4.588c.232-4.014.746-9.9,1.9-17.289a178.917,178.917,0,0,1,6.222-26.189c1.586-4.947,3.49-10.134,5.768-15.477a177.282,177.282,0,0,1,8.024-16.417,171.423,171.423,0,0,1,10.582-16.766c1.977-2.8,4.1-5.556,6.295-8.326l1.691-2.05.85-1.034.879-1.015,1.764-2.04,1.821-2.012A176.771,176.771,0,0,1,899.11,85.759c1.469-1.212,2.919-2.462,4.442-3.639.758-.59,1.5-1.209,2.275-1.79l2.316-1.751c3.132-2.3,6.327-4.575,9.665-6.692.416-.267.828-.539,1.247-.8l1.269-.781c.847-.514,1.685-1.05,2.538-1.552,1.72-1,3.443-2.021,5.2-2.976s3.544-1.9,5.331-2.833c1.815-.888,3.62-1.809,5.473-2.64s3.712-1.663,5.584-2.478l2.856-1.155c.476-.19.952-.39,1.428-.571l1.44-.543c.952-.352,1.9-.742,2.887-1.076l2.916-1.022c.974-.34,1.961-.635,2.944-.952l1.475-.479,1.488-.441a173.383,173.383,0,0,1,24.387-5.422l3.113-.441,3.125-.365c.524-.057,1.041-.127,1.564-.175l1.567-.143c1.047-.089,2.091-.2,3.141-.27l3.144-.2c1.053-.073,2.085-.089,3.125-.14l1.561-.06c.514-.025,1.066-.019,1.586-.032l3.221-.044,3.109.029c1.05,0,2.1.035,3.151.073s2.1.057,3.154.124l3.144.187c1.05.06,2.094.171,3.141.251l1.586.133c.52.048,1.041.114,1.564.168l3.125.349,3.116.425a173.244,173.244,0,0,1,24.431,5.292l1.491.432,1.475.47c.984.317,1.974.616,2.948.952l2.922,1.009c.974.317,1.929.711,2.894,1.06l1.444.533c.482.181.952.378,1.431.565l2.856,1.139c1.875.8,3.76,1.586,5.6,2.446s3.668,1.736,5.486,2.611c1.793.93,3.6,1.824,5.346,2.8s3.49,1.955,5.219,2.948c.863.5,1.7,1.028,2.554,1.539l.029.019Z"
                  transform="translate(-836.838 -37.08)"/>
            <path class="h"
                  d="M1136.664,115.328l-.317-.232q-1.161-.793-2.335-1.561c-3.116-2.056-6.317-4.049-9.633-5.889-1.644-.952-3.338-1.818-5.023-2.716s-3.414-1.736-5.162-2.538-3.49-1.6-5.27-2.386l-2.684-1.114c-.45-.184-.9-.374-1.348-.549l-1.361-.527c-.9-.352-1.812-.7-2.725-1.028-.838-.317-1.9-.682-2.76-.971s-1.932-.635-2.786-.926l-1.4-.444c-.432-.136-.987-.317-1.418-.435q-2.818-.863-5.673-1.612c-1.9-.5-3.833-.952-5.765-1.4-.879-.2-2.008-.454-2.9-.635s-2.027-.4-2.922-.562-2.037-.359-2.935-.5q-1.472-.244-2.944-.463l-2.954-.4-2.967-.343c-.495-.054-.987-.121-1.485-.165l-1.488-.13c-.907-.073-2.069-.19-2.979-.244l-2.986-.187c-.993-.067-1.993-.079-2.989-.124-.911-.035-2.075-.076-2.989-.076l-3.03-.038-2.935.054c-.447,0-1.009,0-1.472.032l-1.513.06c-.438.022-1,.041-1.44.057-.52.022-1.044.044-1.561.082l-2.989.2c-.911.06-2.075.184-2.983.263l-1.491.136c-.495.048-.99.114-1.485.171l-2.963.359-2.951.422c-.987.149-1.97.317-2.951.476-.9.152-2.043.359-2.938.524s-2.031.39-2.919.577-2.005.438-2.881.635c-1.929.451-3.855.92-5.762,1.431s-3.785,1.053-5.657,1.637l-1.418.454-1.406.454c-.857.279-1.942.65-2.789.952s-1.926.679-2.764.99c-.907.317-1.809.682-2.7,1.038l-1.358.533c-.451.181-.9.371-1.345.558l-2.681,1.126c-1.764.793-3.531,1.586-5.257,2.415s-3.443,1.7-5.146,2.567-3.37,1.786-5.01,2.745c-3.306,1.859-6.495,3.868-9.6,5.94q-1.168.771-2.313,1.564c-.765.533-1.526,1.076-2.278,1.618q-2.243,1.628-4.417,3.293c-2.9,2.24-5.689,4.566-8.376,6.945l-1.983,1.805-.99.9-.952.92-1.9,1.831-1.869,1.875-.923.93-.9.952-1.786,1.9-1.732,1.92-.854.952-.841.977c-.549.635-1.1,1.288-1.647,1.929l-1.586,1.951-.79.971-.768.984-1.523,1.961c-1.98,2.64-3.893,5.261-5.645,7.932a154.862,154.862,0,0,0-9.328,15.906l-.952,1.9c-2.265,4.61-4.233,9.147-5.9,13.567-1.9,5.023-3.449,9.884-4.705,14.5-.156.574-.317,1.149-.466,1.717s-.282,1.136-.422,1.7c-.022.086-.041.174-.063.263-.251,1.031-.514,2.043-.723,3.049l-.124.568c-.2.895-.4,1.774-.574,2.643l-.162.869q-.216,1.136-.419,2.221c-.19,1.015-.336,2.018-.5,3-.079.489-.159.971-.235,1.447-.086.612-.165,1.215-.244,1.805-.124.952-.247,1.859-.365,2.754s-.194,1.777-.282,2.63c-.184,1.723-.317,3.354-.438,4.886s-.184,2.979-.238,4.321c-.1,2.516-.127,4.671-.13,6.425s.048,3.148.06,4.093c.035,1.174.054,1.786.054,1.786s.035-.612.1-1.786c.054-.952.089-2.31.225-4.077.07-1.085.162-2.319.282-3.69.117-1.3.257-2.726.438-4.268.26-2.256.6-4.759,1.034-7.507.136-.838.279-1.7.435-2.576s.317-1.783.508-2.7c.362-1.84.768-3.763,1.231-5.752s.99-4.049,1.586-6.171q.838-3.075,1.872-6.32.517-1.618,1.085-3.271c1.2-3.49,2.576-7.117,4.163-10.813a161.365,161.365,0,0,1,7.425-15.163c.346-.635.7-1.253,1.063-1.881s.73-1.269,1.1-1.888q1.12-1.885,2.31-3.779t2.408-3.792q1.269-1.869,2.586-3.738c.438-.635.888-1.241,1.342-1.859,1.364-1.853,2.792-3.7,4.255-5.543.546-.673,1.1-1.342,1.656-2.018l.838-1.012c.241-.282.552-.635.793-.926l1.539-1.774,1.793-1.98c1.095-1.209,2.221-2.4,3.379-3.589q.863-.885,1.745-1.77l.873-.866.888-.863q1.809-1.742,3.681-3.449l.952-.85c.933-.838,1.964-1.736,2.925-2.561,1.269-1.053,2.538-2.139,3.871-3.173.685-.543,1.361-1.1,2.062-1.631l2.107-1.586q1.989-1.472,4.023-2.91,2.316-1.628,4.728-3.173c.406-.263.809-.533,1.218-.8l1.244-.765c.834-.508,1.656-1.034,2.5-1.529,1.564-.907,3.129-1.828,4.731-2.7s3.22-1.717,4.842-2.57,3.284-1.644,4.969-2.4,3.376-1.51,5.077-2.25l2.8-1.126c.47-.184.933-.384,1.406-.558l1.418-.524c.8-.3,1.818-.692,2.627-.971l2.538-.888c.809-.282,1.745-.565,2.564-.834l1.342-.428,1.586-.463c1.8-.536,3.617-1.034,5.445-1.507.834-.216,1.9-.476,2.738-.679s1.9-.438,2.757-.635,1.923-.406,2.773-.581c.926-.184,1.856-.365,2.786-.533q2.824-.508,5.667-.93l2.71-.381,2.719-.317c.435-.051,1.1-.124,1.536-.165l1.536-.136c.907-.076,1.821-.175,2.735-.228l2.745-.175c.876-.06,1.97-.079,2.856-.121l1.542-.06c.428-.019,1.009,0,1.453-.022l3.033-.029c.079,0,2.748.022,2.827.029.876,0,1.986.048,2.856.079s1.986.063,2.855.121l2.741.165c.911.051,1.821.149,2.732.222l1.428.124c.473.044.952.1,1.421.155l2.837.317,2.827.39c.854.124,1.935.3,2.786.432s1.929.317,2.773.47,1.9.362,2.76.527c1.834.365,3.658.752,5.473,1.18s3.611.885,5.394,1.374c.92.251,1.948.543,2.856.812l1.352.4,1.453.463c.819.263,1.862.581,2.675.86l2.652.92c.885.3,1.751.635,2.63.952l1.412.524c.438.165.866.346,1.3.517l2.687,1.085c1.707.727,3.408,1.447,5.077,2.221s3.328,1.586,4.975,2.38,3.259,1.666,4.848,2.554,3.173,1.783,4.731,2.691c.781.451,1.545.933,2.316,1.4.06.044,1.18.73,1.241.771.381.238.755.485,1.133.727q1.691,1.06,3.328,2.177,1.149.784,2.275,1.586Z"
                  transform="translate(-870.885 -71.25)"/>
            <path class="h"
                  d="M1170.635,169.2q-1.539-1.25-3.119-2.472c-1.317-1-2.656-1.98-4.007-2.954q-1.012-.727-2.047-1.444t-2.1-1.406c-2.808-1.862-5.711-3.658-8.687-5.324-1.485-.85-3.011-1.64-4.531-2.449s-3.081-1.567-4.655-2.3-3.173-1.447-4.759-2.158l-2.421-1c-.406-.165-.809-.336-1.218-.495l-1.228-.479c-.815-.317-1.631-.635-2.459-.93-.669-.244-1.815-.635-2.491-.876s-1.831-.616-2.513-.834c-.343-.111-.92-.3-1.269-.409s-.952-.282-1.269-.387q-2.538-.774-5.121-1.456c-1.72-.454-3.455-.86-5.2-1.269-.7-.165-1.9-.432-2.615-.577s-1.923-.374-2.637-.5-1.932-.343-2.649-.46c-.885-.146-1.767-.292-2.656-.419-.168-.019-2.5-.339-2.665-.362l-2.678-.317c-.447-.048-.892-.108-1.339-.146l-1.345-.117c-.727-.057-1.961-.175-2.687-.219l-2.694-.171c-.9-.063-1.8-.073-2.7-.111-.73-.029-1.964-.07-2.694-.07l-2.738-.035-2.643.051c-.362,0-.952,0-1.329.029l-1.368.054-1.3.051c-.466.019-.933.038-1.4.073l-2.7.187c-.73.048-1.974.171-2.7.235l-1.345.121c-.451.044-.895.108-1.339.159l-2.675.317-2.665.378c-.892.13-1.777.282-2.662.432-.717.121-1.936.339-2.649.476s-1.926.368-2.637.517-1.9.422-2.6.587c-1.742.409-3.49.828-5.2,1.288s-3.414.952-5.105,1.482c-.343.108-.927.286-1.269.4s-.923.3-1.269.412c-.682.225-1.837.635-2.516.854s-1.821.635-2.491.892c-.822.3-1.634.635-2.443.952l-1.225.482c-.406.162-.809.336-1.212.5l-2.421,1.015c-1.586.72-3.173,1.421-4.759,2.183s-3.1,1.539-4.639,2.319-3.04,1.615-4.518,2.475c-2.983,1.682-5.864,3.49-8.659,5.369-.7.466-1.4.952-2.088,1.412s-1.374.971-2.053,1.466c-1.345.977-2.678,1.967-3.985,2.97q-3.918,3.046-7.548,6.276l-1.789,1.628-.892.812-.866.834-1.707,1.647-1.691,1.7-.834.841-.809.86c-.539.571-1.076,1.139-1.609,1.71l-1.564,1.729c-.048.051-.72.8-.765.857s-.711.828-.758.888q-.742.866-1.475,1.732l-1.431,1.751-.708.873-.685.882c-.457.587-.914,1.174-1.364,1.758-1.774,2.37-3.49,4.724-5.077,7.117a139.911,139.911,0,0,0-8.361,14.278c-.289.574-.574,1.145-.857,1.72-2.031,4.125-3.807,8.205-5.292,12.171-1.7,4.505-3.094,8.862-4.223,13.009l-.416,1.539c-.136.511-.257,1.018-.384,1.523l-.032.228c-.222.926-.457,1.834-.635,2.738-.035.168-.073.336-.111.5-.174.8-.359,1.586-.517,2.373-.051.26-.1.52-.146.777q-.19,1.018-.374,2.008c-.168.911-.317,1.809-.454,2.684-.07.438-.14.869-.213,1.295-.1.7-.181,1.383-.27,2.043-.111.847-.225,1.675-.317,2.484s-.165,1.6-.247,2.37q-.235,2.329-.384,4.4c-.092,1.383-.152,2.681-.2,3.89-.086,2.145-.1,3.995-.111,5.511s.048,2.735.06,3.582c.041,1.31.063,2,.063,2s.048-.685.13-1.989c.051-.847.086-2.043.206-3.57.073-.98.162-2.091.276-3.319.114-1.174.244-2.456.409-3.839.235-1.954.533-4.125.914-6.482q.181-1.133.39-2.319c.146-.793.317-1.586.47-2.434.317-1.656.7-3.385,1.12-5.178s.9-3.639,1.428-5.553c.473-1.745,1.015-3.538,1.586-5.375q.466-1.456.977-2.951c1.082-3.147,2.323-6.406,3.75-9.741a145.467,145.467,0,0,1,6.825-13.907q.476-.847.952-1.691c.317-.562.66-1.133,1-1.7.676-1.13,1.364-2.269,2.081-3.4s1.463-2.265,2.221-3.4q1.066-1.586,2.2-3.173c.393-.562.8-1.114,1.212-1.672,1.187-1.605,2.421-3.2,3.684-4.807.53-.666,1.082-1.32,1.628-1.983l.822-1,.711-.831c.39-.454.92-1.057,1.314-1.51.584-.635,1.171-1.295,1.764-1.945.98-1.091,2.012-2.154,3.046-3.224q.774-.8,1.586-1.586l.787-.781c.267-.263.536-.52.8-.777q1.631-1.561,3.319-3.1l.844-.762c.749-.673,1.672-1.472,2.44-2.132,1.091-.9,2.167-1.821,3.293-2.7.615-.492,1.225-1,1.856-1.475s1.269-.952,1.9-1.447q1.789-1.323,3.617-2.63c1.377-.974,2.786-1.9,4.214-2.84.4-.26.793-.527,1.2-.787l1.222-.755c.815-.5,1.625-1.015,2.456-1.5,1.406-.815,2.814-1.637,4.252-2.421s2.9-1.542,4.356-2.307,2.951-1.482,4.467-2.151,3.033-1.355,4.563-2.021l2.754-1.1c.46-.178.914-.374,1.38-.543l1.4-.5c.635-.238,1.717-.635,2.367-.866l2.161-.755c.635-.225,1.532-.489,2.186-.7.076-.019,1.136-.362,1.212-.381l1.663-.482c1.621-.476,3.259-.911,4.9-1.333.666-.171,1.793-.441,2.462-.6s1.808-.4,2.484-.549,1.815-.374,2.494-.514c.834-.165,1.669-.317,2.51-.47q2.538-.441,5.077-.815c.076,0,2.221-.317,2.307-.317l2.313-.26,1.5-.152,1.5-.13c.774-.067,1.552-.146,2.332-.19l2.342-.143c.7-.048,1.862-.07,2.557-.1l1.523-.054h1.307l2.856-.016c.155,0,2.386.022,2.538.035.7,0,1.872.057,2.57.082s1.872.07,2.573.117l2.332.14c.777.044,1.552.13,2.326.194l1.269.117c.428.041.854.1,1.269.143l2.538.289c.156,0,2.386.317,2.538.355.685.1,1.828.282,2.507.39s1.821.317,2.5.425,1.809.346,2.484.479c1.647.333,3.29.679,4.924,1.066s3.249.809,4.858,1.247c.736.2,1.694.473,2.424.689l1.215.362,1.425.457c.657.213,1.755.552,2.405.774.8.27,1.586.558,2.38.831s1.586.587,2.37.876l1.38.514c.393.152.781.317,1.168.47l2.538,1.031c1.532.635,3.056,1.31,4.553,2.018s2.992,1.415,4.464,2.151,2.922,1.507,4.35,2.307,2.837,1.612,4.242,2.427c.7.409,1.386.841,2.078,1.269.121.086,1.092.682,1.212.765.343.216.679.441,1.015.657q1.513.952,2.986,1.967,2.494,1.72,4.905,3.49,1.028.771,2.037,1.555c.635.473,1.234.974,1.853,1.456.254.194.67.527.917.727s.654.543.9.742l.1.082Z"
                  transform="translate(-904.857 -105.331)"/>
            <path class="h"
                  d="M1204.7,224.686l-1.3-1.291-1.117-1.072-.4-.387-.393-.374-.368-.346-.463-.416-.317-.292-1.323-1.19-.26-.235c-2.132-1.9-4.369-3.715-6.663-5.5-1.171-.892-2.367-1.764-3.573-2.633q-.9-.654-1.821-1.295t-1.875-1.25c-2.5-1.669-5.077-3.268-7.742-4.759-1.323-.758-2.681-1.463-4.039-2.183s-2.745-1.4-4.147-2.056-2.821-1.291-4.239-1.929l-2.161-.892c-.362-.146-.723-.3-1.085-.441l-1.095-.428c-.727-.286-1.456-.574-2.192-.834-.5-.184-1.717-.6-2.221-.777s-1.729-.587-2.24-.749l-1.126-.368-1.142-.343q-2.266-.685-4.563-1.3c-1.536-.406-3.087-.765-4.639-1.126-.527-.121-1.8-.409-2.332-.517s-1.815-.349-2.351-.444-1.824-.317-2.361-.412c-.79-.13-1.586-.267-2.37-.374l-2.376-.317c-.254-.032-2.135-.247-2.389-.282-.4-.044-.793-.1-1.193-.133l-1.2-.1c-.546-.044-1.853-.159-2.4-.194l-2.4-.159c-.8-.057-1.586-.06-2.405-.1-.546-.019-1.853-.06-2.4-.06l-2.44-.038-2.357.048c-.27,0-.9.019-1.183.032l-1.222.044-1.158.044c-.412,0-.822.032-1.237.063l-2.418.171c-.546.035-1.866.162-2.411.206l-1.206.108c-.4.038-.8.1-1.193.143-.254.032-2.132.26-2.386.3l-2.376.333c-.793.111-1.586.251-2.373.387-.539.092-1.824.317-2.361.425s-1.818.346-2.351.457-1.8.406-2.319.53c-1.552.368-3.1.733-4.636,1.149s-3.046.86-4.553,1.323l-1.136.352c-.257.079-.869.289-1.126.371-.514.168-1.736.587-2.243.765s-1.72.606-2.221.79c-.733.263-1.453.555-2.177.844l-1.091.432c-.362.146-.723.3-1.082.451l-2.158.9c-1.418.635-2.837,1.269-4.229,1.955s-2.767,1.374-4.125,2.075-2.71,1.44-4.03,2.205c-2.659,1.5-5.226,3.116-7.716,4.8-.635.412-1.244.834-1.863,1.269s-1.218.869-1.821,1.31c-1.2.876-2.392,1.751-3.557,2.649-2.319,1.821-4.575,3.674-6.717,5.607l-1.586,1.453-.793.723-.771.746-1.507,1.463-1.52,1.523c-.079.079-.666.666-.742.749l-.72.768c-.476.511-.952,1.018-1.428,1.529l-1.4,1.542c-.07.076-.609.679-.676.758s-.606.708-.679.8l-1.3,1.536q-.635.774-1.269,1.552l-.635.771-.606.781c-.406.52-.806,1.041-1.206,1.561-1.586,2.094-3.081,4.185-4.474,6.3a123.456,123.456,0,0,0-7.393,12.631q-.384.762-.758,1.523-2.694,5.492-4.683,10.788c-1.51,3.982-2.738,7.837-3.741,11.508l-.371,1.364c-.117.451-.225.9-.336,1.345l-.051.209c-.2.819-.4,1.625-.571,2.421-.035.149-.067.3-.1.447-.155.711-.317,1.409-.46,2.1-.044.228-.089.457-.13.685q-.168.9-.317,1.777c-.149.806-.273,1.586-.406,2.38q-.1.574-.19,1.142c-.114.784-.2,1.545-.3,2.281s-.2,1.491-.289,2.221-.14,1.425-.209,2.11q-.2,2.07-.317,3.912c-.076,1.228-.121,2.386-.155,3.458-.067,1.78-.086,3.319-.089,4.6s.041,2.326.054,3.075c.051,1.444.079,2.221.079,2.221s.054-.758.159-2.2c.051-.749.079-1.774.19-3.059q.111-1.314.27-2.948c.108-1.044.225-2.183.378-3.408.213-1.653.47-3.49.79-5.461.111-.673.228-1.358.352-2.062s.276-1.425.428-2.161c.317-1.472.635-3.011,1.009-4.6s.819-3.233,1.285-4.934c.39-1.444.844-2.919,1.326-4.442q.419-1.295.869-2.624c.952-2.8,2.069-5.711,3.338-8.672a129,129,0,0,1,6.175-12.692c.276-.5.565-1,.86-1.5s.59-1,.892-1.5c.6-1.006,1.212-2.018,1.853-3.024s1.31-2.008,1.99-3.017q.879-1.307,1.808-2.618c.349-.5.717-.993,1.082-1.488,1.006-1.358,2.05-2.713,3.116-4.071.514-.657,1.06-1.295,1.586-1.948l.806-.98.635-.739c.292-.34.79-.9,1.085-1.244l1.736-1.9c.869-.974,1.8-1.9,2.716-2.856q.692-.708,1.4-1.418l.7-.7c.235-.232.476-.46.717-.689q1.45-1.387,2.954-2.754l.752-.679c.558-.5,1.374-1.206,1.951-1.7.9-.742,1.789-1.5,2.716-2.221.546-.444,1.088-.892,1.647-1.32l1.688-1.291q1.586-1.187,3.214-2.354c1.209-.86,2.449-1.688,3.7-2.507l1.168-.777,1.2-.742c.8-.489,1.586-1,2.411-1.475,1.25-.72,2.5-1.447,3.779-2.145s2.573-1.364,3.868-2.04,2.618-1.32,3.966-1.9,2.694-1.2,4.049-1.793l2.71-1.072c.454-.174.9-.368,1.358-.527l1.38-.492c.482-.174,1.615-.59,2.1-.755l1.786-.635c.489-.171,1.317-.416,1.809-.577.111-.032.952-.3,1.076-.317.336-.092,1.415-.406,1.751-.5,1.441-.416,2.9-.787,4.356-1.158.5-.13,1.688-.406,2.192-.53s1.7-.355,2.221-.47,1.707-.343,2.221-.447c.739-.143,1.482-.292,2.221-.409q2.253-.378,4.518-.7c.117,0,1.793-.251,1.9-.263l1.9-.206c.26-.029,1.212-.117,1.472-.143l1.475-.124c.635-.054,1.269-.114,1.929-.149l1.939-.111c.527-.038,1.751-.067,2.272-.089l1.5-.051h3.823c.238,0,2.027.016,2.262.035.527,0,1.758.07,2.281.089s1.758.076,2.281.111l1.926.117c.635.041,1.269.114,1.9.168l1.142.108c.381.038.758.086,1.139.127l2.25.26c.235.022,2.021.282,2.253.317.514.073,1.717.273,2.221.355s1.71.286,2.221.374,1.7.336,2.205.435c1.466.317,2.929.606,4.375.952s2.887.73,4.318,1.12c.552.149,1.441.4,1.986.562l1.076.317,1.4.451c.492.159,1.647.524,2.135.689.708.238,1.406.5,2.107.746s1.406.524,2.107.781l1.352.5c.349.136.692.279,1.038.422l2.361.974q2.04.863,4.033,1.809t3.95,1.923c1.291.682,2.586,1.345,3.852,2.053s2.513,1.441,3.754,2.167c.635.365,1.231.746,1.844,1.12.184.124,1,.635,1.183.758l.9.587q1.339.857,2.643,1.755,2.2,1.542,4.34,3.122c.635.485,1.269.971,1.9,1.463.552.422,1.092.866,1.637,1.295.19.146.635.5.812.635s.606.514.793.663c.53.451,1.057.9,1.586,1.345s1.018.885,1.523,1.329c.257.225.511.451.761.679.178.155.571.53.746.689.495.457.987.92,1.475,1.38.974.93,1.951,1.843,2.875,2.8.238.241.473.485.708.73Z"
                  transform="translate(-938.918 -139.493)"/>
            <path class="h"
                  d="M1238.742,283.183q-.78-1.069-1.586-2.139c-.352-.454-.7-.9-1.063-1.358-.178-.228-.359-.457-.539-.682l-.549-.676c-.371-.454-.742-.9-1.12-1.355l-.635-.762-.5-.59c-.108-.127-.527-.609-.635-.733l-.6-.657-.657-.72-.549-.6-.73-.777-.5-.536-.146-.155c-.076-.079-.4-.416-.482-.492l-.184-.184-.457-.454-1.3-1.285-.971-.952-.349-.34-.343-.317-.317-.3-.4-.362-.282-.254-1.155-1.041-.225-.206c-1.853-1.659-3.807-3.24-5.813-4.807-1.025-.787-2.081-1.545-3.138-2.316L1211.925,257c-.527-.378-1.095-.736-1.647-1.1-2.189-1.472-4.442-2.875-6.8-4.185-1.161-.663-2.354-1.288-3.544-1.92s-2.415-1.228-3.646-1.812-2.475-1.136-3.722-1.7l-1.9-.781-.952-.387-.952-.381c-.635-.251-1.269-.511-1.926-.736-.317-.121-1.615-.565-1.954-.682s-1.625-.552-1.967-.66l-.987-.317-1-.3q-2-.593-4.014-1.149c-1.345-.359-2.71-.666-4.074-.987-.352-.079-1.691-.387-2.047-.46s-1.71-.317-2.069-.387-1.713-.317-2.072-.365c-.695-.114-1.387-.241-2.081-.317l-2.091-.276c-.336-.044-1.761-.209-2.1-.254s-.7-.089-1.05-.117l-1.053-.089c-.362-.029-1.742-.146-2.107-.168l-2.11-.143c-.7-.054-1.412-.054-2.113-.082-.365,0-1.742-.054-2.107-.054l-2.142-.038-2.069.048c-.181,0-.857.019-1.041.029l-1.076.038-1.019.038c-.355,0-.711.022-1.076.054l-2.129.155c-.365.022-1.764.149-2.126.181l-1.063.092c-.355.035-.7.086-1.05.127l-2.094.263-2.091.289c-.7.092-1.39.222-2.085.343-.359.06-1.717.317-2.072.374s-1.71.317-2.066.4-1.691.387-2.04.47c-1.364.317-2.725.635-4.074,1.009s-2.675.761-4,1.168c-.171.051-.825.247-1,.317l-.99.317c-.343.111-1.628.555-1.967.676s-1.618.568-1.955.692c-.635.228-1.269.492-1.9.742l-.952.387c-.317.127-.635.26-.952.393l-1.9.79c-1.244.571-2.488,1.133-3.712,1.723s-2.43,1.209-3.63,1.828-2.38,1.269-3.541,1.939c-2.332,1.323-4.591,2.738-6.771,4.223q-.825.546-1.637,1.1c-.536.381-1.069.768-1.586,1.155-1.05.774-2.1,1.539-3.122,2.332-2.027,1.609-4.017,3.227-5.889,4.934l-1.406,1.269-.695.635-.676.66-1.31,1.269-1.345,1.345c-.1.108-.549.552-.635.66l-.635.676-1.269,1.345-1.225,1.355c-.092.1-.5.555-.587.66l-.6.711-1.13,1.339-1.095,1.355c-.181.222-.362.447-.539.673l-.53.679c-.349.454-.7.9-1.044,1.358-1.364,1.824-2.675,3.646-3.887,5.489a108,108,0,0,0-6.428,10.994c-.222.444-.444.885-.66,1.326-1.558,3.173-2.913,6.324-4.071,9.382-1.314,3.462-2.386,6.819-3.259,10.01-.111.4-.216.8-.317,1.19s-.2.784-.3,1.171a.752.752,0,0,1-.044.181c-.168.714-.343,1.415-.495,2.11-.032.13-.06.257-.089.387-.136.635-.282,1.225-.406,1.824-.038.2-.076.4-.111.6-.1.523-.19,1.038-.282,1.545-.13.7-.241,1.4-.359,2.072-.054.333-.111.663-.165.99-.13.869-.222,1.71-.317,2.519-.083.663-.171,1.307-.244,1.939s-.117,1.253-.174,1.853c-.111,1.206-.2,2.351-.282,3.427s-.086,2.088-.117,3.027c-.048,1.412-.06,2.643-.067,3.69s.038,1.9.051,2.564c.06,1.586.1,2.415.1,2.415s.063-.835.187-2.405c.047-.654.076-1.507.174-2.538q.111-1.158.26-2.576c.1-.917.209-1.9.349-2.979q.276-2.028.669-4.442.149-.882.317-1.809c.117-.616.251-1.244.384-1.888.276-1.288.558-2.634.9-4.026s.736-2.827,1.145-4.315c.317-1.142.676-2.3,1.053-3.49.244-.755.5-1.523.761-2.3.844-2.456,1.815-5,2.926-7.6a113.075,113.075,0,0,1,5.625-11.4q.362-.663.758-1.314c.26-.438.52-.876.787-1.314.53-.879,1.063-1.767,1.625-2.646s1.155-1.751,1.751-2.634q.695-1.031,1.421-2.062c.317-.438.635-.866.952-1.3q1.237-1.666,2.538-3.338c.5-.635,1.041-1.269,1.561-1.9l.793-.952c.1-.111.451-.533.549-.635.194-.225.663-.752.86-.977l1.7-1.875c.758-.857,1.586-1.666,2.386-2.5l1.225-1.241.612-.612c.209-.2.422-.4.635-.6q1.269-1.206,2.592-2.405l.657-.6c.374-.336,1.082-.952,1.466-1.269.708-.587,1.412-1.183,2.139-1.761.476-.39.952-.784,1.441-1.161s.98-.758,1.475-1.136q1.393-1.044,2.814-2.081c1.041-.746,2.11-1.456,3.173-2.17l1.145-.771,1.174-.727c.787-.482,1.564-.984,2.367-1.453,1.095-.635,2.189-1.269,3.3-1.866s2.25-1.187,3.382-1.777,2.281-1.158,3.465-1.666,2.351-1.047,3.535-1.564l2.665-1.044c.444-.168.885-.362,1.339-.514l1.355-.473c.317-.117,1.52-.539,1.843-.635l1.412-.489c.317-.114,1.1-.339,1.428-.447.149-.041.793-.241.952-.286l1.837-.52c1.269-.355,2.538-.663,3.807-.98.317-.089,1.586-.374,1.9-.457s1.587-.317,1.932-.393,1.587-.317,1.942-.381c.635-.121,1.3-.254,1.948-.349q1.97-.317,3.947-.584c.155-.019,1.348-.19,1.5-.2l1.5-.159c.175-.019,1.269-.111,1.441-.127l1.444-.121c.5-.044,1.009-.086,1.526-.111l1.539-.079c.349-.025,1.64-.057,1.986-.073l1.485-.044h3.493c.317,0,1.666,0,1.98.038s1.64.079,1.989.092,1.64.086,1.99.108l1.52.1c.508.032,1.009.092,1.513.136l1,.1c.317.035.663.076,1,.114l1.961.228c.317.032,1.656.235,1.964.286s1.605.263,1.948.317l1.939.317c.339.06,1.586.317,1.929.387,1.269.273,2.561.533,3.827.844s2.522.635,3.776.99c.368.1,1.183.317,1.548.435l.952.289,1.374.447c.317.1,1.536.489,1.859.6.635.2,1.228.438,1.84.654s1.228.46,1.844.689l1.323.495c.317.121.6.247.9.374l2.2.92c1.19.5,2.351,1.044,3.509,1.586s2.313,1.095,3.439,1.691,2.25,1.187,3.354,1.8,2.183,1.269,3.265,1.9c.539.317,1.072.654,1.605.98.244.165.911.587,1.155.752l.784.517c.774.5,1.545,1.015,2.3,1.542,1.269.914,2.538,1.824,3.779,2.751.587.451,1.171.9,1.745,1.368.479.374.952.758,1.421,1.136.127.1.581.466.7.568s.565.482.685.584l1.374,1.184c.444.387.885.777,1.323,1.164.222.2.448.393.663.593.117.1.53.5.635.606l1.269,1.218c.841.815,1.7,1.609,2.494,2.453s1.605,1.666,2.386,2.5c.222.235.717.765.933,1s.666.755.869.977l1.1,1.291c.184.219.368.435.555.65l.546.654c.355.425.708.85,1.05,1.269q1.015,1.3,2.005,2.589c.317.432.663.857.977,1.295s.635.911.971,1.364l.073.108Z"
                  transform="translate(-972.964 -173.67)"/>
            <path class="h"
                  d="M1272.529,350.9q-.463-1.314-.974-2.656c-.993-2.573-2.148-5.216-3.471-7.894q-.317-.654-.66-1.31a92.455,92.455,0,0,0-5.61-9.449c-1.063-1.586-2.2-3.148-3.389-4.712q-.448-.581-.9-1.161l-.46-.581-.47-.577q-.469-.581-.952-1.161l-.552-.65c-.14-.168-.282-.34-.425-.5s-.428-.5-.574-.65l-.511-.562-.562-.616-.469-.511-.635-.666-.428-.457-.124-.136-.412-.416c-.035-.038-.121-.121-.156-.155l-.393-.39-1.1-1.095-.825-.806-.317-.289-.289-.282-.273-.251-.343-.317-.241-.216-.987-.888-.19-.178c-1.586-1.428-3.255-2.767-4.956-4.125-.882-.682-1.8-1.333-2.7-2l-1.333-.968-1.418-.952q-2.821-1.9-5.851-3.617c-1-.571-2.024-1.114-3.052-1.653s-2.081-1.063-3.138-1.567-2.132-.984-3.2-1.472l-1.637-.673-.822-.333-.828-.333c-.552-.213-1.1-.444-1.659-.635l-1.688-.584c-.168-.057-1.523-.52-1.694-.574-.086-.029-.765-.26-.85-.286l-.863-.254q-1.723-.508-3.458-.993c-1.161-.317-2.335-.571-3.509-.85l-1.764-.4-1.783-.317-1.79-.317c-.6-.1-1.19-.216-1.793-.289l-1.8-.235-1.818-.225c-.317-.035-.6-.079-.9-.1l-.907-.073-1.818-.143-1.818-.127c-.606-.051-1.215-.044-1.821-.07-.184,0-1.628-.044-1.812-.044l-1.844-.038-1.783.044-.895.025-.93.032-.876.029c-.317,0-.6.019-.917.048l-1.844.14-1.84.152-.917.079c-.317.029-.606.073-.907.111l-1.805.232-1.8.244c-.6.073-1.2.194-1.8.3l-1.786.317c-.178.032-1.586.3-1.78.34l-1.758.412c-1.174.286-2.351.549-3.509.866s-2.3.669-3.452,1.012l-.86.26c-.086.025-.765.26-.85.289-.171.054-1.523.527-1.691.584l-1.685.593c-.562.2-1.1.428-1.653.635l-.825.336-.822.34-1.634.679c-1.069.495-2.139.987-3.2,1.488s-2.091,1.047-3.122,1.586-2.05,1.095-3.049,1.672q-3.018,1.713-5.832,3.649l-1.412.952-1.368,1c-.9.669-1.815,1.323-2.691,2.012-1.742,1.4-3.462,2.779-5.077,4.268-.406.365-.809.733-1.209,1.1l-.6.546-.578.568-1.114,1.1-1.168,1.171c-.13.133-.435.432-.562.568l-.539.584-1.072,1.164-1.053,1.168c-.117.127-.39.432-.5.562s-.4.473-.517.635l-.952,1.142-.93,1.152-.457.574-.447.577-.885,1.158c-1.161,1.555-2.269,3.109-3.3,4.677a91.793,91.793,0,0,0-5.461,9.36c-.187.374-.374.752-.558,1.126-1.323,2.713-2.475,5.394-3.462,7.989-1.117,2.941-2.031,5.794-2.776,8.513-.1.343-.187.679-.276,1.015s-.168.666-.254,1a.878.878,0,0,1-.035.152c-.143.606-.289,1.2-.422,1.793l-.076.317c-.114.524-.244,1.038-.349,1.552q-.051.251-.1.5c-.079.444-.159.882-.238,1.317-.108.6-.206,1.187-.317,1.764-.048.279-.1.562-.146.838-.14.952-.241,1.875-.355,2.754-.07.571-.146,1.126-.206,1.669s-.092,1.076-.136,1.586q-.13,1.552-.228,2.938c-.048.927-.06,1.793-.079,2.6-.029,1.041-.041,1.967-.048,2.776s.038,1.5.048,2.056c.07,1.71.108,2.621.108,2.621l.219-2.611c.048-.555.073-1.237.159-2.04.073-.666.156-1.4.254-2.205s.19-1.64.317-2.538c.159-1.05.336-2.189.543-3.411.089-.5.178-1.022.273-1.552s.225-1.066.343-1.618c.248-1.1.492-2.256.787-3.449s.635-2.421,1-3.7c.219-.838.5-1.682.781-2.538.213-.635.432-1.307.654-1.977.727-2.107,1.558-4.293,2.513-6.53a97.392,97.392,0,0,1,5.026-10.153c.206-.381.428-.752.657-1.123l.679-1.126c.46-.749.917-1.51,1.4-2.265s1-1.5,1.513-2.253c.34-.5.682-1,1.034-1.5.26-.378.546-.739.822-1.114q.952-1.295,1.974-2.6c.482-.635,1.018-1.247,1.529-1.878l.781-.952c.048-.057.416-.5.466-.558.1-.111.533-.6.635-.711l1.675-1.843c.635-.736,1.365-1.418,2.056-2.135.349-.352.7-.708,1.05-1.06l.527-.53c.181-.175.365-.343.549-.514q1.1-1.028,2.221-2.059l.562-.514c.187-.168.787-.676.98-.838.517-.431,1.034-.866,1.561-1.291.406-.34.815-.679,1.231-1.006s.841-.657,1.269-.98c.8-.6,1.605-1.2,2.411-1.805.873-.635,1.777-1.228,2.675-1.837l1.117-.762,1.152-.717c.774-.47,1.536-.952,2.323-1.425.952-.53,1.878-1.066,2.827-1.586s1.926-1.012,2.9-1.513,1.948-.993,2.96-1.421,2.012-.892,3.024-1.336l2.621-1.015c.438-.165.869-.355,1.317-.5l1.336-.454c.162-.06,1.418-.492,1.586-.546l1.034-.355c.165-.057.888-.263,1.05-.317s.635-.184.812-.235l1.923-.543c1.082-.3,2.18-.543,3.274-.806.165-.044,1.475-.343,1.64-.381s1.491-.279,1.659-.317,1.495-.279,1.666-.317c.555-.1,1.107-.216,1.669-.289,1.12-.162,2.246-.317,3.37-.47.2-.022.911-.127,1.1-.143l1.095-.1,1.409-.117,1.412-.114c.362-.032.742-.057,1.123-.073l1.136-.048c.178,0,1.529-.048,1.7-.054l1.466-.041h.869l2.291.029c.393,0,1.307,0,1.7.038.175,0,1.526.092,1.7.1s1.526.092,1.7.1l1.11.073c.371.025.739.073,1.107.111l.857.092.854.1,1.669.2c.39.038,1.291.19,1.678.254.171.025,1.494.251,1.666.279l1.663.279c.168.029,1.482.317,1.65.346,1.095.238,2.2.457,3.281.727s2.161.571,3.236.863l1.107.317.8.254,1.349.438c.165.054,1.428.46,1.586.517.53.168,1.044.381,1.567.568s1.057.393,1.586.59l1.288.489.774.317,2.037.869c1.018.422,2,.907,2.989,1.38s1.977.936,2.925,1.463,1.9,1.028,2.856,1.552,1.853,1.1,2.776,1.65c.457.276.914.558,1.368.838.317.206.822.543,1.123.749l.67.447c.66.435,1.317.873,1.958,1.329,1.079.793,2.161,1.586,3.217,2.376.539.416,1.076.838,1.586,1.269.406.317.806.654,1.206.977.067.048.539.435.6.485l.577.508,1.164,1.022,1.123,1,.565.508c.057.051.485.473.543.524l1.079,1.05c.711.7,1.45,1.377,2.116,2.107s1.355,1.434,2.018,2.151l.673.723c.1.111.523.609.635.72l.936,1.1c.156.19.317.374.473.562l.473.562q.45.536.882,1.088.866,1.12,1.71,2.221c.282.371.571.733.838,1.111s.542.771.812,1.155c.523.746,1.041,1.491,1.548,2.221s.952,1.5,1.431,2.246l.7,1.114c.232.371.46.739.673,1.117q.73,1.237,1.406,2.469a98.335,98.335,0,0,1,4.363,8.992c.825,1.935,1.555,3.83,2.2,5.667.162.463.317.917.466,1.371Z"
                  transform="translate(-1006.751 -207.778)"/>
            <path class="h"
                  d="M1295.844,420.2s.035-.984.1-2.83c0-.46.044-.974.038-1.542s-.022-1.193-.035-1.866,0-1.4-.054-2.17-.124-1.586-.19-2.453q-.051-.654-.1-1.333c-.048-.457-.114-.92-.174-1.4-.13-.952-.238-1.954-.4-2.989s-.387-2.11-.593-3.227c-.092-.562-.251-1.117-.381-1.691s-.276-1.155-.419-1.745a78.674,78.674,0,0,0-5.711-15.366,80.161,80.161,0,0,0-10.756-16.283c-.276-.336-.555-.673-.857-.99s-.59-.635-.888-.974l-.9-.977-.454-.492c-.156-.162-.317-.317-.473-.473l-1.92-1.9-.485-.476-.508-.457-1.015-.917c-1.339-1.253-2.8-2.392-4.258-3.573-.736-.577-1.507-1.117-2.269-1.678l-1.145-.841-1.19-.79a77.332,77.332,0,0,0-10.1-5.765l-2.687-1.244-2.757-1.123c-.463-.181-.923-.384-1.4-.543l-1.418-.489-1.425-.473-.711-.244-.723-.209-2.906-.841c-.974-.263-1.964-.473-2.948-.711l-1.482-.346-1.5-.273-1.5-.267c-.5-.086-1-.19-1.507-.244l-3.03-.384c-.254-.029-.508-.07-.761-.092l-.762-.057-1.526-.117-1.529-.114c-.508-.044-1.019-.035-1.529-.054l-3.062-.076-3.03.092-.736.022a5.165,5.165,0,0,0-.755.038l-1.555.124-1.555.124-.777.063c-.257.025-.508.067-.761.1l-3.03.4c-.5.054-1,.162-1.5.251l-1.5.276-1.494.282-1.482.352c-.98.244-1.97.457-2.944.727l-2.9.854-.72.216-.711.247-1.422.495-1.415.495c-.473.159-.927.365-1.39.549l-2.754,1.139-2.681,1.269a77.624,77.624,0,0,0-10.064,5.816l-1.183.8c-.381.282-.765.562-1.142.844-.758.568-1.526,1.111-2.259,1.691-1.45,1.187-2.906,2.335-4.236,3.6l-1.015.92-.5.46-.482.479-1.9,1.9c-.156.159-.317.317-.47.473l-.451.495-.892.984-.885.977c-.3.317-.578.657-.85,1a80.032,80.032,0,0,0-10.683,16.325,78.683,78.683,0,0,0-5.616,15.395l-.409,1.748c-.127.574-.282,1.133-.371,1.694q-.3,1.675-.574,3.227c-.184,1.034-.26,2.04-.384,3-.057.476-.121.952-.168,1.393s-.067.9-.1,1.336c-.063.863-.12,1.682-.178,2.453s-.025,1.494-.041,2.167,0,1.291-.025,1.862.035,1.085.044,1.548c.083,1.843.124,2.83.124,2.83s.086-.98.247-2.818c.044-.46.07-.971.14-1.533l.247-1.834c.092-.66.178-1.368.292-2.123s.273-1.545.422-2.386c.076-.422.152-.854.232-1.295s.2-.888.317-1.348c.219-.917.419-1.878.676-2.856s.562-2.015.86-3.078c.136-.536.336-1.066.508-1.609s.362-1.095.546-1.653a83.212,83.212,0,0,1,6.5-14.38c.168-.317.359-.635.555-.933l.574-.933c.387-.635.765-1.269,1.171-1.9l1.269-1.869.635-.952c.216-.317.46-.616.689-.927l1.409-1.866c.466-.635,1-1.225,1.5-1.843l.761-.927.384-.466.409-.447,1.644-1.805c.536-.635,1.149-1.174,1.726-1.77l.879-.888.441-.444c.149-.146.317-.282.46-.425q.93-.854,1.869-1.71l.47-.431.492-.409.987-.819c1.295-1.126,2.7-2.139,4.084-3.2.7-.52,1.441-1,2.164-1.507l1.088-.749,1.13-.7c.758-.463,1.507-.952,2.278-1.4l2.354-1.314c.774-.463,1.586-.834,2.408-1.247s1.615-.831,2.459-1.18l2.51-1.107,2.576-.99c.431-.155.854-.346,1.294-.485l1.317-.438,1.317-.438.66-.222.673-.187,2.687-.749c.9-.235,1.821-.419,2.729-.635l1.371-.317,1.383-.238,1.387-.247c.463-.079.923-.178,1.39-.225l2.8-.359c.232-.025.47-.063.7-.083l.692-.054,1.38-.1,1.38-.108c.222-.022.47-.029.717-.032l.736-.019,2.856-.076,2.83.06c.47.016.952,0,1.415.041l1.409.1,1.409.1.7.048c.238.019.469.057.7.082l2.8.34c.47.048.93.143,1.393.219l1.386.241,1.383.235,1.374.3c.911.206,1.828.384,2.732.616l2.694.736.67.184.663.216,1.32.431,1.32.432c.441.136.863.317,1.3.479l2.576.977,2.519,1.091c.847.343,1.65.771,2.465,1.168s1.637.777,2.415,1.231l2.361,1.3c.774.451,1.526.93,2.284,1.39.381.232.758.463,1.133.7s.733.5,1.095.746c.727.5,1.463.977,2.17,1.491,1.386,1.063,2.8,2.066,4.1,3.173l.993.815.492.406.473.428L1270,365c.155.143.317.279.466.425l.441.441.882.882c.581.593,1.2,1.145,1.736,1.761l1.653,1.8.412.444.384.463.771.92c.5.619,1.038,1.209,1.507,1.837l1.415,1.859c.232.317.479.609.695.923l.654.952,1.285,1.862c.409.635.79,1.269,1.18,1.885.2.317.39.635.581.93s.39.612.558.93a82.938,82.938,0,0,1,6.6,14.31c.187.558.374,1.111.555,1.653s.381,1.069.517,1.586q.457,1.586.879,3.075c.26.993.466,1.954.689,2.856.1.46.219.907.317,1.349s.159.873.235,1.291q.235,1.269.438,2.386c.117.752.206,1.456.317,2.116s.178,1.269.257,1.828.1,1.079.146,1.536C1295.752,419.208,1295.844,420.2,1295.844,420.2Z"
                  transform="translate(-1040.765 -241.907)"/>
        </g>
        <path class="l" d="M1178.27,456.349a66.679,66.679,0,1,0,66.5-66.859A66.677,66.677,0,0,0,1178.27,456.349Z"
              transform="translate(-883.284 -344.785)"/>
        <path class="m" d="M1201.17,471.961a59.413,59.413,0,1,0,59.254-59.571A59.417,59.417,0,0,0,1201.17,471.961Z"
              transform="translate(-898.918 -360.419)"/>
        <path class="c" d="M1363.55,582.69a7.891,7.891,0,1,0,7.869-7.91A7.891,7.891,0,0,0,1363.55,582.69Z"
              transform="translate(-1009.777 -471.284)"/>
        <path class="n"
              d="M596.568,495.12a90.745,90.745,0,0,0,0-181.49,1.428,1.428,0,0,0,0,2.856,87.889,87.889,0,0,1,0,175.779,1.428,1.428,0,0,0,0,2.856Z"
              transform="translate(-485.176 -292.995)"/>
        <path class="d"
              d="M79.9,366.515a1.428,1.428,0,0,0,1.009-2.437A179.282,179.282,0,0,1,139.045,71.715a1.429,1.429,0,0,0-1.095-2.64A182.029,182.029,0,0,0,78.9,366.1a1.421,1.421,0,0,0,1,.416Z"
              transform="translate(-96.266 -125.96)"/>
        <path class="a"
              d="M508.7,550.956a1.428,1.428,0,1,0,0-2.856,39.407,39.407,0,1,1,0-78.815,1.428,1.428,0,0,0,0-2.856,42.263,42.263,0,1,0,0,84.526Z"
              transform="translate(-397.311 -397.313)"/>
        <path class="d"
              d="M434.462,673.33a76.965,76.965,0,0,0,48.073-16.911,1.428,1.428,0,1,0-1.79-2.221,73.912,73.912,0,0,1-120.189-57.629,1.428,1.428,0,0,0-2.856,0A76.762,76.762,0,0,0,434.462,673.33Z"
              transform="translate(-323.073 -485.184)"/>
        <path class="e"
              d="M596.568,575.872a105.54,105.54,0,0,0,87.191-164.991,1.428,1.428,0,1,0-2.357,1.612,102.683,102.683,0,0,1-84.834,160.52,1.428,1.428,0,1,0,0,2.856Z"
              transform="translate(-485.176 -358.964)"/>
        <path class="a"
              d="M596.568,851.617A119.323,119.323,0,0,0,697.514,796a1.428,1.428,0,1,0-2.411-1.529,116.105,116.105,0,0,1-98.534,54.288,1.428,1.428,0,0,0,0,2.856Z"
              transform="translate(-485.176 -620.818)"/>
        <path class="a"
              d="M862.6,151.314A53.157,53.157,0,0,0,862.6,45a1.428,1.428,0,1,0,0,2.856,50.3,50.3,0,1,1-28.125,92.014,1.428,1.428,0,0,0-1.586,2.367A52.873,52.873,0,0,0,862.6,151.314Z"
              transform="translate(-647.111 -109.598)"/>
        <path class="d"
              d="M988.642,73.18a1.425,1.425,0,0,0,1.428-1.428A65.485,65.485,0,0,0,924.658,6.34a1.428,1.428,0,1,0,0,2.856,62.627,62.627,0,0,1,62.557,62.557A1.428,1.428,0,0,0,988.642,73.18Z"
              transform="translate(-709.166 -83.205)"/>
    </g>
</svg>