<svg id="Layer_2" data-name="Layer 2" xmlns="http://www.w3.org/2000/svg" viewBox="0 0 628.05 780.96">
    <defs>
        <style>
            .cls-1,.cls-11,.cls-14,.cls-15,.cls-16,.cls-17,.cls-18,.cls-31,.cls-32,.cls-33{fill:none;stroke-miterlimit:10;}.cls-1{stroke:#f9f8f8;stroke-width:4.29px;}.cls-1,.cls-14,.cls-15,.cls-16,.cls-17,.cls-18,.cls-31,.cls-32,.cls-33{stroke-linecap:round;}.cls-2,.cls-22{opacity:0.2;}.cls-19,.cls-22,.cls-3,.cls-9{fill:#383838;}.cls-23,.cls-4{fill:#383a3b;}.cls-5{fill:#f2b964;}.cls-6{fill:#906537;}.cls-7{fill:#ffdda4;}.cls-8{fill:#aa6b29;}.cls-9{opacity:0.11;}.cls-19,.cls-20,.cls-21,.cls-22,.cls-23,.cls-32,.cls-9{isolation:isolate;}.cls-10{fill:#ef4442;}.cls-11{stroke:#db3633;stroke-width:2.13px;}.cls-12{fill:#b43330;}.cls-13{fill:#2b2e30;}.cls-14,.cls-15,.cls-16,.cls-17,.cls-18{stroke:#9b9b9b;}.cls-14{stroke-width:4.27px;}.cls-15{stroke-width:3.76px;}.cls-16{stroke-width:3.27px;}.cls-17{stroke-width:2.85px;}.cls-18{stroke-width:2.29px;}.cls-19{opacity:0.23;}.cls-20,.cls-24{opacity:0.22;}.cls-21,.cls-29{fill:#393736;}.cls-21,.cls-32{opacity:0.21;}.cls-23{opacity:0.19;}.cls-25{fill:#3d3e3d;}.cls-26{fill:#4d4e4d;}.cls-27{fill:#c4bbb9;}.cls-28{fill:#6e6d70;}.cls-30{fill:#c3bfc2;}.cls-31{stroke:#383635;stroke-width:12.88px;}.cls-32,.cls-33{stroke:#4b484a;stroke-width:12.7px;}.cls-34{fill:#f26f72;}.cls-35{fill:#3a3b3a;}.cls-36{fill:#8ed3d2;}.cls-37{fill:#faac75;}.cls-38{fill:#ffe19e;}
        </style>
    </defs>
    <title>login-illustration</title>
    <line id="Line_50" data-name="Line 50" class="cls-1" x1="519.59" y1="322.74" x2="516.49" y2="345.65"/>
    <line id="Line_51" data-name="Line 51" class="cls-1" x1="553.02" y1="336.98" x2="533.83" y2="354.32"/>
    <g id="Group_95" data-name="Group 95" class="cls-2">
        <path id="Path_304" data-name="Path 304" class="cls-3"
              d="M570.18,427.84l.07,319.83a33.31,33.31,0,0,1-33.42,33.2h0L133.14,781a16.68,16.68,0,0,1-12.63-5.84l-34.4-40.3a36.2,36.2,0,0,1-8.7-23.57l-.07-317.61A16.51,16.51,0,0,1,93.82,377.2l413.1-2.46a16.84,16.84,0,0,1,10.43,3.57L563.9,415A16.36,16.36,0,0,1,570.18,427.84Z"/>
    </g>
    <path id="Path_305" data-name="Path 305" class="cls-4"
          d="M491.1,413.92,503.48,421a5,5,0,0,1,1.85,6.85h0l-14,24.36-21.45-12.32,13.78-24A5.45,5.45,0,0,1,491.1,413.92Z"/>
    <path id="Path_306" data-name="Path 306" class="cls-5"
          d="M515.16,373.82a21.7,21.7,0,0,1,6.38,15.4V710.88a21.8,21.8,0,0,1-21.79,21.79h-405a21.72,21.72,0,0,1-16.87-8"/>
    <path id="Path_307" data-name="Path 307" class="cls-6"
          d="M515.16,373.82a21.86,21.86,0,0,1,6,10.75,26.11,26.11,0,0,1,.58,6.23l.08,6.23.24,24.91.51,49.83.6,99.66c.26,33.22.21,66.44.31,99.67l0,24.91v15.64l-.09,1.69-.25,1.69a23.7,23.7,0,0,1-6,12,22.64,22.64,0,0,1-5.27,4.28,24.38,24.38,0,0,1-3,1.56,26.7,26.7,0,0,1-3.24,1.07,23.82,23.82,0,0,1-3.35.63c-.57.06-1.14.07-1.7.11H474.08l-99.66-.19-49.85.08-24.91-.06-24.92-.14-99.66-.6-49.83-.49L100.34,733c-2.08,0-4.15,0-6.24-.1a21.56,21.56,0,0,1-6.16-1.14,21.91,21.91,0,0,1-10.09-7.09A21.75,21.75,0,0,0,88,731.49a20.85,20.85,0,0,0,6.07,1c2.07,0,4.15,0,6.23-.06l24.91-.24,49.83-.49,99.66-.6,24.92-.14,24.91-.06,49.84-.1,99.66-.19h26.39a9.52,9.52,0,0,0,1.41-.07,21.64,21.64,0,0,0,2.76-.52,18.21,18.21,0,0,0,2.68-.87,21,21,0,0,0,2.5-1.27,19.7,19.7,0,0,0,7.58-8.14,19,19,0,0,0,1.77-5.34l.22-1.39.07-1.41a12.35,12.35,0,0,0,0-1.49v-39c.09-33.23,0-66.45.3-99.67l.6-99.66.48-49.83.24-24.91.09-6.23a25.46,25.46,0,0,0-.42-6.16,21.56,21.56,0,0,0-5.58-10.82Z"/>
    <path id="Path_308" data-name="Path 308" class="cls-5"
          d="M79.1,726.1a21.71,21.71,0,0,1-4.91-13.78V390.66A21.81,21.81,0,0,1,96,368.87H501a21.74,21.74,0,0,1,15.4,6.38"/>
    <path id="Path_309" data-name="Path 309" class="cls-7"
          d="M79.1,726.1a21.91,21.91,0,0,1-4.92-11.24,24.85,24.85,0,0,1-.19-3.11v-3.1l-.08-6.19-.24-24.78-.48-49.56L72.59,529c-.26-33-.21-66.08-.31-99.12V392.73a34.23,34.23,0,0,1,.42-6.55,23.84,23.84,0,0,1,11.37-16.11,22.93,22.93,0,0,1,6.26-2.56,27.22,27.22,0,0,1,3.34-.61c1.11,0,2.32-.15,3.3-.12h24.78l99.12.19,49.55.1,24.78.05,24.78.15,99.11.6,49.56.48,24.78.25,6.19.08a26.39,26.39,0,0,1,6.2.59,22,22,0,0,1,10.68,6,21.79,21.79,0,0,0-10.86-5.7,26.26,26.26,0,0,0-6.13-.42l-6.19.08-24.78.24L419,370l-99.11.6-24.78.15-24.78.06-49.55.1-99.12.19L96.86,371c-1.08,0-1.92.07-2.88.09a23.31,23.31,0,0,0-2.75.5,18.56,18.56,0,0,0-5.17,2.08A19.83,19.83,0,0,0,76.59,387a28.76,28.76,0,0,0-.37,5.79v12.39l0,24.77c-.09,33,0,66.08-.3,99.12l-.6,99.11-.48,49.56-.22,24.75-.09,6.19v3.1a26.18,26.18,0,0,0,.11,3.07A21.68,21.68,0,0,0,79.1,726.1Z"/>
    <path id="Path_310" data-name="Path 310" class="cls-8"
          d="M79.12,381.85c18.17-.86,36.35-1.24,54.52-1.52l13.64-.17,13.63-.08q13.62-.1,27.26.12l27.26.62,13.63.33,13.63.19q13.63.11,27.27,0c9.09-.06,18.17-.32,27.26-.47s18.18-.44,27.26-.58,18.18-.24,27.27-.31l27.26-.23c9.09-.08,18.17,0,27.26,0,36.35.19,72.7.76,109.05,2.18v.45c-36.35,1.43-72.7,2-109,2.19-9.09,0-18.17,0-27.26-.06l-27.26-.23c-9.09-.07-18.18-.15-27.27-.31s-18.17-.39-27.26-.58-18.17-.4-27.26-.47-18.18-.1-27.27,0l-13.63.2-13.63.32-27.26.63q-13.64.19-27.26.12l-13.63-.08-13.64-.17c-18.17-.28-36.35-.67-54.52-1.53Z"/>
    <path id="Path_311" data-name="Path 311" class="cls-8"
          d="M76.29,403c18.42-.86,36.83-1.24,55.24-1.52l13.8-.17,13.81-.08q13.81-.11,27.62.12l27.61.62,13.81.33,13.81.2q13.8.09,27.61,0c9.21-.06,18.42-.32,27.62-.47s18.41-.43,27.62-.57,18.41-.24,27.61-.32l27.62-.23c9.2-.08,18.41-.05,27.61-.05,36.82.19,73.65.76,110.47,2.18v.45c-36.82,1.43-73.65,2-110.47,2.19-9.2,0-18.41,0-27.61-.06l-27.62-.23c-9.2-.07-18.41-.15-27.61-.31s-18.41-.38-27.62-.57-18.41-.41-27.62-.47-18.41-.1-27.61,0l-13.81.2-13.81.33-27.61.62q-13.81.19-27.62.12l-13.81-.08-13.8-.17c-18.41-.28-36.82-.66-55.24-1.53Z"/>
    <path id="Path_312" data-name="Path 312" class="cls-8"
          d="M76.29,424.18c18.42-.87,36.83-1.25,55.24-1.53l13.8-.17,13.81-.08q13.81-.09,27.62.12l27.61.62,13.81.33,13.81.2q13.8.09,27.61,0c9.21-.06,18.42-.31,27.62-.47s18.41-.43,27.62-.57,18.41-.24,27.61-.31l27.62-.23c9.2-.09,18.41-.06,27.61-.06,36.82.19,73.65.76,110.47,2.19v.45c-36.82,1.42-73.65,2-110.47,2.18-9.2,0-18.41,0-27.61-.05l-27.62-.23c-9.2-.08-18.41-.16-27.61-.32s-18.41-.38-27.62-.57-18.41-.41-27.62-.47-18.41-.1-27.61,0l-13.81.2-13.81.33-27.61.62q-13.81.21-27.62.12l-13.81-.08-13.8-.17c-18.41-.28-36.82-.66-55.24-1.52Z"/>
    <path id="Path_313" data-name="Path 313" class="cls-8"
          d="M79.12,445.34c18.17-.87,36.35-1.25,54.52-1.53l13.64-.17,13.63-.08q13.62-.09,27.26.12l27.26.63,13.63.32,13.63.2q13.63.09,27.27,0c9.09-.07,18.17-.32,27.26-.47s18.18-.44,27.26-.58,18.18-.24,27.27-.31l27.26-.23c9.09-.09,18.17-.05,27.26-.06,36.35.19,72.7.76,109.05,2.19v.45c-36.35,1.42-72.7,2-109,2.18H379.06l-27.26-.23q-13.64-.11-27.27-.31c-9.08-.14-18.17-.39-27.26-.58s-18.17-.41-27.26-.47-18.18-.1-27.27,0l-13.63.19-13.63.33-27.26.62q-13.64.21-27.26.12l-13.63-.08-13.64-.17c-18.17-.28-36.35-.66-54.52-1.52Z"/>
    <path id="Path_314" data-name="Path 314" class="cls-8"
          d="M76.29,466.5c18.42-.86,36.83-1.24,55.24-1.53l13.8-.16,13.81-.09q13.81-.09,27.62.13l27.61.62,13.81.33L242,466q13.8.11,27.61,0c9.21-.06,18.42-.32,27.62-.47s18.41-.44,27.62-.58,18.41-.24,27.61-.31l27.62-.23c9.2-.08,18.41,0,27.61,0,36.82.19,73.65.75,110.47,2.18V467c-36.82,1.43-73.65,2-110.47,2.19-9.2,0-18.41,0-27.61-.06l-27.62-.23c-9.2-.07-18.41-.15-27.61-.31s-18.41-.39-27.62-.58-18.41-.41-27.62-.47-18.41-.1-27.61,0l-13.81.19-13.81.33-27.61.63q-13.81.19-27.62.12l-13.81-.09-13.8-.16c-18.41-.29-36.82-.67-55.24-1.53Z"/>
    <path id="Path_315" data-name="Path 315" class="cls-8"
          d="M76.29,487.66c18.42-.86,36.83-1.24,55.24-1.52l13.8-.17,13.81-.08q13.81-.11,27.62.12l27.61.62,13.81.33,13.81.2q13.8.09,27.61,0c9.21-.06,18.42-.32,27.62-.47s18.41-.44,27.62-.58,18.41-.23,27.61-.31l27.62-.23c9.2-.08,18.41-.05,27.61-.05,36.82.19,73.65.76,110.47,2.18v.45c-36.82,1.43-73.65,2-110.47,2.19-9.2,0-18.41,0-27.61-.06l-27.62-.23c-9.2-.07-18.41-.15-27.61-.31s-18.41-.39-27.62-.58-18.41-.4-27.62-.47-18.41-.09-27.61,0l-13.81.2-13.81.33-27.61.62q-13.81.2-27.62.12l-13.81-.08-13.8-.17c-18.41-.28-36.82-.66-55.24-1.53Z"/>
    <path id="Path_316" data-name="Path 316" class="cls-8"
          d="M76.29,508.82c18.42-.86,36.83-1.24,55.24-1.52l13.8-.17,13.81-.08q13.81-.09,27.62.12l27.61.62,13.81.33,13.81.2q13.8.09,27.61,0c9.21-.06,18.42-.31,27.62-.47s18.41-.43,27.62-.57,18.41-.24,27.61-.32l27.62-.22c9.2-.09,18.41-.06,27.61-.06,36.82.19,73.65.76,110.47,2.18v.46c-36.82,1.42-73.65,2-110.47,2.18-9.2,0-18.41,0-27.61-.06l-27.62-.23c-9.2-.07-18.41-.15-27.61-.31s-18.41-.38-27.62-.57-18.41-.41-27.62-.47-18.41-.1-27.61,0l-13.81.2-13.81.33-27.61.62q-13.81.19-27.62.12l-13.81-.08-13.8-.17c-18.41-.28-36.82-.66-55.24-1.52Z"/>
    <path id="Path_317" data-name="Path 317" class="cls-8"
          d="M76.29,530c18.42-.87,36.83-1.25,55.24-1.53l13.8-.17,13.81-.08q13.81-.09,27.62.12l27.61.62,13.81.33,13.81.2q13.8.09,27.61,0c9.21-.06,18.42-.31,27.62-.46s18.41-.44,27.62-.58,18.41-.24,27.61-.31l27.62-.23c9.2-.09,18.41-.06,27.61-.06,36.82.19,73.65.76,110.47,2.19v.45c-36.82,1.42-73.65,2-110.47,2.18H380.07l-27.62-.23c-9.2-.08-18.41-.16-27.61-.31s-18.41-.39-27.62-.58-18.41-.41-27.62-.47-18.41-.1-27.61,0l-13.81.2-13.81.33-27.61.62q-13.81.21-27.62.12l-13.81-.08-13.8-.17c-18.41-.28-36.82-.66-55.24-1.52Z"/>
    <path id="Path_318" data-name="Path 318" class="cls-8"
          d="M77.71,552.57c18.41-.86,36.82-1.24,55.23-1.52l13.81-.17,13.81-.08q13.8-.1,27.61.12l27.62.62,13.81.33,13.8.2q13.82.09,27.62,0c9.2-.06,18.41-.32,27.61-.47s18.42-.44,27.62-.58,18.41-.23,27.62-.31l27.61-.23c9.21-.08,18.41-.05,27.62-.05,36.82.19,73.64.76,110.46,2.18v.45c-36.82,1.43-73.64,2-110.46,2.19-9.21,0-18.41,0-27.62-.06L353.87,555c-9.21-.07-18.41-.15-27.62-.31s-18.41-.38-27.62-.57-18.41-.41-27.61-.47-18.41-.1-27.62,0l-13.8.2-13.81.33-27.62.62q-13.8.19-27.61.12l-13.81-.08-13.81-.23c-18.41-.28-36.82-.66-55.23-1.53Z"/>
    <path id="Path_319" data-name="Path 319" class="cls-8"
          d="M79.12,572.31c18.17-.86,36.35-1.24,54.52-1.52l13.64-.17,13.63-.08q13.62-.1,27.26.12l27.26.62,13.63.33,13.63.19q13.63.11,27.27,0c9.09-.06,18.17-.32,27.26-.47s18.18-.44,27.26-.58,18.18-.24,27.27-.31l27.26-.23c9.09-.08,18.17-.05,27.26-.05,36.35.19,72.7.76,109.05,2.18v.45c-36.35,1.43-72.7,2-109,2.19-9.09,0-18.17,0-27.26-.06l-27.26-.23c-9.09-.07-18.18-.15-27.27-.31s-18.17-.39-27.26-.58-18.17-.4-27.26-.47-18.18-.1-27.27,0l-13.63.2-13.63.32-27.26.63q-13.64.19-27.26.12l-13.63-.08-13.64-.17c-18.17-.28-36.35-.67-54.52-1.53Z"/>
    <path id="Path_320" data-name="Path 320" class="cls-8"
          d="M76.29,593.47c18.42-.86,36.83-1.24,55.24-1.52l13.8-.17,13.81-.08q13.81-.11,27.62.12l27.61.62,13.81.33L242,593q13.8.09,27.61,0c9.21-.06,18.42-.32,27.62-.47s18.41-.44,27.62-.57,18.41-.24,27.61-.32l27.62-.23c9.2-.08,18.41,0,27.61,0,36.82.19,73.65.76,110.47,2.18V594c-36.82,1.43-73.65,2-110.47,2.19-9.2,0-18.41,0-27.61-.06l-27.62-.23c-9.2-.07-18.41-.15-27.61-.31s-18.41-.38-27.62-.57-18.41-.46-27.65-.56-18.41-.1-27.61,0l-13.81.2-13.81.33-27.61.62q-13.81.2-27.62.12l-13.81-.08-13.8-.17c-18.41-.28-36.82-.66-55.24-1.53Z"/>
    <path id="Path_321" data-name="Path 321" class="cls-8"
          d="M79.12,614.63c18.17-.86,36.35-1.24,54.52-1.52l13.64-.17,13.63-.08q13.62-.09,27.26.12l27.26.62,13.63.33,13.63.2q13.63.09,27.27,0c9.09-.06,18.17-.31,27.26-.47s18.18-.43,27.26-.57,18.18-.24,27.27-.31l27.26-.23c9.09-.09,18.17-.06,27.26-.06,36.35.19,72.7.76,109.05,2.18v.46c-36.35,1.42-72.7,2-109,2.18-9.09,0-18.17,0-27.26,0L351.8,617c-9.09-.08-18.18-.16-27.27-.32s-18.17-.38-27.26-.57-18.17-.41-27.26-.47-18.18-.1-27.27,0l-13.63.2-13.63.33-27.26.62q-13.64.21-27.26.12l-13.63-.08-13.69-.29c-18.17-.28-36.35-.66-54.52-1.52Z"/>
    <path id="Path_322" data-name="Path 322" class="cls-8"
          d="M76.29,635.57c18.42-.86,36.83-1.24,55.24-1.52l13.8-.17,13.81-.08q13.81-.1,27.62.12l27.61.62,13.81.33,13.81.2q13.8.09,27.61,0c9.21-.06,18.42-.32,27.62-.47s18.41-.44,27.62-.57,18.41-.24,27.61-.32l27.62-.23c9.2-.08,18.41,0,27.61,0,36.82.19,73.65.76,110.47,2.18v.45c-36.82,1.43-73.65,2-110.47,2.19-9.2,0-18.41,0-27.61-.06L352.45,638c-9.2-.07-18.41-.15-27.61-.31s-18.41-.38-27.62-.57-18.41-.41-27.62-.47-18.41-.1-27.61,0l-13.81.2-13.81.33-27.61.62q-13.81.2-27.62.12l-13.81-.08-13.76-.28c-18.41-.28-36.82-.66-55.24-1.53Z"/>
    <path id="Path_323" data-name="Path 323" class="cls-8"
          d="M79.12,657c18.17-.86,36.35-1.24,54.52-1.53l13.64-.16,13.63-.09q13.62-.09,27.26.12l27.26.63,13.63.33,13.63.19q13.63.1,27.27,0c9.09-.06,18.17-.32,27.26-.47s18.18-.44,27.26-.58,18.18-.24,27.27-.31l27.26-.23c9.09-.08,18.17,0,27.26,0,36.35.19,72.7.75,109.05,2.18v.45c-36.35,1.43-72.7,2-109,2.18H379.06l-27.26-.23c-9.09-.07-18.18-.15-27.27-.31s-18.17-.39-27.26-.58-18.17-.41-27.26-.47-18.18-.1-27.27,0l-13.63.19-13.63.33-27.26.63q-13.64.19-27.26.12l-13.63-.09-13.64-.16c-18.17-.29-36.35-.67-54.52-1.53Z"/>
    <path id="Path_324" data-name="Path 324" class="cls-8"
          d="M76.29,678.12c18.42-.86,36.83-1.24,55.24-1.52l13.8-.17,13.81-.08q13.81-.11,27.62.12l27.61.62,13.81.33,13.81.2q13.8.09,27.61,0c9.21-.06,18.42-.32,27.62-.47s18.41-.44,27.62-.58,18.41-.23,27.61-.31l27.62-.23c9.2-.08,18.41,0,27.61,0,36.82.19,73.65.76,110.47,2.18v.36c-36.82,1.43-73.65,2-110.47,2.19-9.2,0-18.41,0-27.61-.06l-27.62-.23c-9.2-.07-18.41-.15-27.61-.31s-18.41-.39-27.62-.58-18.41-.4-27.62-.47-18.41-.09-27.61,0l-13.81.2-13.81.26-27.61.62q-13.81.19-27.62.12l-13.81-.08-13.8-.17c-18.41-.28-36.82-.66-55.24-1.53Z"/>
    <path id="Path_325" data-name="Path 325" class="cls-8"
          d="M79.12,699.28c18.17-.86,36.35-1.24,54.52-1.52l13.64-.17,13.63-.08q13.62-.09,27.26.12l27.26.62,13.63.33,13.63.2q13.63.09,27.27,0c9.09-.06,18.17-.31,27.26-.47s18.18-.43,27.26-.57,18.18-.24,27.27-.32L379,697.2c9.09-.09,18.17-.06,27.26-.06,36.35.19,72.7.76,109.05,2.18v.46c-36.35,1.42-72.7,2-109,2.18-9.09,0-18.17,0-27.26-.06l-27.26-.23c-9.09-.07-18.18-.15-27.27-.31s-18.17-.38-27.26-.57-18.17-.41-27.26-.47-18.18-.1-27.27,0l-13.63.2-13.63.33-27.26.62q-13.64.19-27.26.12l-13.63-.08-13.64-.17c-18.17-.28-36.35-.66-54.52-1.52Z"/>
    <path id="Path_326" data-name="Path 326" class="cls-8"
          d="M76.29,720.45c18.42-.87,36.83-1.25,55.24-1.53l13.8-.17,13.81-.08q13.81-.09,27.62.12l27.61.62,13.81.33,13.81.2q13.8.09,27.61,0c9.21-.06,18.42-.31,27.62-.46s18.41-.44,27.62-.58,18.41-.24,27.61-.31l27.62-.23c9.2-.09,18.41-.06,27.61-.06,36.82.19,73.65.76,110.47,2.19v.45c-36.82,1.42-73.65,2-110.47,2.18H380.07l-27.62-.23c-9.2-.08-18.41-.16-27.61-.31s-18.41-.39-27.62-.58-18.41-.41-27.62-.47-18.41-.1-27.61,0l-13.81.2-13.81.33-27.61.62q-13.81.21-27.62.12l-13.81-.23-13.8-.17c-18.41-.28-36.82-.66-55.24-1.52Z"/>
    <ellipse id="Ellipse_23" data-name="Ellipse 23" class="cls-9" cx="265.2" cy="556.01" rx="151.84" ry="153.52"/>
    <path id="Path_327" data-name="Path 327" class="cls-3"
          d="M405.21,546.73q0,5.73-.39,11.34a157.15,157.15,0,0,1-2.66,19.32c-14,70.1-75.3,122.87-148.75,122.87-83.84,0-151.84-68.69-151.84-153.53s68-153.52,151.85-153.52S405.21,461.94,405.21,546.73Z"/>
    <ellipse id="Ellipse_24" data-name="Ellipse 24" class="cls-10" cx="253.39" cy="546.73" rx="57.01" ry="57.64"/>
    <ellipse id="Ellipse_25" data-name="Ellipse 25" class="cls-11" cx="253.39" cy="546.73" rx="46.57" ry="47.08"/>
    <ellipse id="Ellipse_26" data-name="Ellipse 26" class="cls-12" cx="255.99" cy="547.79" rx="10.49" ry="10.61"/>
    <ellipse id="Ellipse_27" data-name="Ellipse 27" class="cls-13" cx="253.39" cy="545.67" rx="10.49" ry="10.61"/>
    <path id="Path_328" data-name="Path 328" class="cls-14" d="M288.87,414.74c43.61,11.22,77.95,48.38,91.84,90.91"/>
    <path id="Path_329" data-name="Path 329" class="cls-15" d="M284,429.13c38.39,9.88,68.63,42.59,80.85,80"/>
    <path id="Path_330" data-name="Path 330" class="cls-16" d="M278.88,444.82c33.44,8.61,59.78,37.1,70.43,69.71"/>
    <path id="Path_331" data-name="Path 331" class="cls-17" d="M274.72,460.19c29.09,7.49,52,32.27,61.26,60.64"/>
    <path id="Path_332" data-name="Path 332" class="cls-18" d="M271.24,473.57c23.41,6,41.86,26,49.31,48.82"/>
    <path id="Path_333" data-name="Path 333" class="cls-14" d="M217.66,679.57c-43.61-11.23-77.95-48.38-91.84-90.91"/>
    <path id="Path_334" data-name="Path 334" class="cls-15" d="M222.57,665.16c-38.39-9.88-68.63-42.59-80.85-80"/>
    <path id="Path_335" data-name="Path 335" class="cls-16" d="M227.65,649.46c-33.44-8.61-59.78-37.1-70.43-69.71"/>
    <path id="Path_336" data-name="Path 336" class="cls-17" d="M231.81,634.09c-29.09-7.49-52-32.27-61.26-60.63"/>
    <path id="Path_337" data-name="Path 337" class="cls-18" d="M235.29,620.67c-23.41-6-41.86-26-49.31-48.81"/>
    <circle id="Ellipse_28" data-name="Ellipse 28" class="cls-19" cx="125.14" cy="697.76" r="18.97"/>
    <circle id="Ellipse_29" data-name="Ellipse 29" class="cls-3" cx="121.9" cy="694.06" r="18.97"/>
    <path id="Path_338" data-name="Path 338" class="cls-20"
          d="M404,561.29A152.7,152.7,0,0,1,401.13,581l-49.49,37-8-11.31,57.43-40.67Z"/>
    <circle id="Ellipse_30" data-name="Ellipse 30" class="cls-21" cx="457.93" cy="480.39" r="26.15"/>
    <path id="Path_339" data-name="Path 339" class="cls-22"
          d="M439.57,498.93a25.26,25.26,0,0,0,9.75,5.84l-40.74,67L353,614l-7.17-11.29,53.76-38.55Z"/>
    <path id="Path_340" data-name="Path 340" class="cls-22"
          d="M484.05,447.62l-8.24,13.61a26.27,26.27,0,0,0-9.45-5.88l8.59-14Z"/>
    <path id="Path_341" data-name="Path 341" class="cls-23"
          d="M491.92,413.12,503.77,421a5,5,0,0,1,1.4,6.94l-15.49,23.32-20.54-13.64,15.25-23a5.43,5.43,0,0,1,7.53-1.52Z"/>
    <g id="Group_96" data-name="Group 96" class="cls-24">
        <path id="Path_342" data-name="Path 342"
              d="M347.74,634.12l10.05,12.8-4.13,3.6c-3.43-4.2-6.86-8.37-10.3-12.57a3.73,3.73,0,0,0-5.19-.56l-18.89,15.24a3,3,0,0,1-4.22-.44l-.12-.16-8-11.17L299.89,631a3.64,3.64,0,0,1,.79-5.09l.29-.19q18.22-11.26,36.49-22.45a3.67,3.67,0,0,1,4.94,1l11.09,16.31a3.68,3.68,0,0,1-.77,5l-4.29,3.35a3.7,3.7,0,0,0-.71,5.17Z"/>
    </g>
    <path id="Path_343" data-name="Path 343" class="cls-4"
          d="M479.36,403.4l12.38,7.12a5,5,0,0,1,1.85,6.85h0l-14,24.36L458.14,429.4l13.78-24a5.45,5.45,0,0,1,7.44-2Z"/>
    <path id="Path_344" data-name="Path 344" class="cls-25"
          d="M339,621.24,349,634l-4.12,3.61c-3.43-4.21-6.87-8.37-10.3-12.58a3.74,3.74,0,0,0-5.2-.56q-9.39,7.61-18.88,15.24a3,3,0,0,1-4.22-.44l-.12-.16-8-11.16-7-9.87A3.63,3.63,0,0,1,292,613a2.11,2.11,0,0,1,.31-.21q18.24-11.26,36.5-22.46a3.67,3.67,0,0,1,4.94,1l11.07,16.27a3.7,3.7,0,0,1-.77,5L339.73,616a3.69,3.69,0,0,0-.77,5.15l.08.1Z"/>
    <path id="Path_345" data-name="Path 345" class="cls-26"
          d="M291.1,618l7.16,10,41.55-27.48a.08.08,0,0,0,0-.11h0l-6.17-9.07a3.56,3.56,0,0,0-4.8-1l-36.73,22.59a3.57,3.57,0,0,0-1.13,4.91l.12.17Z"/>
    <path id="Path_346" data-name="Path 346" class="cls-27"
          d="M461.89,430.15l9.25,6L398.49,562l-54.61,43.5-7.4-11.1,52.75-39.8Z"/>
    <path id="Path_347" data-name="Path 347" class="cls-28"
          d="M467.71,433.94l3.43,2.23L398.49,562l-54.61,43.5-4.05-6.08,55-42.51Z"/>
    <circle id="Ellipse_31" data-name="Ellipse 31" class="cls-29" cx="447.77" cy="466.94" r="26.15"/>
    <circle id="Ellipse_32" data-name="Ellipse 32" class="cls-30" cx="448.8" cy="467.11" r="4.06"/>
    <line id="Line_47" data-name="Line 47" class="cls-31" x1="468.9" y1="612.95" x2="468.9" y2="708.79"/>
    <line id="Line_48" data-name="Line 48" class="cls-32" x1="466.19" y1="635.27" x2="480.57" y2="635.27"/>
    <line id="Line_49" data-name="Line 49" class="cls-33" x1="461.71" y1="632.27" x2="476.09" y2="632.27"/>
    <path id="Path_348" data-name="Path 348" class="cls-1" d="M100.44,460.81s26-40.86,49.53-51.39"/>
    <path id="Path_349" data-name="Path 349" class="cls-1" d="M73.19,483.72S93,416.85,159.25,385.27"/>
    <path id="Path_350" data-name="Path 350" class="cls-1" d="M402.42,643.57s-26,40.87-49.53,51.39"/>
    <path id="Path_351" data-name="Path 351" class="cls-1" d="M429.66,620.69s-19.81,66.88-86.09,98.44"/>
    <line id="Line_52" data-name="Line 52" class="cls-1" x1="561.69" y1="372.89" x2="539.4" y2="372.89"/>
    <path id="Path_352" data-name="Path 352" class="cls-34"
          d="M496.57,67.09a11.85,11.85,0,0,0-8,11.82,7.88,7.88,0,0,0,1.18,3.77,7.63,7.63,0,0,0,5,3.13,10.2,10.2,0,0,0,11.32-6.41,9.67,9.67,0,0,0-5.31-11.72c-1.45-.58-3-1.62-4.19-.59"/>
    <path id="Path_353" data-name="Path 353" class="cls-34"
          d="M506.77,75.06C509,52.35,511.21,29.64,512,6.83c.08-2.17-3.3-2.17-3.37,0-.8,22.81-3,45.52-5.23,68.23C503.19,77.22,506.57,77.21,506.77,75.06Z"/>
    <path id="Path_354" data-name="Path 354" class="cls-35"
          d="M489.66,60.14c-5.86,2.18-10.09,8-9.1,14.44.93,6,7.08,8.89,12.67,7.32A11.27,11.27,0,0,0,501.57,69c-1-5-6.92-11.08-12.27-8.68-2,.88-.26,3.79,1.71,2.91,1.35-.6,4.32,1.51,5.21,2.43a8.27,8.27,0,0,1,2.15,5c.32,4-2.67,7.31-6.47,8.18-4.28,1-8.12-1.74-8.06-6.21a10.26,10.26,0,0,1,6.76-9.18c2-.75,1.15-4-.89-3.25Z"/>
    <path id="Path_355" data-name="Path 355" class="cls-35"
          d="M501.64,69.86c2.2-22.71,4.44-45.42,5.23-68.23.08-2.18-3.3-2.17-3.37,0-.8,22.81-3,45.52-5.23,68.23C498.06,72,501.44,72,501.64,69.86Z"/>
    <path id="Path_356" data-name="Path 356" class="cls-36"
          d="M130.34,126.79a6.39,6.39,0,0,0-4.93,3.15,10,10,0,0,0-1.28,5.84c.19,3.4,2.07,7,5.37,7.85a7.83,7.83,0,0,0,4.61-.48,9.37,9.37,0,0,0,5.84-5.74,9,9,0,0,0-4.79-10.24,6.34,6.34,0,0,0-5.63.2"/>
    <path id="Path_357" data-name="Path 357" class="cls-36"
          d="M139.78,133.57q-5-27.3-9.43-54.71c-.34-2.14-3.6-1.23-3.25.9q4.4,27.4,9.43,54.71c.39,2.13,3.64,1.22,3.25-.9Z"/>
    <path id="Path_358" data-name="Path 358" class="cls-35"
          d="M120.87,120.33c-12.44,1.9-8.1,24.58,4.87,19.53,5.33-2.07,8.52-7.36,6.55-13-1.87-5.32-7.42-8.23-12.63-5.81-2,.91-.26,3.82,1.7,2.91,3.66-1.69,7.16,1.33,8,4.82.88,3.73-1.64,6.82-5,8-8.48,2.85-10.49-12-2.54-13.18,2.14-.33,1.23-3.58-.9-3.26Z"/>
    <path id="Path_359" data-name="Path 359" class="cls-35"
          d="M132.93,129.74q-5-27.3-9.44-54.71c-.34-2.14-3.59-1.23-3.25.9q4.4,27.41,9.43,54.7C130.06,132.77,133.32,131.86,132.93,129.74Z"/>
    <path id="Path_360" data-name="Path 360" class="cls-37"
          d="M494.3,253.93c-2.17-.2-3.78,2-4.54,4a8.35,8.35,0,0,0-.6,4.55c.68,3.44,4.8,5.42,8.21,4.61a7.73,7.73,0,0,0,5.34-4.5,6.69,6.69,0,0,0-1.08-6.81,6.31,6.31,0,0,0-6.79-1.68"/>
    <path id="Path_361" data-name="Path 361" class="cls-37"
          d="M503.07,260.5a517.58,517.58,0,0,0-2.32-63c-.22-2.14-3.59-2.16-3.38,0a517.59,517.59,0,0,1,2.33,63C499.64,262.67,503,262.67,503.07,260.5Z"/>
    <path id="Path_362" data-name="Path 362" class="cls-35"
          d="M485.71,246.93c-4.81.12-7.63,6.18-6.8,10.47s5.48,6.79,9.63,6.13a9.06,9.06,0,0,0,7.66-9.86,8,8,0,0,0-10.39-6.51c-2.07.64-1.19,3.9.89,3.26,7-2.13,8.31,8.31,1.63,9.73-2.13.45-4.9-.44-5.85-2.54s.38-7.23,3.23-7.3c2.17-.06,2.18-3.43,0-3.38Z"/>
    <path id="Path_363" data-name="Path 363" class="cls-35"
          d="M496.06,255.37a515.58,515.58,0,0,0-2.33-63c-.21-2.14-3.58-2.16-3.37,0a517.59,517.59,0,0,1,2.33,63C492.63,257.54,496,257.54,496.06,255.37Z"/>
    <path id="Path_364" data-name="Path 364" class="cls-38"
          d="M456.65,166.38c-2.55.67-3.2,4-3.06,6.62a11.65,11.65,0,0,0,.77,4,7.45,7.45,0,0,0,8.77,4,8,8,0,0,0,5.38-8.13,8.62,8.62,0,0,0-6.55-7.38,6.43,6.43,0,0,0-6.13,1.56"/>
    <path id="Path_365" data-name="Path 365" class="cls-38"
          d="M467.64,170.79q-8.88-26.72-20.35-52.45c-.88-2-3.79-.26-2.91,1.71q11.26,25.32,20,51.64c.68,2,3.94,1.17,3.25-.9Z"/>
    <path id="Path_366" data-name="Path 366" class="cls-35"
          d="M447.63,161.91c-4.87,1.84-5.22,8.65-3.39,12.85a9.11,9.11,0,0,0,12.11,4.4c.22-.1.43-.21.64-.33a9.67,9.67,0,0,0,3.12-13.34c-.08-.14-.18-.28-.27-.42-3.13-4.47-9.59-5.95-13.78-2.13-1.61,1.46.79,3.85,2.39,2.39,5.9-5.37,14.11,6.13,6.84,10.58a5.74,5.74,0,0,1-7.68-1.93c-1.13-1.86-1.9-7.75.91-8.82,2-.76,1.14-4-.89-3.25Z"/>
    <path id="Path_367" data-name="Path 367" class="cls-35"
          d="M461.51,167.79q-8.89-26.72-20.35-52.45c-.88-2-3.79-.26-2.91,1.71q11.26,25.32,20,51.64c.68,2,3.94,1.17,3.25-.9Z"/>
    <path id="Path_368" data-name="Path 368" class="cls-34"
          d="M313.57,252.48a10.78,10.78,0,0,0-4.33,8.79,8.17,8.17,0,0,0,5.82,7.5,7.31,7.31,0,0,0,8-3.67,10,10,0,0,0,.33-7.16,9.66,9.66,0,0,0-3.56-5.5,5.43,5.43,0,0,0-6.25-.09"/>
    <path id="Path_369" data-name="Path 369" class="cls-34"
          d="M323.35,256.35a455.61,455.61,0,0,0-21.15-48.2c-1-1.94-3.9-.23-2.91,1.7a450.44,450.44,0,0,1,20.81,47.39c.75,2,4,1.15,3.25-.89Z"/>
    <path id="Path_370" data-name="Path 370" class="cls-35"
          d="M302.38,247.5c-4.11,3.49-6.35,9.33-3.61,14.37a9,9,0,0,0,12.12,3.9l0,0c9.85-5.28,2.11-25-8.18-18.65-1.84,1.14-.15,4.06,1.71,2.91,6.45-4,11.76,11.24,3.57,13.29-3.16.79-6-1.48-6.85-4.45-1-3.52,1-6.77,3.6-9,1.66-1.41-.74-3.79-2.39-2.39Z"/>
    <path id="Path_371" data-name="Path 371" class="cls-35"
          d="M315.14,253.33A455.61,455.61,0,0,0,294,205.13c-1-1.94-3.9-.23-2.91,1.7a449.69,449.69,0,0,1,20.81,47.4C312.64,256.23,315.89,255.37,315.14,253.33Z"/>
    <path id="Path_372" data-name="Path 372" class="cls-36"
          d="M38.21,230.51a9.23,9.23,0,0,0-7.8,3.54,11.72,11.72,0,0,0-2.3,8.38,5.5,5.5,0,0,0,.69,2.41,6.07,6.07,0,0,0,2.69,2.08,12.32,12.32,0,0,0,5.87,1.32,8.81,8.81,0,0,0-.13-17.59"/>
    <path id="Path_373" data-name="Path 373" class="cls-36"
          d="M44.49,243.76c9.07-18.65,18.87-36.92,28.38-55.34,1-1.92-1.91-3.63-2.91-1.7-9.52,18.42-19.32,36.69-28.38,55.34-.95,1.94,2,3.66,2.91,1.7Z"/>
    <path id="Path_374" data-name="Path 374" class="cls-35"
          d="M34,219.27a11.61,11.61,0,0,0-11.68,10.3c-1,6.67,3.56,10.83,10.22,10.83a10.79,10.79,0,0,0,10.54-10.07c.24-5.82-4.54-10.29-10.06-10.89-2.16-.23-2.14,3.14,0,3.37,8.72.95,8.51,14.31-.48,14.22a9.47,9.47,0,0,1-5.71-1.86c-1.5-1.34-1.46-3.48-1.11-5.36.76-4.19,3.93-7.23,8.28-7.13,2.17,0,2.17-3.33,0-3.37Z"/>
    <path id="Path_375" data-name="Path 375" class="cls-35"
          d="M40,236.64A1.69,1.69,0,1,0,38.28,235,1.69,1.69,0,0,0,40,236.64Z"/>
    <path id="Path_376" data-name="Path 376" class="cls-35"
          d="M41.42,235.8c9.07-18.64,18.87-36.92,28.38-55.33,1-1.93-1.91-3.64-2.91-1.71-9.51,18.42-19.32,36.69-28.38,55.34C37.56,236.1,40.51,237.76,41.42,235.8Z"/>
    <path id="Path_377" data-name="Path 377" class="cls-37"
          d="M231.31,158.64a9,9,0,0,0-8.68,4,8.17,8.17,0,0,0,.69,9.41,7.51,7.51,0,0,0,9.18,1.54,8.77,8.77,0,0,0,2.75-2.74,9.25,9.25,0,0,0,1.36-7.54,6.66,6.66,0,0,0-5.64-4.84"/>
    <path id="Path_378" data-name="Path 378" class="cls-37"
          d="M236.57,167.84c5.7-19.31,12-38.44,17.69-57.75.62-2.09-2.64-3-3.25-.9-5.7,19.31-12,38.44-17.69,57.75C232.7,169,236,169.94,236.57,167.84Z"/>
    <path id="Path_379" data-name="Path 379" class="cls-35"
          d="M225.93,148.78c-5-.44-10,2.5-11.26,7.54a9.37,9.37,0,0,0,6.71,11.43h0c11.69,2.77,16.82-17.37,4.61-19.1-2.12-.3-3,3-.89,3.25,8.56,1.22,3.9,15.49-3.81,12.27a6.07,6.07,0,0,1-3.17-7.77c1.15-3.2,4.61-4.53,7.77-4.26,2.16.19,2.15-3.19,0-3.37Z"/>
    <path id="Path_380" data-name="Path 380" class="cls-35"
          d="M232.57,160.85c5.7-19.31,12-38.43,17.69-57.74.62-2.09-2.64-3-3.25-.9-5.7,19.31-12,38.44-17.69,57.75C228.7,162.05,232,163,232.57,160.85Z"/>
    <path id="Path_381" data-name="Path 381" class="cls-36"
          d="M587,53.27q16-2.51,32-4c2.15-.19,2.17-3.57,0-3.37Q602.57,47.45,586.15,50c-2.14.34-1.24,3.59.89,3.26Z"/>
    <path id="Path_382" data-name="Path 382" class="cls-36"
          d="M584.09,90.67c-2.83.57-4.3,3.84-4.36,6.74-.08,3.25,1.27,6.76,4.15,8.28a7.55,7.55,0,0,0,8.31-1.23A8.7,8.7,0,0,0,594,94.16c-1.78-3.3-6.28-4.45-9.92-3.49"/>
    <path id="Path_383" data-name="Path 383" class="cls-36"
          d="M616.1,85c-2.84.58-4.3,3.85-4.37,6.74-.08,3.26,1.27,6.77,4.15,8.29a7.56,7.56,0,0,0,8.31-1.23A8.7,8.7,0,0,0,626,88.48c-1.78-3.31-6.28-4.46-9.91-3.5"/>
    <path id="Path_384" data-name="Path 384" class="cls-36"
          d="M594.44,98.92c-1.77-10.7-3.18-21.45-4.64-32.19-.74-5.39-1.48-10.79-2.3-16.17a27.48,27.48,0,0,1-.68-4.33,2.23,2.23,0,0,1,.41-2.25c.1-1.5.92-2,2.47-1.51,2.58-.67,6-.36,8.65-.51l8.65-.51c3.6-.22,6.62-1.21,8.75,2.54,2.51,4.41,3.79,10.48,5.24,15.34,3.43,11.58,5.15,23.6,2.19,35.47-.53,2.11,2.73,3,3.25.9,3.41-13.68,1-27.5-3.26-40.7q-1.78-5.58-3.85-11.06c-.66-1.74-1.15-3.81-2.62-5-1.77-1.5-3.68-1.16-5.86-1-3.84.2-7.69.46-11.53.69s-7.76.16-11.54.68c-1.55.21-3.12.35-4.11,1.74-.81,1.15-.59,2.3-.52,3.62.19,3.44,1.13,7,1.63,10.42,2.2,14.93,4,29.93,6.41,44.82.36,2.14,3.61,1.24,3.26-.89Z"/>
    <path id="Path_385" data-name="Path 385" class="cls-35"
          d="M576.11,84.14c-10.93,3.27-4.67,23,6.92,18.37a10.21,10.21,0,0,0,5.54-12.59c-1.77-5.21-7.5-6.87-12.46-5.78-2.12.47-1.22,3.72.9,3.26,2.86-.63,6.45-.08,8,2.72a6.85,6.85,0,0,1-2.11,8.63C575,104,570.2,89.43,577,87.4,579.08,86.77,578.2,83.52,576.11,84.14Z"/>
    <path id="Path_386" data-name="Path 386" class="cls-35"
          d="M608.43,78.4c-10.93,3.27-4.67,23,6.92,18.37a10.21,10.21,0,0,0,5.54-12.59c-1.77-5.21-7.5-6.87-12.46-5.78-2.12.47-1.22,3.72.9,3.26,2.86-.63,6.45-.08,8,2.72A6.85,6.85,0,0,1,615.22,93c-7.9,5.23-12.7-9.32-5.89-11.35,2.07-.63,1.19-3.88-.9-3.26Z"/>
    <path id="Path_387" data-name="Path 387" class="cls-35"
          d="M589,93.65c-1.77-10.7-3.17-21.45-4.64-32.19-.73-5.39-1.48-10.79-2.3-16.17a28.69,28.69,0,0,1-.68-4.33,2.25,2.25,0,0,1,.41-2.25c.1-1.5.92-2,2.47-1.51,2.59-.67,6-.36,8.65-.51l8.67-.52c3.61-.21,6.62-1.2,8.76,2.55,2.51,4.41,3.79,10.48,5.23,15.34,3.43,11.58,5.15,23.6,2.19,35.47-.52,2.11,2.73,3,3.26.9,3.41-13.68,1-27.5-3.26-40.7q-1.8-5.58-3.86-11.06c-.65-1.74-1.15-3.81-2.62-5-1.76-1.5-3.67-1.16-5.85-1-3.85.2-7.69.46-11.54.69s-7.75.16-11.53.68c-1.55.21-3.13.35-4.12,1.74-.81,1.15-.59,2.3-.52,3.62.19,3.44,1.13,7,1.63,10.42,2.2,14.93,4,29.93,6.42,44.82.35,2.14,3.61,1.24,3.25-.89Z"/>
    <path id="Path_388" data-name="Path 388" class="cls-35"
          d="M581.28,48.06q16-2.51,32-4c2.14-.2,2.16-3.57,0-3.38q-16.53,1.51-32.94,4.09c-2.14.34-1.23,3.59.9,3.26Z"/>
    <path id="Path_389" data-name="Path 389" class="cls-37"
          d="M305.25,67a9,9,0,1,0,4.68,13.31A10.87,10.87,0,0,0,311,73.09c-.47-2.69-2.17-5.55-4.88-5.88"/>
    <path id="Path_390" data-name="Path 390" class="cls-37"
          d="M341.32,77.87A9,9,0,1,0,346,91.18a10.74,10.74,0,0,0,1.09-7.25c-.47-2.7-2.16-5.56-4.87-5.89"/>
    <path id="Path_391" data-name="Path 391" class="cls-37"
          d="M309.83,80.27c3.5-11,5.68-22.32,7.61-33.67.94-5.52,1.81-11,2.75-16.56.57-3.36.95-7.63,5.65-6.7A68.24,68.24,0,0,1,334.25,26c5.5,1.88,15.23,3.82,18.07,9s1.62,13.11,1.11,18.87a107.46,107.46,0,0,1-3.72,19.57c-1.48,5.25-2.58,12.21-6.63,16.11-1.57,1.51.82,3.89,2.38,2.39,4.26-4.09,5.37-10.32,7-15.79a115.7,115.7,0,0,0,4.36-22.28c.54-5.93,1.83-14.69-.54-20.36-2.23-5.33-11.81-7.36-16.65-9.14s-12.73-6.07-18-4.24c-5,1.74-4.71,9.13-5.41,13.37-2.56,15.45-4.88,31-9.64,46-.67,2.07,2.59,3,3.25.89Z"/>
    <path id="Path_392" data-name="Path 392" class="cls-37"
          d="M318.48,33.08Q336.82,39.34,355,46.21c2,.78,2.92-2.49.9-3.25q-18.12-6.87-36.47-13.13C317.32,29.12,316.43,32.38,318.48,33.08Z"/>
    <path id="Path_393" data-name="Path 393" class="cls-35"
          d="M299.57,58.2c-5.65-1.38-11.65,1.37-13.41,7.16a10.87,10.87,0,0,0,7.32,13.4,10.62,10.62,0,0,0,12.6-6.62c1.77-5,.18-12.42-5.63-13.76-2.11-.49-3,2.76-.89,3.25,3.75.87,4.4,6,3.45,9.11a7.25,7.25,0,0,1-8.63,4.76c-9.29-2.48-4.95-16.31,4.29-14,2.11.52,3-2.74.9-3.26Z"/>
    <path id="Path_394" data-name="Path 394" class="cls-35"
          d="M335.57,69c-5.65-1.39-11.64,1.36-13.4,7.16a10.87,10.87,0,0,0,7.32,13.4A10.63,10.63,0,0,0,342.09,83c1.77-5,.17-12.43-5.63-13.76-2.11-.49-3,2.76-.9,3.25,3.75.87,4.4,6,3.45,9.11a7.23,7.23,0,0,1-8.62,4.76c-9.29-2.49-4.95-16.31,4.29-14,2.11.51,3-2.74.89-3.26Z"/>
    <path id="Path_395" data-name="Path 395" class="cls-35"
          d="M305.38,73.57c3.5-11,5.68-22.32,7.61-33.67.94-5.52,1.81-11,2.75-16.56.57-3.36.95-7.63,5.65-6.71a66.62,66.62,0,0,1,8.41,2.63c5.5,1.87,15.23,3.82,18.07,9s1.63,13.1,1.11,18.87a107.46,107.46,0,0,1-3.72,19.57c-1.48,5.25-2.57,12.21-6.63,16.11-1.57,1.5.82,3.89,2.38,2.38,4.26-4.08,5.37-10.31,7-15.78a114.2,114.2,0,0,0,4.36-22.28c.54-5.93,1.83-14.69-.54-20.36-2.26-5.36-11.83-7.38-16.67-9.2s-12.73-6.07-18-4.24c-5,1.74-4.71,9.13-5.41,13.37-2.56,15.44-4.88,31-9.64,46-.66,2.08,2.59,3,3.25.9Z"/>
    <path id="Path_396" data-name="Path 396" class="cls-35"
          d="M314,26.4q18.35,6.26,36.48,13.17c2,.77,2.91-2.49.89-3.25q-18.12-6.88-36.47-13.14c-2.06-.7-2.95,2.56-.9,3.26Z"/>
    <path id="Path_397" data-name="Path 397" class="cls-34"
          d="M372.37,159.21a4.9,4.9,0,0,0-5.17,1.71c-1.19,1.36-2.65,3.93-2.57,5.81s2,3.43,3.59,4.08a7.32,7.32,0,0,0,5.48.13c3.91-1.54,4.76-6.32,2.53-9.64-1-1.5-2.85-3-4.75-2.94s-4.46,2.66-5.23,4.42a4.89,4.89,0,0,0,1.47,5.92c2.32,1.55,5.19-.37,6.72-2.22a1.76,1.76,0,0,0,.27-2l-1.14-2.31a1.72,1.72,0,0,0-2.31-.6L369,162.69a1.72,1.72,0,0,0-.58,2.34,1.76,1.76,0,0,0,.58.57c2.15,1.13,5.43,1.57,6.15-1.48a2.61,2.61,0,0,0-1-2.78c-1.22-.84-3.24.11-4.54.41a1.64,1.64,0,0,0-1.18,1.18,3.26,3.26,0,0,0,4.81,3.55c1.85-1.14.16-4.06-1.7-2.91.13,0,.18.08.14.26L370.57,165l3.08-.72-1.64-.43q-.28-.42,0-.66a3.74,3.74,0,0,1-1.28-.51v2.88l2.25-1.12-2.31-.6,1.16,2.26.27-2c-.44.53-1.91,2-2.48,1.78-1.06-.52,0-2.28.43-2.75.72-.78,1.39-1.56,2.24-1.09a3.79,3.79,0,0,1,1.6,1.95c1.61,4.19-4.54,5.49-6.08,1.89l.17,1.3c.34-1.49,1.39-5.31,3.53-4.72a1.69,1.69,0,0,0,.9-3.25Z"/>
    <path id="Path_398" data-name="Path 398" class="cls-34"
          d="M370.12,164.21c.53-6.86,8.89-10.1,14.39-6.59,6.06,3.87,7,12.76,3.53,18.6-6.55,11.07-24.89,11.64-32,1a16.94,16.94,0,0,1-1.7-16c2.3-5.13,7.34-8.35,12.11-11,8.16-4.53,15.95-8.39,21.92-15.82a50.3,50.3,0,0,0,10.4-23.57,49.09,49.09,0,0,0,.37-12.64c-.35-3.4-.82-9.81-3.14-12.46-5.73-6.57-10.15,11.36-11,13.93-3.91,12.2-6.94,24.66-9.75,37.16-3.17,14.05-6.05,28.16-9.6,42.12-1.73,6.78-3.26,14-6.77,20.16a22.07,22.07,0,0,1-8.05,8.5,16.18,16.18,0,0,1-3.81,1.62q-3.52,1.93-3.27-2.12,6.72-3.91,1.61,1.15v2.32l4.39-5c1.44-1.62-.94-4-2.38-2.38l-4.4,5a1.75,1.75,0,0,0,0,2.39c4.44,4.63,12.26-1.62,7.83-6.76-5.56-6.48-13,2-9.33,8.35a1.7,1.7,0,0,0,1.46.84c12.58-.16,19.49-11.2,22.9-22,4.46-14.11,7.27-28.83,10.44-43.27,3.21-14.65,6.48-29.31,10.87-43.67,1.09-3.58,2.23-7.15,3.51-10.67.25-.69,1.71-5.77,2.67-5.36.49.21,1.11,3.35,1.25,3.88a43.93,43.93,0,0,1,.69,19.29c-2.11,11.59-8.56,22.54-18.36,29.23-8.3,5.66-19.58,8.55-24.86,17.81-4.89,8.58-1.89,20,5.92,25.8,8.3,6.13,20.55,5.34,28.48-1.05,8.25-6.65,9.75-20.13,1.16-27.27-7.69-6.39-20.09-1.63-20.87,8.47-.16,2.17,3.21,2.16,3.38,0Z"/>
    <path id="Path_399" data-name="Path 399" class="cls-35"
          d="M365.9,149.08a4.91,4.91,0,0,0-5.16,1.71c-1.19,1.37-2.66,3.94-2.58,5.82s2,3.42,3.59,4.08a7.37,7.37,0,0,0,5.48.13c3.92-1.54,4.76-6.33,2.54-9.64-1-1.51-2.85-3-4.76-2.94s-4.46,2.66-5.23,4.41a4.94,4.94,0,0,0,1.47,5.93c2.33,1.55,5.19-.37,6.73-2.22a1.76,1.76,0,0,0,.26-2c-.39-.76-.77-1.52-1.16-2.27a1.72,1.72,0,0,0-2.31-.61l-2.2,1.09a1.72,1.72,0,0,0-.58,2.34,1.76,1.76,0,0,0,.58.57c2.15,1.13,5.43,1.56,6.16-1.49a2.65,2.65,0,0,0-1-2.78c-1.23-.83-3.24.11-4.55.42a1.64,1.64,0,0,0-1.18,1.18,3.26,3.26,0,0,0,4.82,3.55c1.84-1.14.15-4.06-1.71-2.92.13,0,.18.09.15.26l-1.18,1.18,3.07-.71-1.64-.44c-.19-.27-.19-.49,0-.65a4.18,4.18,0,0,1-1.28-.51v2.91l2.25-1.12-2.31-.61c.38.76.77,1.51,1.16,2.27l.26-2c-.44.53-1.91,2.06-2.48,1.78-1.06-.51,0-2.27.44-2.74.72-.78,1.38-1.57,2.24-1.09a3.81,3.81,0,0,1,1.6,2c1.6,4.18-4.55,5.49-6.09,1.88l.17,1.3c.35-1.48,1.39-5.3,3.53-4.71a1.69,1.69,0,0,0,.9-3.26Z"/>
    <path id="Path_400" data-name="Path 400" class="cls-35"
          d="M363.65,154.09c.53-6.86,8.9-10.1,14.39-6.59,6.06,3.87,7,12.75,3.54,18.59-6.56,11.08-24.9,11.65-32,1-3.11-4.64-4.06-10.86-1.7-16s7.33-8.36,12.11-11c8.15-4.52,15.94-8.38,21.91-15.81a50.3,50.3,0,0,0,10.4-23.57,48.65,48.65,0,0,0,.38-12.64c-.36-3.4-.83-9.82-3.14-12.46C383.8,69,379.38,87,378.54,89.54c-3.92,12.2-7,24.66-9.76,37.15-3.16,14.05-6,28.17-9.6,42.13-1.72,6.77-3.26,14-6.76,20.16a22.36,22.36,0,0,1-8.05,8.5,16.08,16.08,0,0,1-3.82,1.62c-2.35,1.28-3.44.58-3.27-2.13q6.72-3.9,1.61,1.16v2.38l4.4-5c1.43-1.62-1-4-2.39-2.39l-4.39,5a1.72,1.72,0,0,0,0,2.38c4.43,4.63,12.25-1.61,7.83-6.76-5.57-6.47-13,2-9.33,8.36a1.64,1.64,0,0,0,1.45.83c12.59-.15,19.49-11.19,22.9-22,4.46-14.11,7.27-28.83,10.44-43.27C373,123,376.28,108.34,380.67,94c1.1-3.58,2.23-7.16,3.51-10.68.25-.68,1.71-5.76,2.67-5.36.5.22,1.11,3.36,1.25,3.89a44.09,44.09,0,0,1,.7,19.29c-2.12,11.58-8.56,22.54-18.37,29.23-8.3,5.66-19.58,8.55-24.86,17.81-4.89,8.58-1.89,20,5.92,25.79,8.3,6.14,20.56,5.35,28.48-1,8.26-6.65,9.75-20.13,1.17-27.27-7.7-6.39-20.09-1.63-20.87,8.47-.17,2.16,3.21,2.15,3.37,0Z"/>
    <path id="Path_401" data-name="Path 401" class="cls-38"
          d="M202.16,44.57c-12-2.5-27.47,6.53-25.29,20.47,1.93,12.32,20.43,16.12,29.59,10.38,1.84-1.15.15-4.07-1.7-2.91-7.25,4.54-22.66,2-24.46-7.93-2.08-11.48,11.41-18.75,21-16.76,2.12.45,3-2.81.9-3.25Z"/>
    <path id="Path_402" data-name="Path 402" class="cls-38"
          d="M200.77,47.63A3.74,3.74,0,0,1,204,51.84a3,3,0,0,1-.09.43c-.6,1.77-2.19.86-3-.2a3.4,3.4,0,0,1-.66-1.19.65.65,0,0,1,.19-.9h0c.38-.08.37-.15,0-.21a1,1,0,0,1-.42.9l2-.26-.26-.19.78,1c-.78.75-.78,1.08,0,1L201,51.37a4.93,4.93,0,0,1,.69,1.81l.17-1.3-.13.19,1-.77,1.15.4.17,1.3.07-.22c.67-2.07-2.59-3-3.26-.9a2.17,2.17,0,0,0,2.33,2.75c2.13-.2,1.91-2.45,1.28-3.91-.73-1.69-2.53-2.67-4.27-1.5a2.41,2.41,0,0,0-.74,3.33,2.38,2.38,0,0,0,.74.74,1.71,1.71,0,0,0,2-.26,4.6,4.6,0,0,0,1.07-5.11,3.32,3.32,0,0,0-4-1.23c-4.47,1.47-2.48,6.93.35,8.94,3.44,2.45,7.39.09,7.57-4a7.1,7.1,0,0,0-5.69-7.3c-2.12-.33-3,2.92-.9,3.25Z"/>
    <path id="Path_403" data-name="Path 403" class="cls-38"
          d="M190.84,46.39c-5,2.6-6.73,10.4-6.89,15.51a16.92,16.92,0,0,0,7.32,14.88c1.79,1.24,3.48-1.68,1.7-2.91-4-2.78-5.78-7.15-5.64-12,.11-3.8,1.48-10.63,5.22-12.59,1.92-1,.22-3.93-1.71-2.92Z"/>
    <path id="Path_404" data-name="Path 404" class="cls-38"
          d="M185.83,49.87l-4,2.82c-1.26.89-1,3.22.85,3.14a8.83,8.83,0,0,0,4.39-1.26l-2-2.65a61.73,61.73,0,0,0-5.36,4.72c-1.3,1.3.09,3.06,1.64,2.82a12,12,0,0,0,5.38-2.1l-2-2.65-4.5,4.48c-1.11,1.11,0,3.48,1.64,2.82,1.39-.56,2.73-1.15,4.06-1.83l-2-2.65-4.63,3.84c-1.27,1,.09,3.42,1.64,2.82l3.23-1.26-1.3-3.08a23.47,23.47,0,0,0-4,3,1.71,1.71,0,0,0,0,2.41,1.75,1.75,0,0,0,1.15.47,12.39,12.39,0,0,0,5.41-1.56l-2.31-2.31-2.43,3.94a1.7,1.7,0,0,0,1.9,2.47,12.82,12.82,0,0,0,3.73-2.09l-2.66-2a3.88,3.88,0,0,1-2.26,2.39c-1.56.86-.74,3,.85,3.14a5.55,5.55,0,0,0,3.24-.38l-2.08-2.08-1,1.5a1.69,1.69,0,0,0,.74,2.82,5.8,5.8,0,0,0,3.2-.07l-2.14-1.63c0,2.29,1.25,3.45,3.13,4.61s3.55-1.78,1.7-2.92l-1.46-1.76a1.71,1.71,0,0,0-1.74-1.67,1.75,1.75,0,0,0-.4.05l-1.4.07.74,2.82a5,5,0,0,0,1.9-3A1.72,1.72,0,0,0,185.44,66a1.75,1.75,0,0,0-.85,0l-2.34.27.85,3.14a8,8,0,0,0,3.48-3.59,1.7,1.7,0,0,0-2.65-2L181.69,65l1.91,2.48L186,63.58a1.7,1.7,0,0,0-2.31-2.3,6.77,6.77,0,0,1-3.71,1.1l1.2,2.88a13.08,13.08,0,0,1,3.27-2.45c1.57-1,.54-3.8-1.3-3.08L180,61l1.64,2.82L186.24,60c1.54-1.28-.43-3.47-2.05-2.65a29.09,29.09,0,0,1-3.26,1.49l1.64,2.76,4.5-4.49c1.32-1.31-.42-3.75-2-2.65a10.35,10.35,0,0,1-4.56,1.77L182.15,59a61.73,61.73,0,0,1,5.36-4.72c1.54-1.21-.43-3.56-2-2.65l-2.66.78.77,3.14,4-2.81c1.76-1.25.08-4.18-1.7-2.92Z"/>
    <path id="Path_405" data-name="Path 405" class="cls-38"
          d="M189.08,31.57l2.55,57.17c.1,2.16,3.47,2.17,3.38,0q-1.27-28.59-2.56-57.17C192.36,29.41,189,29.4,189.08,31.57Z"/>
    <path id="Path_406" data-name="Path 406" class="cls-35"
          d="M195.78,41c-12-2.5-27.46,6.53-25.29,20.47,1.93,12.32,20.44,16.12,29.6,10.38,1.83-1.15.14-4.07-1.71-2.91-7.24,4.54-22.66,2-24.45-7.94-2.08-11.47,11.4-18.74,20.95-16.75C197,44.64,197.88,41.39,195.78,41Z"/>
    <path id="Path_407" data-name="Path 407" class="cls-35"
          d="M194.4,44.05a3.74,3.74,0,0,1,3.18,4.21,3,3,0,0,1-.09.43c-.61,1.77-2.2.86-3-.2a3.54,3.54,0,0,1-.65-1.19.64.64,0,0,1,.15-.88l0,0q.56-.12,0-.21a.9.9,0,0,1-.42.9l2-.26-.26-.2.77,1c-.77.75-.78,1.09,0,1l-1.46-.83a5.18,5.18,0,0,1,.69,1.81l.17-1.3-.13.19,1-.78,1.14.4.17,1.31.07-.22c.67-2.08-2.58-3-3.25-.9A2.16,2.16,0,0,0,196.9,51c2.14-.19,1.92-2.44,1.29-3.9-.74-1.69-2.53-2.67-4.28-1.5a2.41,2.41,0,0,0-.7,3.34,2.49,2.49,0,0,0,.75.73,1.71,1.71,0,0,0,2-.26,4.62,4.62,0,0,0,1.08-5.11,3.32,3.32,0,0,0-4-1.23c-4.52,1.46-2.52,7,.32,9,3.45,2.45,7.39.09,7.58-4a7.13,7.13,0,0,0-5.69-7.31c-2.13-.33-3,2.93-.9,3.26Z"/>
    <path id="Path_408" data-name="Path 408" class="cls-35"
          d="M184.47,42.81c-4.95,2.6-6.74,10.4-6.89,15.51a16.94,16.94,0,0,0,7.31,14.88c1.79,1.24,3.48-1.68,1.71-2.91-4-2.78-5.79-7.15-5.65-12,.12-3.8,1.48-10.63,5.22-12.59,1.92-1,.22-3.93-1.7-2.92Z"/>
    <path id="Path_409" data-name="Path 409" class="cls-35"
          d="M179.45,46.29l-4,2.81c-1.27.9-1,3.23.85,3.15A9,9,0,0,0,180.66,51l-2-2.65a63.11,63.11,0,0,0-5.35,4.72c-1.31,1.29.08,3,1.64,2.82a12.2,12.2,0,0,0,5.37-2.1l-2-2.66-4.51,4.49c-1.11,1.11,0,3.48,1.64,2.82,1.39-.56,2.73-1.15,4.07-1.83l-2-2.65-4.62,3.83c-1.27,1.06.09,3.43,1.64,2.83l3.22-1.26-1.3-3.09a24.86,24.86,0,0,0-4,3,1.71,1.71,0,0,0,0,2.41,1.75,1.75,0,0,0,1.15.47A12.53,12.53,0,0,0,179,60.59l-2.31-2.31q-1.23,2-2.44,3.93a1.7,1.7,0,0,0,1.91,2.48,12.64,12.64,0,0,0,3.72-2.09l-2.65-2A3.94,3.94,0,0,1,175,63c-1.55.86-.73,3,.85,3.14a5.55,5.55,0,0,0,3.24-.39L177,63.57l-1,1.5a1.69,1.69,0,0,0,.74,2.82,5.9,5.9,0,0,0,3.2-.07l-2.13-1.63c0,2.29,1.24,3.45,3.12,4.61s3.55-1.78,1.7-2.92l-1.45-1.69a1.7,1.7,0,0,0-1.7-1.68,1.54,1.54,0,0,0-.43.06l-1.41.07.75,2.82a5.07,5.07,0,0,0,1.89-3,1.7,1.7,0,0,0-1.21-2.08,1.79,1.79,0,0,0-.86,0l-2.35.27.85,3.14a8,8,0,0,0,3.48-3.6,1.69,1.69,0,0,0-2.65-2l-2.23,1.23,1.9,2.48c.82-1.31,1.63-2.63,2.44-3.94a1.7,1.7,0,0,0-2.31-2.31,6.77,6.77,0,0,1-3.7,1.11l1.19,2.88a13.13,13.13,0,0,1,3.28-2.45c1.57-1,.54-3.8-1.3-3.09l-3.23,1.26,1.64,2.82,4.63-3.83c1.54-1.28-.42-3.47-2.05-2.65a29.79,29.79,0,0,1-3.25,1.49L176.18,58l4.5-4.49c1.33-1.32-.42-3.75-2-2.65a10.39,10.39,0,0,1-4.57,1.77l1.64,2.82a58.55,58.55,0,0,1,5.36-4.72c1.55-1.21-.43-3.56-2.05-2.65l-2.65.78.85,3.15,4-2.81c1.75-1.25.07-4.18-1.71-2.92Z"/>
    <path id="Path_410" data-name="Path 410" class="cls-35"
          d="M182.7,28l2.55,57.17c.1,2.16,3.48,2.17,3.38,0L186.08,28C186,25.87,182.61,25.85,182.7,28Z"/>
    <path id="Path_411" data-name="Path 411" class="cls-36"
          d="M444.39,23.57c-2.57-.29-3.67,2.83-3.45,4.89.3,2.8,3.23,4.26,5.46,2.32,2-1.78,1.41-4.71-.53-6.29-1-.8-2.26-1.62-3.47-.8a5.39,5.39,0,0,0-2.15,3,3.54,3.54,0,0,0,.66,3.49,3.66,3.66,0,0,0,2.69,1,3.73,3.73,0,0,0,3.78-3.66c0-.09,0-.18,0-.27a4.3,4.3,0,0,0-4.89-3.62l-.11,0c-2.32.43-3.28,3.25-2.6,5.32a4.33,4.33,0,1,0,8.16-2.91,4.44,4.44,0,0,0-1.16-1.74c-1.58-1.49-4,.89-2.38,2.38.66.63.47,1.79-.57,1.77s-1.1-1.22-.44-1.81l-.74.43a1,1,0,0,1,1.06.05,1.73,1.73,0,0,1,.31.35v.13c0-.16,0,0-.1.07l-.36.12a.41.41,0,0,1-.22,0c-.15,0,0,.07-.09-.15l.23.85a2.07,2.07,0,0,1,.85-2.11h-1.7a2.92,2.92,0,0,1,1.57,1.19,1.22,1.22,0,0,1,.14.33s-.37.53-.39.41.34,0,.35,0,0-.54,0-.69a6.87,6.87,0,0,1,.19-.75c0-.1-.61,0-.08,0a1.69,1.69,0,0,0,1.69-1.68,1.73,1.73,0,0,0-1.7-1.64Z"/>
    <path id="Path_412" data-name="Path 412" class="cls-36"
          d="M447.18,25.83a14.71,14.71,0,0,0-18-4.6C421.25,24.9,417.9,33.9,419,42.17,420.12,50,425,56.44,433,57.82c8.3,1.42,18-2.35,22.55-9.52,1.17-1.84-1.75-3.54-2.92-1.71C445.42,58,425.8,57.65,422.62,43.33c-1.29-5.76-.05-12.37,4.36-16.56,5-4.67,12.94-4.89,17.28.76C445.57,29.23,448.5,27.53,447.18,25.83Z"/>
    <path id="Path_413" data-name="Path 413" class="cls-36"
          d="M430.57,22.2c-7.47,9.89-6.6,29.38,5.72,35.12,1.95.91,3.67-2,1.7-2.92-10.68-5-10.89-22-4.51-30.5C434.79,22.17,431.86,20.48,430.57,22.2Z"/>
    <path id="Path_414" data-name="Path 414" class="cls-36"
          d="M428.47,24.87a12.42,12.42,0,0,0-5.75,2.75c-1.15.95-.15,2.95,1.19,2.88a14.78,14.78,0,0,0,4.88-.94l-1.3-3.09c-1.76,1.06-3.47,2.17-5.16,3.34a1.7,1.7,0,0,0,.85,3.14,11.31,11.31,0,0,0,4-.57l-1.61-2.81-4,4.23a1.7,1.7,0,0,0,1.64,2.82l4-.89-1.64-2.82L420.51,37c-1.17,1-.18,2.91,1.19,2.89a8.75,8.75,0,0,0,6-2.2l-2.39-2.38A30.43,30.43,0,0,0,421,40.38c-.88,1.31.57,2.76,1.91,2.48a10,10,0,0,0,5-2.5L425.56,38a36.43,36.43,0,0,0-4.34,6.19,1.7,1.7,0,0,0,1.9,2.48,28.13,28.13,0,0,0,4.57-2l-2.31-2.31-2.5,4.54a1.71,1.71,0,0,0,1.91,2.48,8.36,8.36,0,0,0,4-2.27L426,45.45a12.73,12.73,0,0,1-2.54,4.28c-.94,1.14-.1,3.51,1.64,2.82a13.37,13.37,0,0,0,4.5-2.82l-3-1.16-1,2.16a1.69,1.69,0,0,0,.61,2.31,1.36,1.36,0,0,0,.39.17A4.41,4.41,0,0,0,430.85,52L428,50.83c.3,3.27,2.63,4.2,5.74,4.88,2.12.47,3-2.79.9-3.25a3.16,3.16,0,0,1-3.26-1.63,1.7,1.7,0,0,0-1.83-1.57,1.65,1.65,0,0,0-.95.37l-1,.32,1,2.48A7.29,7.29,0,0,0,430,48.57c.19-1.55-1.92-2.09-2.88-1.2l-3,2,1.65,2.82a20.46,20.46,0,0,0,3.4-5.77c.66-1.65-1.69-2.71-2.82-1.64l-2.51,1.41,1.9,2.48,2.51-4.55a1.7,1.7,0,0,0-2.31-2.31,14.8,14.8,0,0,1-3.76,1.64l1.9,2.48a31.14,31.14,0,0,1,3.82-5.51A1.69,1.69,0,0,0,425.49,38L422,39.57l1.91,2.48a25.32,25.32,0,0,1,3.74-4.4c1.61-1.53-.73-3.7-2.39-2.38l-3.56,1.2,1.19,2.88L428,35.26c1.4-1.14-.15-3.16-1.65-2.83l-4,.9L424,36.15,428,31.91c1.12-1.17,0-3.36-1.64-2.82a6,6,0,0,1-3.16.45l.86,3.14c1.68-1.17,3.39-2.28,5.15-3.33,1.58-1,.56-3.77-1.3-3.09a8.63,8.63,0,0,1-4,.82l1.2,2.88a7.66,7.66,0,0,1,4.25-1.88c2.13-.42,1.23-3.67-.89-3.25Z"/>
    <path id="Path_415" data-name="Path 415" class="cls-36"
          d="M425.91,7.74q8.77,29.37,18.51,58.43c.69,2,3.95,1.17,3.26-.89q-9.74-29.07-18.51-58.43C428.55,4.77,425.29,5.65,425.91,7.74Z"/>
    <path id="Path_416" data-name="Path 416" class="cls-35"
          d="M435.38,20.86c-2.57-.29-3.67,2.84-3.45,4.89.3,2.81,3.23,4.27,5.46,2.32,2-1.78,1.41-4.71-.53-6.28-1-.8-2.26-1.62-3.47-.81a5.39,5.39,0,0,0-2.15,3,3.52,3.52,0,0,0,.66,3.48,3.62,3.62,0,0,0,2.67,1.11,3.71,3.71,0,0,0,3.8-3.64c0-.12,0-.24,0-.36A4.31,4.31,0,0,0,433.45,21h-.09c-2.32.43-3.28,3.26-2.6,5.32a4.38,4.38,0,0,0,5.63,2.61,4.26,4.26,0,0,0,1.91-6.62,4.77,4.77,0,0,0-.55-.64c-1.58-1.49-4,.89-2.38,2.39.66.62.47,1.79-.57,1.76s-1.1-1.22-.44-1.81l-.74.44a1,1,0,0,1,1.06,0,1.73,1.73,0,0,1,.31.35v.12c0-.17,0,0-.1.07l-.36.13h-.22c-.15-.06,0,.06-.1-.15l.24.85a2.07,2.07,0,0,1,.85-2.11h-1.7a2.92,2.92,0,0,1,1.57,1.19,1.3,1.3,0,0,1,.14.32s-.37.54-.39.41.34,0,.35,0,0-.54,0-.68a6.87,6.87,0,0,1,.19-.75c0-.1-.61,0-.08,0a1.69,1.69,0,0,0,1.69-1.65,1.73,1.73,0,0,0-1.69-1.69Z"/>
    <path id="Path_417" data-name="Path 417" class="cls-35"
          d="M438.17,23.1a14.72,14.72,0,0,0-18-4.59c-7.93,3.67-11.28,12.66-10.14,20.93C411.1,47.3,416,53.72,424,55.1c8.3,1.41,18-2.36,22.54-9.53,1.17-1.84-1.75-3.53-2.91-1.7-7.26,11.38-26.88,11.06-30.09-3.3-1.29-5.81-.09-12.36,4.37-16.55,5-4.67,12.94-4.9,17.28.76,1.31,1.69,4.24,0,2.92-1.71Z"/>
    <path id="Path_418" data-name="Path 418" class="cls-35"
          d="M421.57,19.47c-7.47,9.89-6.6,29.39,5.72,35.12,1.95.92,3.67-2,1.7-2.91-10.68-5-10.89-22-4.51-30.5C425.79,19.44,422.86,17.76,421.57,19.47Z"/>
    <path id="Path_419" data-name="Path 419" class="cls-35"
          d="M419.46,22.14a12.66,12.66,0,0,0-5.75,2.75c-1.16.92-.18,2.94,1.19,2.88a14.78,14.78,0,0,0,4.88-.94l-1.3-3.08c-1.76,1.06-3.47,2.16-5.16,3.33a1.71,1.71,0,0,0,.85,3.15,11.54,11.54,0,0,0,4-.57l-1.6-2.82c-1.35,1.41-2.71,2.82-4.06,4.24a1.7,1.7,0,0,0,1.64,2.82l4-.9-1.58-2.82-5.06,4.1c-1.17.94-.18,2.9,1.19,2.88a8.83,8.83,0,0,0,6-2.19l-2.45-2.4A30.5,30.5,0,0,0,412,37.65c-.89,1.3.57,2.75,1.91,2.48a10,10,0,0,0,4.95-2.5l-2.38-2.39a37.42,37.42,0,0,0-4.34,6.19,1.7,1.7,0,0,0,1.9,2.48,28.13,28.13,0,0,0,4.57-2l-2.31-2.31-2.5,4.55a1.71,1.71,0,0,0,1.9,2.48,8.34,8.34,0,0,0,4-2.28l-2.82-1.64A12.56,12.56,0,0,1,414.32,47c-.94,1.14-.1,3.51,1.64,2.82a13.29,13.29,0,0,0,4.5-2.81l-2.89-1.17-1,2.17a1.69,1.69,0,0,0,.61,2.31,1.36,1.36,0,0,0,.39.17,4.44,4.44,0,0,0,4.28-1.19L419,48.1c.3,3.27,2.63,4.19,5.74,4.88,2.12.46,3-2.79.9-3.26a3.17,3.17,0,0,1-3.26-1.62,1.71,1.71,0,0,0-2.88-1.2l-1,.32,1,2.48a7.33,7.33,0,0,0,1.44-3.87c.19-1.55-1.92-2.09-2.88-1.19l-3,2,1.64,2.82a20.49,20.49,0,0,0,3.41-5.77c.66-1.65-1.7-2.72-2.82-1.64l-2.51,1.4,1.9,2.48,2.51-4.54a1.7,1.7,0,0,0-2.31-2.31,15.39,15.39,0,0,1-3.77,1.64L415,43.2a32,32,0,0,1,3.81-5.51,1.69,1.69,0,0,0-2.38-2.39L413,36.93l1.91,2.48A25.7,25.7,0,0,1,418.6,35c1.61-1.54-.73-3.7-2.39-2.39l-3.56,1.21,1.19,2.88,5.07-4.1c1.4-1.14-.15-3.15-1.65-2.82l-4,.89,1.65,2.83L419,29.27a1.7,1.7,0,0,0-1.64-2.82,5.82,5.82,0,0,1-3.16.45l.86,3.15c1.68-1.17,3.39-2.28,5.15-3.34,1.58-1,.56-3.76-1.3-3.08a8.63,8.63,0,0,1-4,.82l1.19,2.88a7.69,7.69,0,0,1,4.26-1.88c2.13-.42,1.23-3.68-.89-3.26Z"/>
    <path id="Path_420" data-name="Path 420" class="cls-35"
          d="M416.9,5q8.78,29.37,18.51,58.43c.69,2,3.95,1.17,3.26-.9Q428.94,33.5,420.16,4.12C419.53,2,416.28,2.93,416.9,5Z"/>
    <path id="Path_421" data-name="Path 421" class="cls-38"
          d="M553.51,196.87c-6.42-3.79-13.42,1-14.67,7.79-1.13,6.09,2.46,12.76,8.82,13.84,5.7,1,11.89-2.49,13.26-8.28,1.45-6.13-2.56-12.29-8.3-14.28-2.06-.72-2.94,2.54-.9,3.25,8.38,2.91,7.79,15.64-1.7,16.09-12.7.6-8.14-21.36,1.79-15.5a1.69,1.69,0,0,0,1.7-2.91Z"/>
    <path id="Path_422" data-name="Path 422" class="cls-38"
          d="M561,208.89q4.93-37.8,7.31-75.86c.14-2.17-3.24-2.17-3.37,0q-2.37,38-7.32,75.86C557.33,211,560.71,211,561,208.89Z"/>
    <path id="Path_423" data-name="Path 423" class="cls-38"
          d="M566.22,132.85c-1.32,7.58,1.72,13.88,5,20.5a65.93,65.93,0,0,1,7.1,27.86l3.15-.85L567,158.26c-1.19-1.81-4.11-.12-2.92,1.7l14.5,22.1a1.7,1.7,0,0,0,3.15-.85,67.16,67.16,0,0,0-4.52-22.88c-3.15-8-9.27-15.58-7.71-24.58.37-2.12-2.88-3-3.25-.9Z"/>
    <path id="Path_424" data-name="Path 424" class="cls-38"
          d="M566.47,145.14c-.61,3.28-1.21,6.57-1.82,9.86a1.7,1.7,0,0,0,2.82,1.64,19.12,19.12,0,0,0,4.24-5.84l-3.09-1.3q-1.38,4.81-2.75,9.64c-.44,1.54,1.7,3,2.82,1.64l4.53-5.34-2.82-1.64c-.78,2.5-1.57,5-2.35,7.5-.49,1.56,1.71,2.93,2.82,1.64l3.62-4.2-2.82-1.64a33.67,33.67,0,0,1-2.48,6.21c-.69,1.34.86,3.42,2.31,2.31a10.26,10.26,0,0,0,3.36-4l-3.15-.85a10.21,10.21,0,0,1-.83,4.88c-.55,1.65,1.67,2.78,2.82,1.64l3-2.9-2.82-1.64c-.45,2-.91,3.92-1.36,5.88a1.7,1.7,0,0,0,3.09,1.3,9,9,0,0,1,2.28-2.53l-2.82-1.64a18.93,18.93,0,0,0-1.06,4.87,1.7,1.7,0,0,0,1.72,1.68,1.68,1.68,0,0,0,.82-.22l1-.79L575,169.85a7.11,7.11,0,0,1,0,3.55l2.89-1.19-.17-.2v2.38l-.54.21-1.62-1.24c.44,1.18.33,1.73,1.23,2.66a1.74,1.74,0,0,0,2,.26l.48-.2c2-.85.27-3.76-1.7-2.92l-.49.21,2,.26a6.53,6.53,0,0,1-.37-1.16,1.77,1.77,0,0,0-1.62-1.24,2,2,0,0,0-1.85.78,1.73,1.73,0,0,0,0,2.38l.17.2c1.06,1.27,2.71.09,2.88-1.19a7.35,7.35,0,0,0,0-3.55c-.13-1.11-1.4-2.33-2.54-1.46l-1,.78,2.54,1.46a11.12,11.12,0,0,1,1-4c.62-1.71-1.66-2.66-2.82-1.64a16,16,0,0,0-2.82,3.21l3.09,1.3,1.35-5.89a1.7,1.7,0,0,0-2.82-1.64l-3,2.91,2.82,1.64a18,18,0,0,0,1-5.78c0-1.59-2.41-2.4-3.15-.85l-2.14,2.78,2.31,2.31a38.2,38.2,0,0,0,2.81-7c.46-1.55-1.69-2.94-2.82-1.64l-3.61,4.2,2.82,1.64,2.34-7.49c.49-1.56-1.72-2.95-2.82-1.65l-4.53,5.34,2.82,1.64,2.76-9.63c.51-1.79-2.25-3.07-3.09-1.3a16.58,16.58,0,0,1-3.7,5.15l2.82,1.65q.9-4.94,1.82-9.87c.39-2.12-2.86-3-3.26-.89Z"/>
    <path id="Path_425" data-name="Path 425" class="cls-38"
          d="M546.31,200v-.22l-1.68,1.69h.29l-1.63-1.24c0,.2-1.75,2.63-2,3.06L539.2,207a1.7,1.7,0,0,0,.71,2.3,1.68,1.68,0,0,0,1.94-.25l8-7.61c1.58-1.51-.8-3.88-2.38-2.39a65.28,65.28,0,0,0-7,7.68c-1.3,1.66.78,3.95,2.38,2.38a50.07,50.07,0,0,1,9-7l-2.05-2.65a59.64,59.64,0,0,0-9.45,10.62c-.94,1.35,1,3.29,2.31,2.31q5.9-4.24,11.7-8.62l-2-2.66q-4.87,5.35-9.76,10.72c-1.23,1.34.39,3.78,2,2.65l13.69-9.32-2-2.65-12.47,10.56c-1.47,1.25.43,3.62,2,2.65q6.38-3.84,12.88-7.42l-2.23-2.67q-4.25,4.15-8.83,8c-1.68,1.4.72,3.71,2.39,2.38a29.15,29.15,0,0,1,7.64-4.33l-1.3-3.09-6.51,4.6c-1.76,1.24-.09,4.16,1.7,2.91l4.46-3.08-2.31-2.31a2.87,2.87,0,0,1-1.33,1.77c-1.48,1.19.51,3.8,2,2.65,3-2.28,5-6.06,3.93-9.92-1.35-4.64-7.33-6.79-11.36-8.42V200l1.81-.42c2.11-.49,1.22-3.74-.9-3.26l-1.8.42c-1.79.41-1.41,2.69,0,3.26,2.56,1,6.46,2.5,8.2,4.73,1.89,2.42.74,5.7-1.58,7.43l2,2.65a5.75,5.75,0,0,0,1.86-2.44c.59-1.37-.75-3.39-2.3-2.31l-4.46,3.08,1.7,2.91,6.51-4.59c1.44-1,.62-3.83-1.3-3.09a34.83,34.83,0,0,0-9,5.16l2.39,2.38q4.58-3.8,8.83-7.95a1.69,1.69,0,0,0-2-2.65q-6.53,3.59-12.88,7.41l2,2.65,12.46-10.55c1.45-1.23-.46-3.73-2-2.65q-6.84,4.66-13.69,9.32l2,2.65,9.76-10.71c1.21-1.33-.44-3.86-2.05-2.65q-5.79,4.38-11.69,8.62l2.31,2.31a55,55,0,0,1,8.92-9.93c1.45-1.27-.42-3.64-2-2.65a54,54,0,0,0-9.65,7.52l2.38,2.38a66.89,66.89,0,0,1,7-7.67L547.48,199l-8,7.61,2.65,2c1.19-2.1,2.43-4.19,3.58-6.31.6-1.08,1.1-1.79.85-3a1.71,1.71,0,0,0-1.63-1.24h-.29a1.73,1.73,0,0,0-1.69,1.69V200c0,2.17,3.41,2.18,3.38,0Z"/>
    <path id="Path_426" data-name="Path 426" class="cls-35"
          d="M545.57,189.48c-6.42-3.79-13.42,1-14.67,7.8-1.13,6.09,2.46,12.76,8.82,13.83,5.71,1,11.89-2.48,13.26-8.27,1.45-6.13-2.56-12.29-8.3-14.29-2-.71-2.94,2.55-.9,3.26,8.38,2.91,7.79,15.64-1.7,16.08-12.7.61-8.14-21.35,1.79-15.49a1.69,1.69,0,0,0,1.7-2.92Z"/>
    <path id="Path_427" data-name="Path 427" class="cls-35"
          d="M553,201.5q5-37.8,7.32-75.86c.13-2.17-3.24-2.16-3.38,0q-2.37,38.05-7.31,75.86C549.35,203.65,552.72,203.63,553,201.5Z"/>
    <path id="Path_428" data-name="Path 428" class="cls-35"
          d="M558.23,125.47c-1.31,7.58,1.72,13.88,5,20.5a65.93,65.93,0,0,1,7.1,27.86l3.15-.85q-7.25-11.05-14.48-22.1c-1.19-1.81-4.11-.13-2.92,1.7l14.49,22.1a1.7,1.7,0,0,0,3.14-.85A66.64,66.64,0,0,0,569.19,151c-3.14-7.95-9.27-15.58-7.71-24.58C561.85,124.24,558.6,123.37,558.23,125.47Z"/>
    <path id="Path_429" data-name="Path 429" class="cls-35"
          d="M558.48,137.75q-.9,4.94-1.82,9.87a1.7,1.7,0,0,0,2.82,1.64,19.12,19.12,0,0,0,4.24-5.84l-3.09-1.3q-1.36,4.81-2.75,9.63c-.44,1.55,1.7,3,2.82,1.65l4.53-5.34-2.82-1.64-2.34,7.49c-.49,1.56,1.71,2.93,2.82,1.65l3.61-4.2-2.82-1.65a33.63,33.63,0,0,1-2.47,6.21c-.7,1.35.86,3.43,2.3,2.31a10.18,10.18,0,0,0,3.36-4l-3.15-.85a10.33,10.33,0,0,1-.83,4.88c-.54,1.65,1.67,2.78,2.83,1.64l3-2.9-2.82-1.65c-.45,2-.9,3.93-1.36,5.89a1.7,1.7,0,0,0,3,1.33,9.07,9.07,0,0,1,2.29-2.53L567,158.4a19,19,0,0,0-1.07,4.87,1.7,1.7,0,0,0,1.72,1.68,1.68,1.68,0,0,0,.82-.22l1-.79L567,162.48a7.39,7.39,0,0,1,0,3.56l2.88-1.19-.17-.2V167l-.54.21L567.57,166c.44,1.18.33,1.73,1.23,2.66a1.74,1.74,0,0,0,2,.26l.48-.2c2-.85.28-3.76-1.7-2.92l-.49.21,2,.26a5.87,5.87,0,0,1-.36-1.17,1.77,1.77,0,0,0-1.63-1.23,2,2,0,0,0-1.85.78,1.73,1.73,0,0,0,0,2.38l.17.2c1.06,1.27,2.71.08,2.88-1.19a7.39,7.39,0,0,0,0-3.56c-.12-1.1-1.4-2.32-2.54-1.45l-1,.78,2.54,1.46a11.3,11.3,0,0,1,.94-4c.62-1.71-1.66-2.66-2.82-1.65a16,16,0,0,0-2.82,3.21l3.09,1.3,1.35-5.88a1.7,1.7,0,0,0-2.82-1.64l-3,2.91,2.82,1.64a17.47,17.47,0,0,0,.95-5.78c0-1.6-2.4-2.4-3.15-.85l-2.14,2.78,2.31,2.31a38.24,38.24,0,0,0,2.82-7c.45-1.55-1.7-2.95-2.82-1.64l-3.62,4.2,2.82,1.64q1.17-3.75,2.35-7.5c.48-1.55-1.72-2.94-2.83-1.64L558.26,151l2.82,1.64q1.36-4.81,2.75-9.63c.51-1.79-2.25-3.07-3.09-1.3a16.58,16.58,0,0,1-3.7,5.15l2.82,1.64c.61-3.28,1.21-6.57,1.82-9.86.39-2.12-2.86-3-3.26-.9Z"/>
    <path id="Path_430" data-name="Path 430" class="cls-35"
          d="M538.32,192.64v-.22l-1.69,1.69h.29l-1.62-1.24c0,.2-1.75,2.63-2,3.06l-2.09,3.64a1.7,1.7,0,0,0,.71,2.3,1.68,1.68,0,0,0,1.94-.25l8-7.61c1.57-1.51-.81-3.88-2.39-2.39a66.89,66.89,0,0,0-7,7.67c-1.3,1.67.78,4,2.38,2.39a50.07,50.07,0,0,1,9-7l-2-2.65a58.2,58.2,0,0,0-9.45,10.62c-1,1.35,1,3.28,2.31,2.31q5.89-4.25,11.69-8.63l-2-2.65-9.83,10.73c-1.23,1.35.38,3.78,2,2.65l13.69-9.31-2-2.66L535.8,205.66c-1.48,1.25.42,3.62,2,2.65q6.38-3.84,12.88-7.42l-2-2.65q-4.26,4.15-8.83,8c-1.69,1.4.71,3.7,2.38,2.38a29.47,29.47,0,0,1,7.64-4.34l-1.3-3.08-6.51,4.6c-1.75,1.24-.09,4.15,1.71,2.91l4.45-3.08-2.31-2.31a2.87,2.87,0,0,1-1.33,1.77c-1.47,1.19.51,3.8,2,2.65,3-2.28,5-6.06,3.92-9.92-1.35-4.64-7.33-6.79-11.35-8.42v3.17l1.8-.41c2.12-.49,1.22-3.75-.9-3.26l-1.8.42c-1.79.41-1.41,2.68,0,3.25,2.56,1,6.47,2.51,8.2,4.74,1.89,2.42.74,5.7-1.58,7.43l2,2.65a5.89,5.89,0,0,0,1.86-2.44c.59-1.37-.76-3.39-2.31-2.31L542,205.72l1.71,2.91,6.51-4.6c1.44-1,.61-3.82-1.3-3.08a33.76,33.76,0,0,0-9.13,5.21l2.37,2.41q4.59-3.8,8.83-7.95a1.7,1.7,0,0,0-2-2.66q-6.51,3.58-12.88,7.42l2,2.65,12.45-10.55c1.45-1.23-.46-3.73-2-2.65l-13.69,9.32,2,2.65,9.76-10.71c1.22-1.33-.44-3.86-2-2.65q-5.79,4.38-11.69,8.62l2.31,2.31a54.67,54.67,0,0,1,8.92-9.93c1.45-1.27-.42-3.64-2-2.65a53.7,53.7,0,0,0-9.66,7.51l2.38,2.39a66.89,66.89,0,0,1,7-7.67l-2.39-2.39-8,7.61,2.65,2c1.2-2.1,2.43-4.18,3.59-6.3.59-1.09,1.09-1.8.84-3a1.69,1.69,0,0,0-1.63-1.24h-.29a1.73,1.73,0,0,0-1.69,1.69v.22c0,2.17,3.41,2.18,3.38,0Z"/>
    <path id="Path_431" data-name="Path 431" class="cls-34"
          d="M21.21,81.57c-5.66-.71-11.5,3.49-12.06,9.33a10.89,10.89,0,0,0,10,11.51c5.61.26,10.64-4.68,10.89-10.23S25.52,79.07,19.42,81.85c-2,.91-.26,3.82,1.71,2.92,4.23-1.94,6,6.86,5,9.43-1.39,3.6-5.31,5.82-9,4.3C9,95.14,12.88,83.9,21.13,85c2.15.27,2.13-3.11,0-3.38Z"/>
    <path id="Path_432" data-name="Path 432" class="cls-34"
          d="M30.63,91q-.48-38.49-1-77c0-2.17-3.41-2.17-3.38,0q.49,38.49,1,77c0,2.17,3.4,2.18,3.37,0Z"/>
    <path id="Path_433" data-name="Path 433" class="cls-34"
          d="M26.32,15.4c3.22,21,25.06,38,20.24,60.26l3.25.9c3-17-18.29-23.83-18.51-39.61,0-2.17-3.41-2.17-3.38,0,.09,6.18,3,11.16,6.83,15.85,5.36,6.6,13.5,13.38,11.81,22.86-.38,2.11,2.79,3,3.25.9C54.88,53.08,32.92,36.34,29.57,14.5,29.24,12.36,26,13.27,26.32,15.4Z"/>
    <path id="Path_434" data-name="Path 434" class="cls-34"
          d="M29.51,26.57A28.44,28.44,0,0,0,27.64,36a1.7,1.7,0,0,0,3.14.85l2.75-4.5-3-1.66a28.87,28.87,0,0,0-2.82,9.57c-.17,1.46,2,2.22,2.88,1.2a56.13,56.13,0,0,0,4.64-6l-3.09-1.3c-.81,2.86-1.61,5.72-2.42,8.57-.43,1.52,1.74,3,2.82,1.65L36.83,39,34,37.38l-3.26,8.06c-.75,1.84,2.09,2.83,3.08,1.3a21,21,0,0,1,3.9-4.57L35,40.57l-2.07,6.12c-.55,1.65,1.67,2.76,2.82,1.64l3.67-3.56-2.65-2Q35,46,33.29,49.22c-.72,1.35.84,3.35,2.28,2.28a18,18,0,0,0,4.28-4.21L36.76,46,35,51c-.65,1.78,1.65,2.55,2.82,1.64a30.92,30.92,0,0,0,4.4-4.16l-2.65-2-2.6,4.7c-.77,1.39.85,3.29,2.31,2.3l3.54-2.39-2.31-2.31A33.68,33.68,0,0,0,38,54.52c-.51,1.54,1.25,2.46,2.48,1.91a17.07,17.07,0,0,0,3.69-2.22l-2.31-2.3a11.49,11.49,0,0,1-2,2.84c-1,1.16-.06,3.43,1.64,2.82A19.78,19.78,0,0,0,45.09,56l-2.52-1.49A5.18,5.18,0,0,1,42,57.67a1.69,1.69,0,0,0,1.22,2.07,1.57,1.57,0,0,0,.86,0,5.54,5.54,0,0,0,3-1.81l-2.82-1.64L43.59,58a1.75,1.75,0,0,0,0,2.39l3,2.88c1.57,1.5,4-.88,2.39-2.39L46,58v2.39c1.14-1.35,1.29-1.44,1.55-3.2a1.71,1.71,0,0,0-2.77-1.62l-1.56,1,2.08,2A9.47,9.47,0,0,0,46,54.46,1.72,1.72,0,0,0,43.42,53l-2.85,1.29,1.64,2.82a21.69,21.69,0,0,0,2.56-3.54c.78-1.35-.91-3.39-2.31-2.31a17.34,17.34,0,0,1-3.7,2.21l2.48,1.91a29.8,29.8,0,0,1,2.16-5c.77-1.39-.84-3.3-2.31-2.31l-3.52,2.45,2.31,2.31c.87-1.57,1.74-3.13,2.6-4.7s-1.34-3.54-2.65-2a30.46,30.46,0,0,1-4.4,4.17L38.25,52c.61-1.67,1.21-3.35,1.82-5,.7-1.94-2-2.73-3.09-1.3a10.21,10.21,0,0,1-3.07,3L36.22,51c1.15-2.15,2.3-4.3,3.43-6.45a1.69,1.69,0,0,0-2.65-2L33.34,46.1l2.8,1.47,2.07-6.13c.57-1.68-1.65-2.7-2.82-1.64A26.19,26.19,0,0,0,31,45.05L34,46.35l3.26-8.06c.62-1.53-1.8-2.94-2.82-1.64l-4.25,5.4,2.82,1.64,2.43-8.57c.54-1.91-2-2.84-3.09-1.3a49.58,49.58,0,0,1-4.11,5.26l2.89,1.19a23.25,23.25,0,0,1,2.4-7.84,1.69,1.69,0,0,0-2.92-1.7l-2.74,4.5,3.14.85a26.26,26.26,0,0,1,1.76-8.57c.77-2-2.49-2.91-3.26-.9Z"/>
    <path id="Path_435" data-name="Path 435" class="cls-34"
          d="M15.38,84.34l-4,5.87c-1.13,1.64,1.29,3.31,2.65,2.05l7.44-6.93L19.08,83a41.67,41.67,0,0,0-6.36,8.18c-1,1.75,1.23,3.21,2.65,2.05,2.3-1.89,4.52-3.85,6.67-5.91,1.6-1.54-.73-3.7-2.39-2.38a61.28,61.28,0,0,0-8.57,8.32c-1.14,1.35.38,3.85,2,2.65a112.54,112.54,0,0,0,11.61-9.52L22.3,84q-4.05,5-8.11,9.94a1.69,1.69,0,1,0,2.38,2.4h0l8.17-7.6-2.39-2.39L12.75,96.57c-1.52,1.62.73,3.73,2.39,2.39q5.61-4.51,11.38-8.81l-2-2.65a109.63,109.63,0,0,0-9.21,10.86c-1,1.35,1,3.26,2.31,2.31A58.82,58.82,0,0,0,28,91.4L25.57,89l-6.89,8.42a1.69,1.69,0,0,0,2,2.65,30.29,30.29,0,0,0,7.15-5.16L25,93.23a7.34,7.34,0,0,1-1.6,3c-1.43,1.63,1,4,2.38,2.39a11.27,11.27,0,0,0,2.47-4.46,1.7,1.7,0,0,0-2.82-1.64A26.9,26.9,0,0,1,19,97.16l2,2.65,6.9-8.42c1.35-1.66-.94-4-2.39-2.39a55,55,0,0,1-9.66,8.75l2.3,2.31a104,104,0,0,1,8.68-10.19c1.28-1.32-.45-3.83-2-2.65q-6.12,4.56-12.07,9.34L15.13,99l9.63-10.24a1.69,1.69,0,0,0-2.39-2.39l-8.17,7.6,2.39,2.39q4.05-5,8.11-9.94A1.69,1.69,0,0,0,22.32,84h0a105.76,105.76,0,0,1-10.93,9l2,2.65A60.27,60.27,0,0,1,22,87.3l-2.39-2.38q-3.22,3.08-6.67,5.9l2.65,2.05a38,38,0,0,1,5.84-7.51C23,83.82,20.63,81.5,19,83l-7.47,6.89,2.65,2,4-5.87c1.23-1.8-1.69-3.49-2.92-1.71Z"/>
    <path id="Path_436" data-name="Path 436" class="cls-35"
          d="M12.62,73.11C7,72.4,1.12,76.6.55,82.44A10.89,10.89,0,0,0,10.55,94c5.61.26,10.64-4.68,10.88-10.23S16.91,70.6,10.82,73.39c-2,.91-.26,3.82,1.7,2.92,4.23-1.94,6,6.86,5,9.42-1.39,3.61-5.31,5.83-9,4.31-8.16-3.36-4.25-14.6,4-13.55,2.15.27,2.13-3.11,0-3.38Z"/>
    <path id="Path_437" data-name="Path 437" class="cls-35"
          d="M22,82.57q-.49-38.49-1-77c0-2.17-3.4-2.17-3.37,0q.48,38.49,1,77c0,2.17,3.41,2.18,3.38,0Z"/>
    <path id="Path_438" data-name="Path 438" class="cls-35"
          d="M17.73,7C21,28,42.78,45,38,67.23l3.25.9c3-17-18.29-23.83-18.52-39.61,0-2.17-3.4-2.17-3.37,0,.09,6.18,3,11.16,6.83,15.85C31.52,51,39.66,57.74,38,67.23c-.38,2.11,2.79,3,3.25.9C46.29,44.65,24.33,27.91,21,6.07,20.65,3.93,17.4,4.84,17.73,7Z"/>
    <path id="Path_439" data-name="Path 439" class="cls-35"
          d="M20.92,18.18a28.44,28.44,0,0,0-1.87,9.47,1.7,1.7,0,0,0,3.14.85L24.94,24,22,22.29a28.76,28.76,0,0,0-2.82,9.58c-.18,1.46,2,2.22,2.88,1.2a54.77,54.77,0,0,0,4.63-6l-3.08-1.3q-1.21,4.29-2.42,8.57c-.43,1.52,1.73,3,2.82,1.65l4.25-5.4-2.83-1.65L22.2,37c-.75,1.85,2.09,2.84,3.08,1.31a21,21,0,0,1,3.9-4.57L26.36,32.1l-2.07,6.12C23.73,39.87,26,41,27.11,39.86l3.67-3.56-2.65-2c-1.15,2.15-2.3,4.3-3.43,6.45-.74,1.38.84,3.33,2.3,2.3a17.42,17.42,0,0,0,4.28-4.2L28.2,37.57c-.61,1.67-1.21,3.35-1.82,5S28,45.12,29.2,44.21a30.7,30.7,0,0,0,4.37-4.16l-2.65-2-2.6,4.69c-.78,1.4.85,3.3,2.31,2.31l3.53-2.39-2.31-2.31a34.44,34.44,0,0,0-2.49,5.75c-.51,1.54,1.24,2.46,2.47,1.91a17.14,17.14,0,0,0,3.7-2.22l-2.31-2.31a11.15,11.15,0,0,1-2.06,2.85c-1,1.16,0,3.43,1.65,2.82a19.15,19.15,0,0,0,3.76-1.67L34,46a5.26,5.26,0,0,1-.56,3.21,1.69,1.69,0,0,0,1.22,2.07,1.57,1.57,0,0,0,.86,0,5.54,5.54,0,0,0,3-1.81l-2.82-1.64-.68,1.71a1.73,1.73,0,0,0,0,2.39l3,2.88c1.57,1.5,4-.88,2.39-2.39l-3-2.88V52A4.5,4.5,0,0,0,39,48.75a1.7,1.7,0,0,0-2.82-1.64l-1.55,1,2.07,2.07a9.44,9.44,0,0,0,.69-4.1,1.72,1.72,0,0,0-2.54-1.46L32,45.86l1.62,2.82a21.3,21.3,0,0,0,2.58-3.53c.79-1.35-.91-3.39-2.31-2.31a17,17,0,0,1-3.69,2.21L32.63,47a28.7,28.7,0,0,1,2.16-5c.76-1.4-.85-3.3-2.31-2.31l-3.54,2.4,2.31,2.31c.87-1.57,1.74-3.13,2.6-4.7s-1.35-3.54-2.65-2a30.46,30.46,0,0,1-4.4,4.17l2.82,1.64c.6-1.68,1.21-3.35,1.81-5,.7-1.94-2-2.73-3.08-1.3a10.21,10.21,0,0,1-3.07,3l2.29,2.29L31,36a1.7,1.7,0,0,0-2.65-2l-3.62,3.56,2.84,1.6c.69-2,1.37-4.09,2.06-6.13.57-1.68-1.65-2.7-2.82-1.64a26.15,26.15,0,0,0-4.42,5.25L25.47,38l3.26-8.06c.62-1.53-1.8-2.94-2.82-1.64l-4.25,5.4,2.82,1.64c.81-2.86,1.62-5.71,2.42-8.57.54-1.91-2-2.84-3.08-1.3a49.58,49.58,0,0,1-4.11,5.26l2.86,1.19A23.14,23.14,0,0,1,24.94,24,1.69,1.69,0,0,0,22,22.29c-.91,1.51-1.83,3-2.74,4.51l3.14.85a26.26,26.26,0,0,1,1.76-8.57C25,17.08,21.69,16.17,20.92,18.18Z"/>
    <path id="Path_440" data-name="Path 440" class="cls-35"
          d="M6.79,75.91l-4,5.87c-1.12,1.64,1.3,3.31,2.65,2l7.45-6.93L10.5,74.51A42,42,0,0,0,4.14,82.7c-1,1.75,1.23,3.21,2.65,2,2.29-1.89,4.51-3.85,6.66-5.91,1.61-1.54-.73-3.71-2.38-2.39A60.27,60.27,0,0,0,2.5,84.78c-1.14,1.35.37,3.85,2,2.65a112.54,112.54,0,0,0,11.61-9.52l-2.38-2.34L5.62,85.51A1.69,1.69,0,1,0,8,87.91H8l8.17-7.6-2.39-2.39L4.16,88.15c-1.52,1.62.73,3.73,2.39,2.39q5.6-4.52,11.38-8.81l-2-2.65a110.69,110.69,0,0,0-9.2,10.86c-1,1.35,1,3.26,2.31,2.31A59.28,59.28,0,0,0,19.39,83L17,80.57,10.05,89a1.7,1.7,0,0,0,2,2.65,29.85,29.85,0,0,0,7.15-5.17l-2.82-1.64a7.24,7.24,0,0,1-1.61,3c-1.42,1.63,1,4,2.39,2.39a11.27,11.27,0,0,0,2.47-4.46,1.7,1.7,0,0,0-2.82-1.64,26.9,26.9,0,0,1-6.46,4.64l2,2.65L19.25,83c1.35-1.65-.94-4-2.39-2.38a55.78,55.78,0,0,1-9.67,8.75l2.38,2.22a102.84,102.84,0,0,1,8.68-10.19c1.28-1.32-.46-3.83-2-2.65q-6.12,4.56-12.06,9.34l2.39,2.39,9.63-10.24a1.69,1.69,0,0,0-2.38-2.4h0l-8.17,7.6L8,87.82l8.1-9.94c1.35-1.66-.77-3.91-2.38-2.39a105.76,105.76,0,0,1-10.93,9l2,2.65a60.73,60.73,0,0,1,8.56-8.33L11,76.42q-3.23,3.09-6.67,5.91l2.65,2a38,38,0,0,1,5.84-7.51c1.54-1.54-.8-3.86-2.39-2.39L3,81.36l2.65,2,4-5.87C10.89,75.69,8,74,6.74,75.78Z"/>
    <path id="Path_441" data-name="Path 441" class="cls-36"
          d="M550.94,20.4h.9A4.61,4.61,0,0,0,555,19.09a4.5,4.5,0,0,0,0-6.36h0a4.66,4.66,0,0,0-3.18-1.32h-.9a4.66,4.66,0,0,0-3.18,1.32,4.51,4.51,0,0,0,0,6.37h0A4.72,4.72,0,0,0,550.94,20.4Z"/>
    <path id="Path_442" data-name="Path 442" class="cls-36"
          d="M298.9,136.57H298a4.5,4.5,0,0,0-3.18,7.69,4.72,4.72,0,0,0,3.18,1.31h.9a4.5,4.5,0,0,0,4.5-4.5,4.56,4.56,0,0,0-1.32-3.18A4.66,4.66,0,0,0,298.9,136.57Z"/>
    <path id="Path_443" data-name="Path 443" class="cls-36"
          d="M100.12,38.62c5.8,0,5.81-9,0-9S94.32,38.62,100.12,38.62Z"/>
    <path id="Path_444" data-name="Path 444" class="cls-36"
          d="M331.3,305.75c5.8,0,5.81-9,0-9S325.5,305.75,331.3,305.75Z"/>
    <path id="Path_445" data-name="Path 445" class="cls-34"
          d="M506.83,142.82v.9a4.64,4.64,0,0,0,1.32,3.19,4.51,4.51,0,0,0,6.36,0,4.71,4.71,0,0,0,1.32-3.19v-.9a4.66,4.66,0,0,0-1.32-3.18,4.5,4.5,0,0,0-6.35,0h0A4.66,4.66,0,0,0,506.83,142.82Z"/>
    <path id="Path_446" data-name="Path 446" class="cls-34"
          d="M90.07,188.73c5.79,0,5.8-9,0-9S84.27,188.73,90.07,188.73Z"/>
    <path id="Path_447" data-name="Path 447" class="cls-38"
          d="M605,218.43h-.9a4.71,4.71,0,0,0-3.19,1.32,4.54,4.54,0,0,0,0,6.37,4.71,4.71,0,0,0,3.19,1.32h.9a4.66,4.66,0,0,0,3.18-1.32,4.5,4.5,0,0,0,0-6.36h0A4.66,4.66,0,0,0,605,218.43Z"/>
    <path id="Path_448" data-name="Path 448" class="cls-38"
          d="M197.68,204.18c5.79,0,5.8-9,0-9S191.88,204.18,197.68,204.18Z"/>
    <path id="Path_449" data-name="Path 449" class="cls-38"
          d="M4.35,178.33c5.79,0,5.8-9,0-9S-1.45,178.33,4.35,178.33Z"/>
    <path id="Path_450" data-name="Path 450" class="cls-37"
          d="M428.57,200.43h.9a4.5,4.5,0,0,0,3.18-7.68,4.66,4.66,0,0,0-3.18-1.32h-.9a4.5,4.5,0,0,0-3.18,7.68A4.66,4.66,0,0,0,428.57,200.43Z"/>
    <path id="Path_451" data-name="Path 451" class="cls-34"
          d="M102.11,280.51c-3.19-1-6.51,1.38-8.36,4.16a11.62,11.62,0,0,0-2.11,8.15,9.79,9.79,0,0,0,5.19,6.79,13.48,13.48,0,0,0,8.61,1.11,9.33,9.33,0,0,0,3.23-1.15,8.23,8.23,0,0,0,2.66-2.75,10.84,10.84,0,0,0-8.15-16.44"/>
    <path id="Path_452" data-name="Path 452" class="cls-34"
          d="M141.48,298c-3.18-1-6.5,1.38-8.35,4.16a11.51,11.51,0,0,0-2.11,8.15,9.75,9.75,0,0,0,5.18,6.79,13.5,13.5,0,0,0,8.62,1.11,9.26,9.26,0,0,0,3.22-1.14,8.14,8.14,0,0,0,2.66-2.75,10.83,10.83,0,0,0-8.13-16.45"/>
    <path id="Path_453" data-name="Path 453" class="cls-34"
          d="M111.42,297.24a587.73,587.73,0,0,0,27.82-65.88l-1.81,1.38c8.44.63,16.06,4,23.06,8.62a110.26,110.26,0,0,1,10.15,7.72c2.45,2.06,4.08,2.87,3.28,7.28-.37,2-2.07,4.36-3,6.22Q159.31,287,147.46,311.36c-1.05,2.16,2.18,4.07,3.24,1.89q7.53-15.48,15-31,3.62-7.54,7.21-15.1c1.83-3.85,5.42-8.78,5.58-13.19.14-3.73-3.3-5.92-5.85-8.05a112.45,112.45,0,0,0-10.27-7.77c-7.58-5-15.85-8.46-25-9.14a1.88,1.88,0,0,0-1.81,1.37,579.15,579.15,0,0,1-27.44,65c-1.07,2.16,2.17,4.06,3.24,1.9Z"/>
    <path id="Path_454" data-name="Path 454" class="cls-34"
          d="M133,245q19.56,9,38.41,19.46c2.11,1.17,4-2.07,1.89-3.24q-18.85-10.41-38.4-19.45c-2.18-1-4.09,2.22-1.9,3.23Z"/>
    <path id="Path_455" data-name="Path 455" class="cls-35"
          d="M96.57,269.45c-6.77-1.27-12.42,5.24-12.91,11.68-.51,6.69,5,11.66,11.33,12.35,7,.76,13.09-3.18,13.69-10.47a12.85,12.85,0,0,0-11-13.69c-2.36-.36-3.37,3.25-1,3.62,3.85.6,7.23,2.95,8.12,6.94,1.1,4.94-1.83,9.39-6.87,9.87-4.13.39-8.85-1.3-10.23-5.61s2.54-12.08,7.91-11.08c2.35.44,3.37-3.17,1-3.61Z"/>
    <path id="Path_456" data-name="Path 456" class="cls-35"
          d="M136,286.94c-6.77-1.27-12.43,5.24-12.92,11.68-.5,6.69,5,11.66,11.34,12.35,6.95.76,13.09-3.18,13.69-10.47a12.85,12.85,0,0,0-11-13.69c-2.36-.36-3.38,3.25-1,3.62,3.86.6,7.23,2.95,8.12,6.94,1.11,4.94-1.83,9.38-6.87,9.87-4.13.39-8.85-1.3-10.22-5.61s2.48-12.06,7.86-11.06c2.36.44,3.37-3.17,1-3.61Z"/>
    <path id="Path_457" data-name="Path 457" class="cls-35"
          d="M107.21,288.8A587.73,587.73,0,0,0,135,222.92l-1.81,1.37c8.44.64,16.06,4,23.06,8.63a108.41,108.41,0,0,1,10.15,7.71c2.45,2.07,4.08,2.88,3.28,7.28-.37,2-2.07,4.37-3,6.23q-11.57,24.44-23.42,48.78c-1,2.16,2.18,4.06,3.24,1.89q7.53-15.48,15-31,3.61-7.55,7.21-15.1c1.83-3.85,5.42-8.78,5.58-13.19.14-3.74-3.3-5.92-5.85-8.06a117.22,117.22,0,0,0-10.27-7.77c-7.58-5-15.85-8.45-25-9.14a1.91,1.91,0,0,0-1.81,1.38,577.3,577.3,0,0,1-27.44,65c-1.06,2.16,2.17,4.06,3.24,1.9Z"/>
    <path id="Path_458" data-name="Path 458" class="cls-35"
          d="M128.77,236.57q19.56,9,38.41,19.46c2.11,1.16,4-2.07,1.89-3.24q-18.85-10.41-38.4-19.46c-2.18-1-4.09,2.23-1.9,3.24Z"/>
    <path id="Path_459" data-name="Path 459" class="cls-38"
          d="M256,283.62c-1.39-3.2-6.38-3.13-8-.18-1.78,3.28,1,7.44,4.67,7.29a5.91,5.91,0,0,0,4.67-2.73,4.19,4.19,0,0,0-.75-5.14,4.62,4.62,0,0,0-5.31-1.23,4.53,4.53,0,0,0-2.75,4.8c.71,4.32,6.89,5,8.14.65a3.23,3.23,0,0,0-2-4.12,4.07,4.07,0,0,0-.5-.13,3.84,3.84,0,0,0-4.54,3v0a3.57,3.57,0,0,0,.51,2.81,3.65,3.65,0,0,0,3.51.85,2.85,2.85,0,0,0,1.45-3.76,2.46,2.46,0,0,0-.25-.45c-2.44-4.08-9,1.08-5.92,4.24a4.18,4.18,0,0,0,5.43.51,3.8,3.8,0,0,0,.67-5.16,3.38,3.38,0,0,0-4.68-1,3.69,3.69,0,0,0-.53.43,3.63,3.63,0,0,0-.06,5.13c1.77,1.64,4.42-1,2.65-2.65.07.06,0,.17.06.17H252s-.08.07,0,0,0,.1,0,.1a.06.06,0,0,1,.06-.06h0a.67.67,0,0,1-.55-.33v1.83a7.63,7.63,0,0,0,.66-1.1c0-.31.28.55-.28-.22-.28-.19-.38-.24-.31-.14.21.3.33,0,.38-1l1.44-.19-1.32-.27,1.31,1.31s-.16-.66-.1-.49c-.29-.85-.24-.4-.28-.41-.23,0-.45.76-.78-.09a.83.83,0,0,1,.64-1l.18,0c.63,0,1.11.8,1.14,1.35l.26-.95c-.52,1.2-2.61,2.6-3.2.66-.36-1.15,1-1.46,1.46-.51a1.89,1.89,0,0,0,2.56.68,1.92,1.92,0,0,0,.68-2.57Z"/>
    <path id="Path_460" data-name="Path 460" class="cls-38"
          d="M258,285.77a18.32,18.32,0,0,0-16.83-16.91c-9.62-.71-18.76,5.65-22,14.6s.56,18.81,8.28,24.29c9,6.39,20.64,5.26,30.08.61,2.17-1.07.27-4.3-1.89-3.24-7.35,3.62-16.4,5-23.9.9-6.51-3.52-11-10.59-9.85-18.1a18.55,18.55,0,0,1,16.4-15.35,14.61,14.61,0,0,1,16,13.1v.06c.19,2.39,3.94,2.41,3.75,0Z"/>
    <path id="Path_461" data-name="Path 461" class="cls-38"
          d="M241.57,270.44A36.17,36.17,0,0,0,228.15,288c-2.26,6.43-3.37,14.59,1.06,20.29,1.47,1.9,4.11-.77,2.65-2.65-3.89-5-1.52-13.77.84-19a32.11,32.11,0,0,1,10.76-12.93c1.95-1.39.08-4.64-1.89-3.24Z"/>
    <path id="Path_462" data-name="Path 462" class="cls-38"
          d="M239.14,271.63a22.63,22.63,0,0,0-7.55-.74c-1.69.12-2.75,2.62-.94,3.49l4.66,2.26.45-3.43-8,1.13c-2,.3-1.47,3,0,3.62a24.9,24.9,0,0,0,6.59,1.6l-.5-3.69a58.79,58.79,0,0,0-9,2c-1.65.49-1.92,3.28,0,3.61l7.42,1.29v-3.61a62.63,62.63,0,0,1-8.61,1.33c-1.66.14-2.79,2.64-.94,3.5a13.29,13.29,0,0,0,9.11,1c2-.44,1.63-3.9-.5-3.68a35.45,35.45,0,0,0-8.39,1.84,1.88,1.88,0,0,0,.5,3.68l7,.65v-3.75a25.23,25.23,0,0,0-8.49,1.84c-1.62.66-1.93,3.06,0,3.61a15.42,15.42,0,0,0,8.17.2c2-.47,1.63-3.79-.49-3.69a18.53,18.53,0,0,0-7.94,2.15c-1.67.87-.86,3.5.95,3.5h5.19l-.5-3.69a18.06,18.06,0,0,0-7,2.9c-1.47,1-1,3.53.95,3.5a21,21,0,0,0,6.29-1l-1.42-3.48q-2.29,1.41-4.6,2.81A1.91,1.91,0,0,0,221,295a1.85,1.85,0,0,0,1,.79,6.17,6.17,0,0,0,5.76-.52l-2.27-3a7.51,7.51,0,0,1-3.39,2.63,1.9,1.9,0,0,0-.64,2.6,1.87,1.87,0,0,0,1.08.83,7,7,0,0,0,5.14-.68l-2.28-2.94-2,1.89c-1.18.83-1.29,3.11.44,3.42l1.53.28L224.06,298a8.85,8.85,0,0,0-.68,3c-.15,1.26,1.31,2.08,2.37,1.81l1.75-.11-1.87-1.88a2.24,2.24,0,0,0,.88,2.41c1.88,1.46,4.55-1.17,2.65-2.66l.22.25c.12-1.06-1-1.79-1.88-1.87a6.1,6.1,0,0,0-2.75.25l2.38,1.8.55-2a1.88,1.88,0,0,0-1.31-2.31l-1.53-.27.45,3.43a10,10,0,0,0,2.74-2.48,1.88,1.88,0,0,0-2.28-2.94l-2.24.29.45,3.43a13.54,13.54,0,0,0,4.15-3.21,1.89,1.89,0,0,0-2.28-2.95l-2.86.14.45,3.43,4.6-2.81c1.76-1.07.63-4.1-1.45-3.42a17.32,17.32,0,0,1-5.29.89l.95,3.49a15.62,15.62,0,0,1,6.14-2.52c2.11-.39,1.58-3.69-.5-3.68h-5.19l.95,3.49a12.91,12.91,0,0,1,6-1.64l-.5-3.68a11.58,11.58,0,0,1-6.18-.19v3.61a21.68,21.68,0,0,1,7.49-1.7,1.88,1.88,0,0,0,0-3.75l-7-.65.5,3.68a31.84,31.84,0,0,1,7.39-1.7l-.49-3.68a8,8,0,0,1-6.23-.67l-1,3.49a67.8,67.8,0,0,0,9.61-1.47c1.73-.39,1.84-3.29,0-3.61l-7.43-1.29v3.61a60,60,0,0,1,9-2c2.27-.32,1.41-3.47-.5-3.68a20.42,20.42,0,0,1-5.59-1.47v3.62l8-1.13c1.58-.23,1.82-2.76.45-3.43l-4.63-2.13-1,3.49a19.55,19.55,0,0,1,6.55.61c2.34.62,3.33-3,1-3.62Z"/>
    <path id="Path_463" data-name="Path 463" class="cls-38"
          d="M243.57,254.13q-5,33.63-10.3,67.21c-.38,2.36,3.23,3.38,3.61,1q5.34-33.58,10.3-67.21C247.53,252.77,243.92,251.75,243.57,254.13Z"/>
    <path id="Path_464" data-name="Path 464" class="cls-35"
          d="M247.82,277.42c-1.38-3.2-6.38-3.13-8-.18-1.79,3.28,1,7.44,4.67,7.29a5.91,5.91,0,0,0,4.67-2.73,4.19,4.19,0,0,0-.75-5.14,4.62,4.62,0,0,0-5.31-1.23,4.55,4.55,0,0,0-2.75,4.8c.71,4.32,6.89,5,8.14.65a3.23,3.23,0,0,0-2-4.12,2.85,2.85,0,0,0-.48-.13,3.84,3.84,0,0,0-4.54,3v0a3.57,3.57,0,0,0,.51,2.81,3.62,3.62,0,0,0,3.51.85,2.85,2.85,0,0,0,1.44-3.76,2.46,2.46,0,0,0-.25-.45c-2.43-4.08-9,1.08-5.91,4.24a4.18,4.18,0,0,0,5.43.51,3.8,3.8,0,0,0,.67-5.16,3.4,3.4,0,0,0-5.22-.54,3.62,3.62,0,0,0,0,5.12h0c1.76,1.64,4.42-1,2.65-2.65.07.06,0,.17.06.17h-.5s-.08.07,0,.06,0,.09,0,.09a.06.06,0,0,1,.06-.06h0a.67.67,0,0,1-.55-.33v1.89a7.63,7.63,0,0,0,.66-1.1c0-.31.28.56-.29-.22-.27-.19-.37-.24-.3-.14.21.3.33,0,.37-1l1.45-.19-1.32-.27,1.31,1.31s-.16-.66-.1-.49c-.29-.85-.25-.4-.28-.4-.24,0-.45.75-.79-.1a.86.86,0,0,1,.69-1h.14c.63,0,1.11.8,1.14,1.35l.26-1c-.52,1.21-2.61,2.6-3.21.66-.35-1.15,1.05-1.46,1.47-.5a1.89,1.89,0,0,0,2.56.67,1.92,1.92,0,0,0,.67-2.57Z"/>
    <path id="Path_465" data-name="Path 465" class="cls-35"
          d="M249.8,279.57A18.32,18.32,0,0,0,233,262.66c-9.62-.71-18.76,5.65-22,14.6s.56,18.81,8.28,24.29c9,6.39,20.63,5.26,30.08.61,2.16-1.07.27-4.3-1.89-3.24-7.35,3.62-16.41,5-23.9.9-6.51-3.52-11-10.59-9.85-18.1a18.55,18.55,0,0,1,16.43-15.31,14.61,14.61,0,0,1,16,13.1v.06c.19,2.39,3.94,2.41,3.75,0Z"/>
    <path id="Path_466" data-name="Path 466" class="cls-35"
          d="M233.45,264.24A36.07,36.07,0,0,0,220,281.75c-2.26,6.43-3.37,14.59,1.05,20.29,1.48,1.9,4.12-.77,2.66-2.65-3.89-5-1.52-13.77.84-19a32.19,32.19,0,0,1,10.76-12.93c2-1.39.08-4.64-1.89-3.24Z"/>
    <path id="Path_467" data-name="Path 467" class="cls-35"
          d="M231,265.43a22.63,22.63,0,0,0-7.55-.74c-1.69.12-2.75,2.62-.94,3.5l4.66,2.25.45-3.43-8,1.14c-2,.29-1.47,3,0,3.61a24.52,24.52,0,0,0,6.59,1.6l-.5-3.69a58.79,58.79,0,0,0-9,2c-1.65.49-1.93,3.28,0,3.61l7.42,1.29V273a64.21,64.21,0,0,1-8.61,1.34c-1.66.13-2.79,2.63-.94,3.49a13.3,13.3,0,0,0,9.11,1c2-.45,1.63-3.91-.5-3.69a35.45,35.45,0,0,0-8.39,1.84,1.88,1.88,0,0,0,.5,3.68l7,.65v-3.75a25.23,25.23,0,0,0-8.49,1.84c-1.63.66-1.93,3.06,0,3.61a15.42,15.42,0,0,0,8.17.2c2-.47,1.63-3.79-.5-3.68a18.48,18.48,0,0,0-7.93,2.14c-1.68.87-.86,3.51,1,3.5h5.19l-.5-3.68a17.89,17.89,0,0,0-7,2.89c-1.47,1-1,3.53.95,3.5a21,21,0,0,0,6.29-1L218,283.47l-4.6,2.8a1.91,1.91,0,0,0-.61,2.62,1.87,1.87,0,0,0,1.06.81,6.14,6.14,0,0,0,5.76-.52l-2.28-2.94a7.56,7.56,0,0,1-3.39,2.62,1.91,1.91,0,0,0-.61,2.62,1.87,1.87,0,0,0,1.06.81,7,7,0,0,0,5.17-.72l-2.33-3-2,1.89c-1.17.83-1.28,3.11.45,3.43l1.53.27-1.31-2.31a8.85,8.85,0,0,0-.68,3c-.15,1.25,1.31,2.07,2.37,1.8l1.75-.11-1.87-1.88a2.24,2.24,0,0,0,.88,2.41c1.88,1.46,4.55-1.17,2.65-2.65l.22.24c.11-1.06-1-1.79-1.88-1.87a6.12,6.12,0,0,0-2.75.25l2.38,1.81.54-2a1.88,1.88,0,0,0-1.3-2.31l-1.53-.27.45,3.43a9.8,9.8,0,0,0,2.73-2.48,1.88,1.88,0,0,0-2.27-2.94l-2.24.3.45,3.42a13.54,13.54,0,0,0,4.15-3.21,1.89,1.89,0,0,0-2.28-3l-2.86.14.44,3.43,4.61-2.81c1.76-1.07.63-4.1-1.45-3.42a17.32,17.32,0,0,1-5.29.89l.94,3.49a15.66,15.66,0,0,1,6.15-2.52c2.11-.39,1.58-3.69-.5-3.68h-5.19l.94,3.49a13,13,0,0,1,6-1.63l-.49-3.69a11.62,11.62,0,0,1-6.19-.19V283a21.78,21.78,0,0,1,7.5-1.7,1.88,1.88,0,0,0,0-3.75l-7-.65.5,3.68a31.84,31.84,0,0,1,7.39-1.7l-.5-3.68a7.91,7.91,0,0,1-6.22-.67l-1,3.5a69.28,69.28,0,0,0,9.61-1.48c1.73-.39,1.84-3.29,0-3.61l-7.43-1.29v3.61a60,60,0,0,1,9-2c2.26-.32,1.41-3.47-.5-3.68a20.4,20.4,0,0,1-5.59-1.46v3.61l8-1.13c1.58-.23,1.82-2.76.44-3.43l-4.66-2.25-1,3.49a19.81,19.81,0,0,1,6.55.61c2.34.62,3.33-3,1-3.62Z"/>
    <path id="Path_468" data-name="Path 468" class="cls-35"
          d="M235.38,247.93q-5,33.63-10.31,67.21c-.37,2.37,3.24,3.38,3.62,1Q234,282.57,239,248.93C239.34,246.57,235.73,245.55,235.38,247.93Z"/>
    <path id="Path_469" data-name="Path 469" class="cls-38"
          d="M380.77,300a7.54,7.54,0,0,0-6.9,5,12.14,12.14,0,0,0,.47,8.87,6.69,6.69,0,0,0,2.54,3.38,6.07,6.07,0,0,0,2.66.74,10.49,10.49,0,0,0,8.83-3.77,9.64,9.64,0,0,0,1.45-9.42c-1.25-3.08-5.72-4.69-9.05-4.81"/>
    <path id="Path_470" data-name="Path 470" class="cls-38"
          d="M418.26,299.67c-3-.1-5.82,2.17-6.91,5a12.2,12.2,0,0,0,.48,8.87,6.69,6.69,0,0,0,2.54,3.38,6,6,0,0,0,2.65.74,10.49,10.49,0,0,0,8.83-3.77,9.64,9.64,0,0,0,1.45-9.42c-1.25-3.08-5.71-4.69-9-4.81"/>
    <path id="Path_471" data-name="Path 471" class="cls-38"
          d="M390.36,307.84c3-10.72.84-22.31-.16-33.2-1.05-11.5-2.26-23-3.89-34.41l-1.81,2.34a126.14,126.14,0,0,1,25.33-.36c4.37.4,11-.23,12.87,4.5,1.4,3.49,2,7.56,2.82,11.2,2,8.36,3.49,16.86,3.4,25.47-.1,9.11-2.69,17.65-5.12,26.35-.65,2.33,3,3.32,3.62,1,2.7-9.66,5.4-19.08,5.24-29.21-.15-9.89-2.26-19.63-4.63-29.19-.81-3.25-1.24-7.51-3.48-10.17-2.05-2.43-5.46-2.54-8.4-3a126,126,0,0,0-31.65-.38,1.92,1.92,0,0,0-1.86,2,1.74,1.74,0,0,0,.05.39c1.58,11.1,2.74,22.25,3.76,33.41,1,10.48,3.19,21.9.3,32.21-.66,2.32,3,3.32,3.61,1Z"/>
    <path id="Path_472" data-name="Path 472" class="cls-38"
          d="M386.21,255.78c13.16-.94,26.37-1.27,39.57-1.12,2.41,0,2.41-3.72,0-3.75-13.2-.15-26.41.18-39.57,1.12C383.82,252.2,383.8,256,386.21,255.78Z"/>
    <path id="Path_473" data-name="Path 473" class="cls-35"
          d="M372.14,291.72c-13.28.67-11.94,23.82,1.47,21.6a11.83,11.83,0,0,0,10-12.79c-.63-5.9-6.13-8.44-11.48-8.81-2.41-.17-2.4,3.58,0,3.75,2.95.2,6.7,1.26,7.58,4.48a7.88,7.88,0,0,1-4.38,9c-4.24,2-7.5.23-8.54-4.12-1-4,.54-9.09,5.34-9.33,2.4-.13,2.42-3.88,0-3.75Z"/>
    <path id="Path_474" data-name="Path 474" class="cls-35"
          d="M409.63,291.36c-13.28.67-11.94,23.82,1.47,21.6a11.83,11.83,0,0,0,10-12.79c-.62-5.9-6.13-8.44-11.47-8.81-2.41-.17-2.4,3.58,0,3.75,2.95.2,6.7,1.26,7.58,4.48a7.9,7.9,0,0,1-4.39,9c-4.24,2-7.49.23-8.53-4.12-1-4,.53-9.09,5.34-9.33,2.4-.12,2.41-3.88,0-3.75Z"/>
    <path id="Path_475" data-name="Path 475" class="cls-35"
          d="M383.73,301.4c3-10.72.84-22.31-.16-33.2-1.05-11.5-2.27-23-3.9-34.41l-1.8,2.37a126.88,126.88,0,0,1,25.33-.35c4.36.4,11-.23,12.87,4.5,1.39,3.49,2,7.56,2.82,11.2,1.94,8.36,3.49,16.86,3.4,25.47-.1,9.11-2.69,17.65-5.12,26.35-.65,2.33,3,3.32,3.61,1,2.7-9.66,5.41-19.08,5.25-29.21-.16-9.89-2.26-19.63-4.64-29.19-.8-3.25-1.23-7.51-3.48-10.18-2.05-2.43-5.45-2.53-8.39-2.95a126,126,0,0,0-31.65-.39,1.93,1.93,0,0,0-1.86,2,1.58,1.58,0,0,0,.05.38c1.58,11.1,2.74,22.25,3.76,33.41,1,10.48,3.19,21.9.29,32.21-.65,2.32,3,3.32,3.62,1Z"/>
    <path id="Path_476" data-name="Path 476" class="cls-35"
          d="M379.57,249.34c13.16-.94,26.37-1.27,39.56-1.12a1.88,1.88,0,0,0,0-3.75c-13.19-.15-26.4.18-39.56,1.12C377.17,245.76,377.15,249.51,379.57,249.34Z"/>
</svg>