<svg xmlns="http://www.w3.org/2000/svg" viewBox="0 0 140 140">
    <defs>
        <style>
            .cls-1{fill:#fafafa;}.cls-2{fill:#fbae17;}.cls-3{fill:#6b4241;}.cls-4{fill:#492d2c;}.cls-5{fill:#855351;}.cls-6{fill:#f072ab;}.cls-7{fill:#fff;}.cls-8{fill:#171717;}.cls-9{fill:#a66765;}
        </style>
    </defs>
    <title>bear</title>
    <g id="Background">
        <rect class="cls-1" x="-45" y="-420" width="800" height="600"/>
    </g>
    <g id="Round_Backgrounds" data-name="Round Backgrounds">
        <circle class="cls-2" cx="70" cy="70" r="70"/>
    </g>
    <g id="Wildlife_animal_faces" data-name="Wildlife animal faces">
        <path class="cls-3" d="M50.2,45.11A12.1,12.1,0,1,1,38.1,32.77,12.21,12.21,0,0,1,50.2,45.11Z"/>
        <path class="cls-4" d="M44.56,45.8a5.2,5.2,0,1,1-5.2-5.3A5.25,5.25,0,0,1,44.56,45.8Z"/>
        <path class="cls-3" d="M89.79,45.11a12.11,12.11,0,1,0,12.1-12.34A12.22,12.22,0,0,0,89.79,45.11Z"/>
        <path class="cls-4" d="M95.89,45.57a5.2,5.2,0,1,0,5.2-5.29A5.25,5.25,0,0,0,95.89,45.57Z"/>
        <path class="cls-5"
              d="M111.07,70.77c0,20.14-18.43,36.46-41.15,36.46S28.76,90.91,28.76,70.77,47.19,34.3,69.92,34.3,111.07,50.63,111.07,70.77Z"/>
        <path class="cls-6"
              d="M89.16,77c0,3,2.94,5.47,6.57,5.47S102.3,80,102.3,77s-2.94-5.48-6.57-5.48S89.16,74,89.16,77Z"/>
        <path class="cls-6"
              d="M37.7,77c0,3,2.94,5.47,6.57,5.47S50.84,80,50.84,77s-2.94-5.48-6.57-5.48S37.7,74,37.7,77Z"/>
        <path class="cls-7" d="M74.57,68a1.1,1.1,0,1,1-1.1-1.11A1.1,1.1,0,0,1,74.57,68Z"/>
        <path class="cls-7"
              d="M77.3,63.81c-.9,4.4,1,8.51,4.14,9.17s6.48-2.37,7.38-6.77-1-8.51-4.14-9.18S78.19,59.4,77.3,63.81Z"/>
        <path class="cls-8"
              d="M79.25,64.21c-.59,2.91.63,5.63,2.74,6.07s4.28-1.57,4.87-4.48-.63-5.62-2.73-6.06S79.84,61.3,79.25,64.21Z"/>
        <path class="cls-7"
              d="M82.61,61.25a1.35,1.35,0,0,1-.76,1.68c-.58.12-1.19-.43-1.35-1.24A1.33,1.33,0,0,1,81.26,60C81.84,59.89,82.44,60.45,82.61,61.25Z"/>
        <path class="cls-7"
              d="M62.7,63.81c.9,4.4-1,8.51-4.14,9.17s-6.48-2.37-7.38-6.77,1-8.51,4.14-9.18S61.81,59.4,62.7,63.81Z"/>
        <path class="cls-8"
              d="M60.75,64.21c.59,2.91-.63,5.63-2.74,6.07s-4.28-1.57-4.88-4.48.64-5.62,2.74-6.06S60.16,61.3,60.75,64.21Z"/>
        <path class="cls-7"
              d="M55.23,61.25a1.33,1.33,0,0,1-.76,1.68c-.58.12-1.18-.43-1.35-1.24A1.35,1.35,0,0,1,53.88,60C54.46,59.89,55.07,60.45,55.23,61.25Z"/>
        <path class="cls-9"
              d="M51.94,79.39c0,7.75,8.42,14,18,14s18.07-6.1,18.07-13.85S79.62,65.29,70,65.29,51.94,71.63,51.94,79.39Z"/>
        <path class="cls-8"
              d="M78.13,78.67a4.68,4.68,0,0,0,1.26-2.77h0a.86.86,0,0,0-.83-.88h0a.87.87,0,0,0-.89.83h0s0,.13-.1.46h0a3.48,3.48,0,0,1-.71,1.22h0c-.81.89-2.48,1.93-6.19,1.93h0c-.32,0-.65,0-1,0h0a12.57,12.57,0,0,1-3.38-.64h0a5.6,5.6,0,0,1-4-3.81h0a.85.85,0,0,0-1-.64h0a.87.87,0,0,0-.64,1h0c1.56,5.8,9,5.72,9,5.78h0l1.07,0h0c4,0,6.24-1.18,7.42-2.51Z"/>
        <path class="cls-8"
              d="M70.86,79.78V74.35a.87.87,0,0,0-.86-.86h0a.87.87,0,0,0-.86.86h0v5.43a.87.87,0,0,0,.86.86h0a.87.87,0,0,0,.86-.86Z"/>
        <path class="cls-8"
              d="M64,69.21c-.1,2.34,2.53,5.35,6.15,5.24,4.07-.13,5.89-2.9,5.93-5.24,0-2.73-2.4-4.35-5.74-4.35S64.1,66,64,69.21Z"/>
        <path class="cls-7" d="M65.63,67.61a1.09,1.09,0,1,0,1.08-1.08A1.08,1.08,0,0,0,65.63,67.61Z"/>
    </g>
</svg>