<svg xmlns="http://www.w3.org/2000/svg" viewBox="0 0 140 140">
    <defs>
        <style>
            .cls-1{fill:#fafafa;}.cls-2{fill:#5f5494;}.cls-3{fill:#9facbd;}.cls-4{fill:#c9d0db;}.cls-5{fill:#a9b5c4;}.cls-6{fill:#ffb0d2;}.cls-7{fill:#dae1ed;}.cls-8{fill:#171717;}.cls-9{fill:#fff;}.cls-10{fill:#1a1a1a;}
        </style>
    </defs>
    <title>elephant</title>
    <g id="Background">
        <rect class="cls-1" x="-615" y="-40" width="800" height="600"/>
    </g>
    <g id="Round_Backgrounds" data-name="Round Backgrounds">
        <circle class="cls-2" cx="70" cy="70" r="70"/>
    </g>
    <g id="Wildlife_animal_faces" data-name="Wildlife animal faces">
        <path class="cls-3"
              d="M62.23,55.33c.36-.6-1.54-4.43-1.77-5a30.08,30.08,0,0,0-5.56-9.55c-12.83-13.84-38.12.85-41.15,16.86C12.36,64.91,17,69.2,23,72a77.69,77.69,0,0,0,13.27,5c1.7.45,11.44,3,12.35,1.48Z"/>
        <path class="cls-4"
              d="M55.23,55.8c.21-.4-1.14-2.86-1.31-3.24A19.89,19.89,0,0,0,50,46.44c-8.82-8.72-25,1.66-26.57,12.27-.71,4.82,2.46,7.51,6.48,9.2a52.41,52.41,0,0,0,8.86,2.89c1.14.24,7.61,1.66,8.16.62C46.93,71.41,55.22,55.82,55.23,55.8Z"/>
        <path class="cls-3"
              d="M77.77,55.33c-.36-.6,1.54-4.43,1.77-5a30.08,30.08,0,0,1,5.56-9.55c12.83-13.84,38.12.85,41.15,16.86C127.64,64.91,123,69.2,117,72a77.69,77.69,0,0,1-13.27,5c-1.7.45-11.44,3-12.35,1.48C91.38,78.49,77.78,55.36,77.77,55.33Z"/>
        <path class="cls-4"
              d="M84.77,55.8c-.21-.4,1.14-2.86,1.31-3.24A19.89,19.89,0,0,1,90,46.44c8.82-8.72,25,1.66,26.57,12.27.71,4.82-2.46,7.51-6.49,9.2a52,52,0,0,1-8.85,2.89c-1.14.24-7.61,1.66-8.16.62C93.07,71.41,84.78,55.82,84.77,55.8Z"/>
        <path class="cls-5"
              d="M100.73,69.62C102,86.45,86.94,99.08,69.93,99.08S39.2,87.84,39.2,71.56s13.72-31.4,30.73-31.4S99.5,53.4,100.73,69.62Z"/>
        <path class="cls-6"
              d="M49.35,71.5c-2.68,0-4.85,1.57-4.85,3.5s2.17,3.5,4.85,3.5,4.86-1.57,4.86-3.5S52,71.5,49.35,71.5Z"/>
        <path class="cls-6"
              d="M90.65,71.5c-2.68,0-4.86,1.57-4.86,3.5s2.18,3.5,4.86,3.5S95.5,76.93,95.5,75,93.33,71.5,90.65,71.5Z"/>
        <path class="cls-4"
              d="M66.1,72.74c-8.12,3-9.12,12.57-5,19.69a28.09,28.09,0,0,1,3.81,8.91c.63,3.1,0,6.48,1.38,9.38,1.65,3.55,5.28,4.19,7.84,1.53,2.28-2.36,1.94-6.48,2.5-9.53,1.37-7.53,6-15.62,4.18-23.46-1.39-5.88-9.76-8.47-14.64-6.54"/>
        <path class="cls-7" d="M62.9,79.53s5.9,2.18,14.58.08C77.48,79.61,69.07,84,62.9,79.53Z"/>
        <path class="cls-7" d="M62.9,85.78s5.9,2.19,14.58.08C77.48,85.86,69.07,90.21,62.9,85.78Z"/>
        <path class="cls-7" d="M64.78,92a20,20,0,0,0,10.82.06S69.36,95.32,64.78,92Z"/>
        <path class="cls-7" d="M66,98.28a15.38,15.38,0,0,0,8.32,0S69.55,100.81,66,98.28Z"/>
        <path class="cls-7" d="M66.81,103.57a12.57,12.57,0,0,0,6.76,0S69.67,105.63,66.81,103.57Z"/>
        <path class="cls-5" d="M64.85,40.72s6.64-4.11,6.28-9.62c0,0,6.4,5.09,3.05,11.8L69,42.72Z"/>
        <path class="cls-8"
              d="M87.14,63a.44.44,0,0,1,.3-.55h0l.18-.07h0a3.51,3.51,0,0,0,.52-.28h0a3.6,3.6,0,0,0,1.25-1.39h0a.44.44,0,0,1,.6-.19h0a.44.44,0,0,1,.19.59h0a4.43,4.43,0,0,1-2.49,2.19h0l-.13,0h0a.43.43,0,0,1-.42-.32Z"/>
        <path class="cls-8"
              d="M85.7,61.2a.45.45,0,0,1,.25-.58h0l.21-.09h0a4.61,4.61,0,0,0,.54-.32h0a3.88,3.88,0,0,0,1.22-1.31h0a.44.44,0,0,1,.6-.19h0a.44.44,0,0,1,.18.6h0a5,5,0,0,1-2.43,2.14h0a.41.41,0,0,1-.16,0h0a.44.44,0,0,1-.41-.28Z"/>
        <path class="cls-9" d="M88.34,64.89a5.79,5.79,0,1,1-5.78-5.8A5.78,5.78,0,0,1,88.34,64.89Z"/>
        <path class="cls-10" d="M86.17,64.89a3.62,3.62,0,1,1-3.61-3.63A3.62,3.62,0,0,1,86.17,64.89Z"/>
        <path class="cls-9" d="M81.33,62.63a1,1,0,1,1-1-1A1,1,0,0,1,81.33,62.63Z"/>
        <path class="cls-8"
              d="M52.86,63a.44.44,0,0,0-.3-.55h0l-.18-.07h0a3.51,3.51,0,0,1-.52-.28h0a3.6,3.6,0,0,1-1.25-1.39h0a.44.44,0,0,0-.6-.19h0a.44.44,0,0,0-.19.59h0a4.43,4.43,0,0,0,2.49,2.19h0l.13,0h0a.43.43,0,0,0,.42-.32Z"/>
        <path class="cls-8"
              d="M54.3,61.2a.45.45,0,0,0-.25-.58h0a1.4,1.4,0,0,1-.21-.09h0a4.61,4.61,0,0,1-.54-.32h0a3.88,3.88,0,0,1-1.22-1.31h0a.44.44,0,0,0-.6-.19h0a.44.44,0,0,0-.18.6h0a5,5,0,0,0,2.43,2.14h0a.41.41,0,0,0,.16,0h0a.44.44,0,0,0,.41-.28Z"/>
        <path class="cls-9" d="M63.23,64.89a5.79,5.79,0,1,1-5.78-5.8A5.78,5.78,0,0,1,63.23,64.89Z"/>
        <path class="cls-10" d="M61.06,64.89a3.62,3.62,0,1,1-3.61-3.63A3.62,3.62,0,0,1,61.06,64.89Z"/>
        <path class="cls-9" d="M56.22,62.63a1,1,0,1,1-1-1A1,1,0,0,1,56.22,62.63Z"/>
    </g>
</svg>