<svg xmlns="http://www.w3.org/2000/svg" viewBox="0 0 139.37 139.37">
    <defs>
        <style>
            .cls-1{fill:#fafafa;}.cls-2{fill:#36b1a7;}.cls-3{fill:#fa9b01;}.cls-4{fill:#6b4241;}.cls-5{fill:#fbb317;}.cls-6{fill:#e68c26;}.cls-7{fill:#fbf4af;}.cls-8{fill:#171717;}.cls-9{fill:#fff;}.cls-10{fill:#f0729a;}
        </style>
    </defs>
    <title>giraffe</title>
    <g id="Background">
        <rect class="cls-1" x="-425.32" y="-420.32" width="800" height="600"/>
    </g>
    <g id="Round_Backgrounds" data-name="Round Backgrounds">
        <circle class="cls-2" cx="69.68" cy="69.68" r="69.68"/>
    </g>
    <g id="Wildlife_animal_faces" data-name="Wildlife animal faces">
        <path class="cls-3"
              d="M75,45.64c-.45,1.66-.12,3.27.72,3.6h0c.84.34,1.88-.74,2.32-2.4l3.67-13.73c.44-1.66.12-3.28-.72-3.61h0c-.85-.33-1.89.75-2.33,2.41Z"/>
        <path class="cls-4" d="M77,26.94a4.63,4.63,0,1,0,5.79-3.05A4.63,4.63,0,0,0,77,26.94Z"/>
        <path class="cls-3"
              d="M64.42,45.64c.44,1.66.12,3.27-.72,3.6h0c-.84.34-1.89-.74-2.33-2.4L57.71,33.11c-.44-1.66-.12-3.28.72-3.61h0c.84-.33,1.88.75,2.32,2.41Z"/>
        <path class="cls-4" d="M62.4,26.94a4.63,4.63,0,1,1-5.79-3.05A4.63,4.63,0,0,1,62.4,26.94Z"/>
        <path class="cls-5"
              d="M48.86,56.74a16.69,16.69,0,0,1-12.43-8.17c-1.61-3.16-3.81-12.66,2.83-10.69,4.88,1.45,7.42,3,10.37,7.38,1.49,2.2,5.35,11.11.69,11.82L50,57"/>
        <path class="cls-6"
              d="M46.41,52.52a8.8,8.8,0,0,1-6.56-4.33c-.85-1.67-2-6.69,1.51-5.64a8.52,8.52,0,0,1,5.47,3.9c.79,1.17,2.82,5.88.35,6.25l-.16,0"/>
        <path class="cls-5"
              d="M90.51,56.74a16.69,16.69,0,0,0,12.43-8.17c1.61-3.16,3.81-12.66-2.83-10.69-4.88,1.45-7.42,3-10.37,7.38-1.5,2.2-5.36,11.11-.69,11.82l.3-.08"/>
        <path class="cls-6"
              d="M93,52.52a8.8,8.8,0,0,0,6.57-4.33c.84-1.67,2-6.69-1.51-5.64a8.47,8.47,0,0,0-5.47,3.9c-.79,1.17-2.82,5.88-.35,6.25l.16,0"/>
        <path class="cls-5"
              d="M34,71.65c-.28-16.84,16-30.49,35.68-30.49s36.56,13.67,35.68,30.49c-1,19.55-15,44-34.71,44S34.32,91.77,34,71.65Z"/>
        <path class="cls-3"
              d="M68.76,53.79c-.62,2.53-3.43,4-6.28,3.31s-4.65-3.32-4-5.84A5,5,0,0,1,64.74,48C67.58,48.65,69.39,51.27,68.76,53.79Z"/>
        <path class="cls-3" d="M90.53,53.85a3.48,3.48,0,1,1-2.62-3.79A3.29,3.29,0,0,1,90.53,53.85Z"/>
        <path class="cls-3"
              d="M75.34,48.76C80.4,50,85.3,48.34,87.15,45a41.51,41.51,0,0,0-17.48-3.82c-1,0-1.91,0-2.86.1C67.57,44.6,70.86,47.66,75.34,48.76Z"/>
        <path class="cls-3"
              d="M94.52,49.52a5.12,5.12,0,0,0-1.36,2.38c-.74,3,1.41,6.14,4.81,7a6.9,6.9,0,0,0,4.31-.32A30.54,30.54,0,0,0,94.52,49.52Z"/>
        <path class="cls-3"
              d="M56.3,47.25c2.84.7,5.66-.78,6.28-3.31a4.31,4.31,0,0,0,0-2.17,39.68,39.68,0,0,0-9.72,3A5.6,5.6,0,0,0,56.3,47.25Z"/>
        <path class="cls-7"
              d="M38.8,91.06c6.38,13.47,18.39,24.62,31.84,24.62,8.06,0,15.15-4.09,20.8-10.27a66.19,66.19,0,0,0,6.26-8.65A58.13,58.13,0,0,0,101.43,89a35,35,0,0,0-3.84-1.88C79.27,80.89,54.28,78.39,38.8,91.06Z"/>
        <path class="cls-8"
              d="M68.71,89.38c0,1.07-.58,1.93-1.29,1.93s-1.29-.86-1.29-1.93.58-1.92,1.29-1.92S68.71,88.32,68.71,89.38Z"/>
        <path class="cls-8"
              d="M73.23,89.38c0,1.07-.57,1.93-1.29,1.93s-1.28-.86-1.28-1.93.58-1.92,1.28-1.92S73.23,88.32,73.23,89.38Z"/>
        <path class="cls-8"
              d="M90,66.54a.55.55,0,0,1,.38-.69h0l.22-.09h0a3.91,3.91,0,0,0,.62-.33h0a4.44,4.44,0,0,0,1.52-1.68h0a.55.55,0,0,1,.75-.25h0a.56.56,0,0,1,.24.75h0a5.49,5.49,0,0,1-3,2.67h0l-.16,0h0a.56.56,0,0,1-.53-.4Z"/>
        <path class="cls-8"
              d="M88.24,64.35a.55.55,0,0,1,.32-.72h0l.25-.12h0a5.77,5.77,0,0,0,.65-.38h0a4.53,4.53,0,0,0,1.48-1.58h0a.56.56,0,0,1,.75-.24h0a.55.55,0,0,1,.23.75h0a6.18,6.18,0,0,1-3,2.61h0a.64.64,0,0,1-.2,0h0a.56.56,0,0,1-.52-.35Z"/>
        <path class="cls-9"
              d="M91.25,69c0,4.29-2.6,7.77-5.8,7.77S79.64,73.3,79.64,69s2.6-7.77,5.81-7.77S91.25,64.72,91.25,69Z"/>
        <path class="cls-8"
              d="M88.93,69c0,2.58-1.56,4.66-3.48,4.66S82,71.59,82,69s1.56-4.66,3.49-4.66S88.93,66.44,88.93,69Z"/>
        <path class="cls-9"
              d="M85.13,66.33c0,.81-.49,1.46-1.09,1.46S83,67.14,83,66.33s.49-1.45,1.09-1.45S85.13,65.53,85.13,66.33Z"/>
        <path class="cls-8"
              d="M49.38,66.54a.57.57,0,0,0-.38-.69h0l-.22-.09h0a3.55,3.55,0,0,1-.63-.33h0a4.6,4.6,0,0,1-1.52-1.68h0a.54.54,0,0,0-.74-.25h0a.56.56,0,0,0-.24.75h0a5.43,5.43,0,0,0,3,2.67h0l.15,0h0a.57.57,0,0,0,.54-.4Z"/>
        <path class="cls-8"
              d="M51.12,64.35a.54.54,0,0,0-.31-.72h0l-.25-.12h0a5.76,5.76,0,0,1-.66-.38h0a4.51,4.51,0,0,1-1.47-1.58h0a.56.56,0,0,0-.75-.24h0a.56.56,0,0,0-.24.75h0a6.18,6.18,0,0,0,3,2.61h0a.76.76,0,0,0,.21,0h0a.54.54,0,0,0,.51-.35Z"/>
        <path class="cls-9"
              d="M48.12,69c0,4.29,2.6,7.77,5.8,7.77s5.8-3.48,5.8-7.77-2.59-7.77-5.8-7.77S48.12,64.72,48.12,69Z"/>
        <path class="cls-8"
              d="M57.4,69c0,2.58-1.56,4.66-3.48,4.66S50.44,71.59,50.44,69s1.56-4.66,3.48-4.66S57.4,66.44,57.4,69Z"/>
        <path class="cls-9"
              d="M53.61,66.33c0,.81-.49,1.46-1.09,1.46s-1.09-.65-1.09-1.46.49-1.45,1.09-1.45S53.61,65.53,53.61,66.33Z"/>
        <path class="cls-8"
              d="M69.38,106.53l-3.13-2.76a.57.57,0,0,1,0-.79h0a.57.57,0,0,1,.79,0h0l2.74,2.43,2.63-2.54a.56.56,0,0,1,.79,0h0a.56.56,0,0,1,0,.78h0l-3,2.91a.58.58,0,0,1-.39.15h0a.54.54,0,0,1-.37-.14Z"/>
        <path class="cls-10"
              d="M44.55,80.5c2.3-1.65,5.62-1.66,7.41,0s1.37,4.29-.93,5.94-5.62,1.66-7.41,0S42.25,82.15,44.55,80.5Z"/>
        <path class="cls-10"
              d="M94.82,80.5c-2.31-1.65-5.63-1.66-7.41,0s-1.38,4.29.93,5.94,5.62,1.66,7.41,0S97.12,82.15,94.82,80.5Z"/>
    </g>
</svg>