<svg xmlns="http://www.w3.org/2000/svg" viewBox="0 0 140 140">
    <defs>
        <style>
            .cls-1{fill:#fafafa;}.cls-2{fill:#e83942;}.cls-3{fill:#e89e70;}.cls-4{fill:#ffa617;}.cls-5{fill:#ef7c01;}.cls-6{fill:#fbae17;}.cls-7{fill:#492d2c;}.cls-8{fill:#fff;}.cls-9{fill:#171717;}.cls-10{fill:#ffeeb8;}.cls-11{fill:#f0729a;}
        </style>
    </defs>
    <title>horse</title>
    <g id="Background">
        <rect class="cls-1" x="-615" y="-230" width="800" height="600"/>
    </g>
    <g id="Round_Backgrounds" data-name="Round Backgrounds">
        <circle class="cls-2" cx="70" cy="70" r="70"/>
    </g>
    <g id="Wildlife_animal_faces" data-name="Wildlife animal faces">
        <path class="cls-3"
              d="M54.36,45c1.1-4.16-1.32-8.52-5.09-10.74-4.44-2.61-8.44-3.2-8.39,2.72a14.77,14.77,0,0,0,3.89,9.94c2.35,2.34,8.83,3.11,9.41-1.42"/>
        <path class="cls-4"
              d="M54.36,45c1.1-4.16-1.32-8.52-5.09-10.74-4.44-2.61-8.44-3.2-8.39,2.72a14.77,14.77,0,0,0,3.89,9.94c2.35,2.34,8.83,3.11,9.41-1.42"/>
        <path class="cls-5"
              d="M51.28,43.08a5.11,5.11,0,0,0-2.6-5.49C46.41,36.26,44.36,36,44.39,39a7.55,7.55,0,0,0,2,5.08c1.2,1.2,4.52,1.59,4.81-.72"/>
        <path class="cls-3"
              d="M84.22,45c-1.1-4.16,1.32-8.52,5.09-10.74,4.44-2.61,8.44-3.2,8.39,2.72a14.77,14.77,0,0,1-3.89,9.94C91.46,49.27,85,50,84.4,45.51"/>
        <path class="cls-4"
              d="M84.22,45c-1.1-4.16,1.32-8.52,5.09-10.74,4.44-2.61,8.44-3.2,8.39,2.72a14.77,14.77,0,0,1-3.89,9.94C91.46,49.27,85,50,84.4,45.51"/>
        <path class="cls-5"
              d="M87.29,43.08a5.11,5.11,0,0,1,2.61-5.49C92.17,36.26,94.21,36,94.18,39a7.54,7.54,0,0,1-2,5.08c-1.2,1.2-4.52,1.59-4.81-.72"/>
        <path class="cls-6"
              d="M105.51,69.52C102,40.61,75,34.72,75,34.72a13.91,13.91,0,0,0-4.11-.3,14.84,14.84,0,0,0-4.23.3s-28.39,5.89-32.11,34.8c0,0-9.58,39.78,35.63,41v0l.76,0,.79,0v0C114.61,109.26,105.51,69.52,105.51,69.52Z"/>
        <path class="cls-7"
              d="M69.61,31.26a6.15,6.15,0,0,0-7,1.5c-1.7,1.76-1.51,4-1.07,6.26a14.8,14.8,0,0,0,2.59,5.64c1.59,2.25,4.8,6.4,8,6.15,2.28-.18,4.22-3.14,5.46-4.79,2.26-3,4-6.76,3.38-10.61a6.35,6.35,0,0,0-3-4.81c-2.43-1.34-6.49-1.84-8.3.75"/>
        <path class="cls-8"
              d="M79.18,57c-.54,4.22,1.45,7.94,4.43,8.32S89.45,62.6,90,58.38s-1.45-7.94-4.43-8.32S79.72,52.78,79.18,57Z"/>
        <path class="cls-9"
              d="M81.42,57.28c-.32,2.47.85,4.65,2.6,4.88s3.42-1.6,3.74-4.06-.85-4.66-2.6-4.88S81.74,54.81,81.42,57.28Z"/>
        <path class="cls-8"
              d="M82.16,54.56c-.15,1.13.39,2.12,1.19,2.23s1.56-.73,1.71-1.86-.39-2.13-1.19-2.23S82.3,53.43,82.16,54.56Z"/>
        <path class="cls-8"
              d="M60.92,57c.54,4.22-1.44,7.94-4.42,8.32s-5.85-2.71-6.39-6.93,1.44-7.94,4.43-8.32S60.38,52.78,60.92,57Z"/>
        <path class="cls-9"
              d="M58.69,57.28c.31,2.47-.85,4.65-2.6,4.88s-3.42-1.6-3.74-4.06.84-4.66,2.59-4.88S58.37,54.81,58.69,57.28Z"/>
        <path class="cls-8"
              d="M55,54.56c.15,1.13-.38,2.12-1.18,2.23s-1.57-.73-1.71-1.86.38-2.13,1.18-2.23S54.86,53.43,55,54.56Z"/>
        <path class="cls-10"
              d="M70.16,110.47v0l.76,0,.8,0v0c28.92-.8,34.14-18.67,34.61-30.54C98.77,71.1,85.31,65.1,70,65.1s-28.77,6-36.33,14.83C34.16,91.81,40,109.69,70.16,110.47Z"/>
        <path class="cls-9"
              d="M90.81,105.51a.57.57,0,0,1,.34-.74h0l.28-.12h0c.18-.09.46-.23.79-.43h0a11.66,11.66,0,0,0,2.43-2h0c1.77-1.9,3.56-5,3.56-10.08h0c0-.67,0-1.37-.1-2.1h0a.58.58,0,0,1,.52-.63h0a.59.59,0,0,1,.63.52h0c.07.77.1,1.51.1,2.21h0c0,10.7-7.72,13.69-7.81,13.71h0a.64.64,0,0,1-.2,0h0a.58.58,0,0,1-.54-.37Z"/>
        <path class="cls-9"
              d="M101.41,91a3.94,3.94,0,0,0-2.61-1h0a4.94,4.94,0,0,0-2.55.77h0l-.19.12h0a.58.58,0,0,1-.8-.11h0a.57.57,0,0,1,.11-.81h0a6.13,6.13,0,0,1,3.43-1.13h0a5.07,5.07,0,0,1,3.35,1.27h0a.57.57,0,0,1,.07.8h0a.56.56,0,0,1-.44.21h0a.64.64,0,0,1-.37-.13Z"/>
        <path class="cls-9"
              d="M68.14,101.33c0,.64-.73,1.15-1.62,1.15s-1.63-.51-1.63-1.15.73-1.15,1.63-1.15S68.14,100.7,68.14,101.33Z"/>
        <path class="cls-9"
              d="M76.27,101.33c0,.64-.73,1.15-1.63,1.15S73,102,73,101.33s.73-1.15,1.62-1.15S76.27,100.7,76.27,101.33Z"/>
        <path class="cls-11"
              d="M99.45,70c0,2.26-2.46,4.08-5.5,4.08S88.44,72.26,88.44,70s2.47-4.08,5.51-4.08S99.45,67.75,99.45,70Z"/>
        <path class="cls-11"
              d="M40.55,70c0,2.26,2.46,4.08,5.5,4.08s5.51-1.82,5.51-4.08-2.47-4.08-5.51-4.08S40.55,67.75,40.55,70Z"/>
    </g>
</svg>