<svg xmlns="http://www.w3.org/2000/svg" viewBox="0 0 140 140">
    <defs>
        <style>
            .cls-1{fill:#fafafa;}.cls-2{fill:#019678;}.cls-3,.cls-9{fill:#adafb3;}.cls-4{fill:#f2f2f0;}.cls-5{fill:#b7b9bd;}.cls-6{fill:#171717;}.cls-7{fill:#1a1a1a;}.cls-8{fill:#fff;}.cls-9{fill-rule:evenodd;}.cls-10{fill:#ffb0d2;}
        </style>
    </defs>
    <title>koala</title>
    <g id="Background">
        <rect class="cls-1" x="-235" y="-420" width="800" height="600"/>
    </g>
    <g id="Round_Backgrounds" data-name="Round Backgrounds">
        <circle class="cls-2" cx="70" cy="70" r="70"/>
    </g>
    <g id="Wildlife_animal_faces" data-name="Wildlife animal faces">
        <path class="cls-3"
              d="M60.28,52.45l.16-2.86c-1-.17-1.09,0-2.11-1.19-1.51-1.85-6.78-5.32-8.64-6.54a24.62,24.62,0,0,0-9.92-3.53C33,37.25,25.86,41.1,20.54,45.1c-2.75,2.07-5.68,4.46-7.32,7.52a7.87,7.87,0,0,0-1.17,3.54A5.35,5.35,0,0,0,12.12,58,7.83,7.83,0,0,0,18,64.41a6.45,6.45,0,0,0,.13,1.38c0,.06,0,.11,0,.17A7.85,7.85,0,0,0,26,73.81h.18a8.47,8.47,0,0,0,14.19,5.55,17.28,17.28,0,0,0,3.1-1.7,52.85,52.85,0,0,0,6.69-4.83A73.56,73.56,0,0,0,56,67C58.5,64,62.18,56.13,60.28,52.45Z"/>
        <path class="cls-4"
              d="M52.18,54.57l.1-1.71c-.6-.1-.65,0-1.26-.71a33.14,33.14,0,0,0-5.16-3.9A14.63,14.63,0,0,0,40,46.14c-4.06-.64-8.31,1.66-11.48,4a14.88,14.88,0,0,0-4.37,4.5,4.61,4.61,0,0,0-.71,2.1,3.35,3.35,0,0,0,.05,1.11A4.67,4.67,0,0,0,27,61.71a4.56,4.56,0,0,0,.08.82s0,.07,0,.11a4.69,4.69,0,0,0,4.68,4.68h.11a5.05,5.05,0,0,0,5,4.66,5,5,0,0,0,3.43-1.35,9.64,9.64,0,0,0,1.85-1,31.33,31.33,0,0,0,4-2.88,40.35,40.35,0,0,0,3.46-3.46C51.12,61.44,53.32,56.77,52.18,54.57Z"/>
        <path class="cls-3"
              d="M79.72,52.45l-.16-2.86c1-.17,1.09,0,2.1-1.19,1.52-1.85,6.79-5.32,8.65-6.54a24.63,24.63,0,0,1,9.91-3.53c6.8-1.08,13.92,2.77,19.24,6.77,2.75,2.07,5.68,4.46,7.32,7.52A7.87,7.87,0,0,1,128,56.16a5.35,5.35,0,0,1-.07,1.85,7.83,7.83,0,0,1-5.92,6.4,6.45,6.45,0,0,1-.13,1.38c0,.06,0,.11,0,.17A7.85,7.85,0,0,1,114,73.81h-.17a8.48,8.48,0,0,1-14.2,5.55,17.28,17.28,0,0,1-3.1-1.7,52.85,52.85,0,0,1-6.69-4.83A73.56,73.56,0,0,1,84.05,67C81.5,64,77.82,56.13,79.72,52.45Z"/>
        <path class="cls-4"
              d="M87.82,54.57l-.1-1.71c.6-.1.65,0,1.26-.71a33.14,33.14,0,0,1,5.16-3.9,14.63,14.63,0,0,1,5.91-2.11c4.06-.64,8.31,1.66,11.48,4a14.88,14.88,0,0,1,4.37,4.5,4.61,4.61,0,0,1,.71,2.1,3.35,3.35,0,0,1,0,1.11A4.67,4.67,0,0,1,113,61.71a4.56,4.56,0,0,1-.08.82s0,.07,0,.11a4.69,4.69,0,0,1-4.68,4.68h-.11a5.05,5.05,0,0,1-5,4.66,5,5,0,0,1-3.43-1.35,9.64,9.64,0,0,1-1.85-1,31.33,31.33,0,0,1-4-2.88,41.84,41.84,0,0,1-3.46-3.46C88.87,61.44,86.68,56.77,87.82,54.57Z"/>
        <path class="cls-5"
              d="M71,44c-18.51.11-33.45,13.89-33.35,30.77s15.2,30.48,33.71,30.37,33.45-13.88,33.35-30.77S89.55,43.86,71,44Z"/>
        <path class="cls-6"
              d="M62.51,81.44c-.38,5.06,2.37,6.09,6.51,6.4s8.09-.2,8.48-5.26-3-12.74-7.09-13.06S62.89,76.38,62.51,81.44Z"/>
        <path class="cls-7"
              d="M86.72,69.32a.55.55,0,0,1,.49-.6h0a9.31,9.31,0,0,0,1.51-.33h0a4,4,0,0,0,2.11-1.32h0a.55.55,0,0,1,.76-.15h0a.54.54,0,0,1,.16.76h0c-1.34,1.91-4.38,2.1-4.43,2.14h0a.55.55,0,0,1-.55-.5Z"/>
        <path class="cls-7"
              d="M85.27,67.54a.55.55,0,0,1,.27-.73h0l.39-.21h0a9,9,0,0,0,.91-.61h0A3.9,3.9,0,0,0,88.38,64h0a.55.55,0,0,1,.67-.41h0a.56.56,0,0,1,.4.67h0C88.83,66.55,86,67.75,86,67.8h0a.5.5,0,0,1-.24.06h0a.57.57,0,0,1-.5-.32Z"/>
        <path class="cls-8" d="M88.43,71.64A6.41,6.41,0,1,1,82,65.22,6.42,6.42,0,0,1,88.43,71.64Z"/>
        <path class="cls-6" d="M86,71.64a4,4,0,1,1-4-4A4,4,0,0,1,86,71.64Z"/>
        <path class="cls-8" d="M80.66,69.14a1.1,1.1,0,0,1-2.19,0,1.1,1.1,0,0,1,2.19,0Z"/>
        <path class="cls-7"
              d="M53.28,69.32a.55.55,0,0,0-.49-.6h0a9.31,9.31,0,0,1-1.51-.33h0a4,4,0,0,1-2.11-1.32h0a.55.55,0,0,0-.76-.15h0a.54.54,0,0,0-.16.76h0c1.34,1.91,4.38,2.1,4.43,2.14h0a.55.55,0,0,0,.55-.5Z"/>
        <path class="cls-7"
              d="M54.73,67.54a.55.55,0,0,0-.27-.73h0l-.39-.21h0a9,9,0,0,1-.91-.61h0A3.9,3.9,0,0,1,51.62,64h0a.55.55,0,0,0-.67-.41h0a.56.56,0,0,0-.4.67h0c.62,2.25,3.41,3.45,3.44,3.5h0a.5.5,0,0,0,.24.06h0a.57.57,0,0,0,.5-.32Z"/>
        <path class="cls-8" d="M64.39,71.64A6.41,6.41,0,1,1,58,65.22,6.42,6.42,0,0,1,64.39,71.64Z"/>
        <path class="cls-6" d="M62,71.64a4,4,0,1,1-4-4A4,4,0,0,1,62,71.64Z"/>
        <path class="cls-8"
              d="M56.62,69.14a1.09,1.09,0,0,1-1.09,1.09,1.09,1.09,0,0,1,0-2.18A1.09,1.09,0,0,1,56.62,69.14Z"/>
        <path class="cls-8" d="M67.21,74.4a1.13,1.13,0,0,0,1-2,1.13,1.13,0,0,0-1,2Z"/>
        <path class="cls-6"
              d="M69.51,92.47l0-4.46c0-.41.22-.75.5-.75h0c.28,0,.51.33.51.74h0l0,4.46c0,.41-.22.75-.5.75h0c-.28,0-.5-.33-.5-.74Z"/>
        <path class="cls-6"
              d="M61.57,91.82a.49.49,0,0,1,0-.71h0a.49.49,0,0,1,.71,0h0s.09.1.29.27h0a6.22,6.22,0,0,0,.88.63h0a6.36,6.36,0,0,0,3.28.92h0a7.34,7.34,0,0,0,3-.68h0a.51.51,0,0,1,.67.26h0a.51.51,0,0,1-.26.67h0a8.46,8.46,0,0,1-3.43.76h0a7.36,7.36,0,0,1-5.19-2.15Z"/>
        <path class="cls-6"
              d="M60.78,92.27a2,2,0,0,1,0-.36h0a1.5,1.5,0,0,1,.35-1h0a2,2,0,0,1,1.45-.6h0a.5.5,0,0,1,.54.47h0a.51.51,0,0,1-.47.54h0a1,1,0,0,0-.75.25h0a.46.46,0,0,0-.1.31h0V92h0v0h0a.5.5,0,0,1-.36.61h0l-.13,0h0a.51.51,0,0,1-.49-.38Z"/>
        <path class="cls-6"
              d="M69.81,93.21a.51.51,0,0,1-.26-.67h0a.51.51,0,0,1,.67-.26h0a7.34,7.34,0,0,0,3,.68h0a6.48,6.48,0,0,0,4.16-1.55h0a3.33,3.33,0,0,0,.29-.27h0a.49.49,0,0,1,.71,0h0a.49.49,0,0,1,0,.71h0A7.36,7.36,0,0,1,73.24,94h0a8.42,8.42,0,0,1-3.43-.76Z"/>
        <path class="cls-6"
              d="M78.6,92.63a.5.5,0,0,1-.36-.61h0v-.1h0a.46.46,0,0,0-.1-.31h0a1,1,0,0,0-.75-.25h0a.51.51,0,0,1-.47-.54h0a.5.5,0,0,1,.54-.47h0a2,2,0,0,1,1.45.6h0a1.5,1.5,0,0,1,.35,1h0a2,2,0,0,1,0,.36h0a.51.51,0,0,1-.49.38h0a.27.27,0,0,1-.13,0Z"/>
        <path class="cls-9"
              d="M76.09,44.72c-2-.72-4,.67-4.1,2.22-.45,0-3.69-.27-5.12-1.8S64.63,42.22,64,42.3a2.06,2.06,0,0,1,2.54-.62,5.44,5.44,0,0,1-2.07-3.07C64.24,37.55,63.34,35.76,62,36c.39-1.14,4.81-1.91,8.89,1.47a3.82,3.82,0,0,1-.55-2.58A9.05,9.05,0,0,1,73.82,37,9.34,9.34,0,0,1,76.09,44.72Z"/>
        <path class="cls-10"
              d="M85.76,81c0,1.93,1.95,3.5,4.37,3.5S94.5,82.94,94.5,81s-2-3.5-4.36-3.5S85.77,79.06,85.76,81Z"/>
        <path class="cls-10"
              d="M45.5,81c0,1.93,2,3.5,4.36,3.5s4.37-1.55,4.38-3.48-2-3.5-4.37-3.5S45.51,79.06,45.5,81Z"/>
    </g>
</svg>