<svg xmlns="http://www.w3.org/2000/svg" viewBox="0 0 140 140">
    <defs>
        <style>
            .cls-1{fill:#fafafa;}.cls-2{fill:#019678;}.cls-3{fill:#171717;}.cls-4{fill:#f2f2f0;}.cls-5{fill:#a7a9ac;}.cls-6{fill:#fff;}.cls-7{fill:#1a1a1a;}.cls-8{fill:#f399c0;}
        </style>
    </defs>
    <title>panda</title>
    <g id="Background">
        <rect class="cls-1" x="-235" y="-40" width="800" height="600"/>
    </g>
    <g id="Round_Backgrounds" data-name="Round Backgrounds">
        <circle class="cls-2" cx="70" cy="70" r="70"/>
    </g>
    <g id="Wildlife_animal_faces" data-name="Wildlife animal faces">
        <path class="cls-3" d="M50,45.13A12.24,12.24,0,1,1,38,32.64,12.24,12.24,0,0,1,50,45.13Z"/>
        <path class="cls-3" d="M114.5,46.44a12.24,12.24,0,1,1-12-12.48A12.24,12.24,0,0,1,114.5,46.44Z"/>
        <path class="cls-4"
              d="M110.81,72c-.41,20-19,35.79-41.54,35.33s-40.49-17-40.08-37S48.2,34.57,70.74,35,111.21,52.05,110.81,72Z"/>
        <path class="cls-5"
              d="M63.45,51.47c5,4.69,4.24,13.71-1.76,20.14s-14.95,7.84-20,3.14S37.47,61,43.48,54.61,58.43,46.77,63.45,51.47Z"/>
        <path class="cls-5"
              d="M77.08,50.91c-5.27,4.54-4.84,13.67,1,20.41s14.76,8.52,20,4,4.84-13.67-1-20.41S82.35,46.38,77.08,50.91Z"/>
        <path class="cls-3"
              d="M90,57.56a.6.6,0,0,1-.59-.61h0a.6.6,0,0,1,.61-.59h.87a7.54,7.54,0,0,0,2.35-.29h0a8.53,8.53,0,0,0,2.64-1.76h0a.59.59,0,0,1,.84.1h0a.6.6,0,0,1-.11.84h0a9.23,9.23,0,0,1-3,2h0a8.73,8.73,0,0,1-2.72.35H90Z"/>
        <path class="cls-3"
              d="M91.13,58.76h0a.59.59,0,0,1-.4-.74h0a.6.6,0,0,1,.74-.41h0a11,11,0,0,0,3,.6h.2a8.57,8.57,0,0,0,3-1h0a.59.59,0,0,1,.78.33h0a.6.6,0,0,1-.33.78h0a9.24,9.24,0,0,1-3.42,1.09h-.24a12,12,0,0,1-3.32-.65Z"/>
        <path class="cls-6" d="M94.32,62.78a7.82,7.82,0,1,1-7.81-7.84A7.82,7.82,0,0,1,94.32,62.78Z"/>
        <path class="cls-7" d="M91.39,62.77a4.89,4.89,0,1,1-4.88-4.9A4.88,4.88,0,0,1,91.39,62.77Z"/>
        <path class="cls-6" d="M84.84,59.72a1.34,1.34,0,1,1-1.33-1.33A1.33,1.33,0,0,1,84.84,59.72Z"/>
        <path class="cls-3"
              d="M50,58.27a.6.6,0,0,0,.59-.61h0a.6.6,0,0,0-.61-.59h-.87a7.85,7.85,0,0,1-2.35-.28h0A8.74,8.74,0,0,1,44.15,55h0a.59.59,0,0,0-.84.11h0a.59.59,0,0,0,.11.83h0a9.24,9.24,0,0,0,3,2h0a9,9,0,0,0,2.72.34H50Z"/>
        <path class="cls-3"
              d="M48.87,59.47h0a.59.59,0,0,0,.4-.74h0a.6.6,0,0,0-.74-.41h0a11,11,0,0,1-3,.6h-.2a8.37,8.37,0,0,1-3-1h0a.6.6,0,0,0-.78.33h0a.59.59,0,0,0,.33.78h0a9.06,9.06,0,0,0,3.42,1.09h.24a12,12,0,0,0,3.32-.65Z"/>
        <path class="cls-6" d="M61.32,63.49a7.82,7.82,0,1,1-7.81-7.84A7.82,7.82,0,0,1,61.32,63.49Z"/>
        <path class="cls-7" d="M58.39,63.48a4.89,4.89,0,1,1-4.88-4.9A4.91,4.91,0,0,1,58.39,63.48Z"/>
        <path class="cls-6" d="M51.84,60.43a1.34,1.34,0,1,1-1.33-1.33A1.34,1.34,0,0,1,51.84,60.43Z"/>
        <path class="cls-3"
              d="M62.24,77.24c-.08,3,3.38,6.81,8,6.57,5.22-.27,7.5-3.88,7.48-6.89,0-3.52-3.2-5.54-7.49-5.45S62.34,73.14,62.24,77.24Z"/>
        <path class="cls-6" d="M64.28,75.15a1.49,1.49,0,0,0,1.52,1.46,1.49,1.49,0,1,0-1.52-1.46Z"/>
        <path class="cls-3"
              d="M69.87,89.1a.64.64,0,0,1-.62-.65h0L69.36,83A.64.64,0,0,1,70,82.4h0a.65.65,0,0,1,.63.65h0l-.12,5.43a.63.63,0,0,1-.63.62h0Z"/>
        <path class="cls-3"
              d="M63.62,88.83a4.47,4.47,0,0,1-.68-1.46h0a.64.64,0,0,1,.48-.76h0a.63.63,0,0,1,.76.48h0a1.72,1.72,0,0,0,.1.29h0a2.94,2.94,0,0,0,.38.71h0a2.15,2.15,0,0,0,1.86,1h0a6,6,0,0,0,3-1.07h0a.64.64,0,0,1,.88.21h0a.63.63,0,0,1-.21.87h0a7.15,7.15,0,0,1-3.66,1.26h0a3.47,3.47,0,0,1-2.88-1.5Z"/>
        <path class="cls-3"
              d="M73.86,90.62a8.06,8.06,0,0,1-4.2-1.55h0a.63.63,0,0,1-.2-.88h0a.65.65,0,0,1,.88-.2h0a6.9,6.9,0,0,0,3.52,1.36h0a1.88,1.88,0,0,0,1.89-1.47h0a2.09,2.09,0,0,0,.06-.26h0a.63.63,0,0,1,.72-.54h0a.63.63,0,0,1,.54.72h0a3.86,3.86,0,0,1-.54,1.39h0a3,3,0,0,1-2.64,1.43h0Z"/>
        <path class="cls-8"
              d="M89.28,83c0,2.43,3,4.41,6.61,4.41s6.61-2,6.61-4.41-3-4.41-6.61-4.41S89.28,80.59,89.28,83Z"/>
        <path class="cls-8" d="M37.5,83c0,2.43,3,4.41,6.61,4.41s6.61-2,6.61-4.41-3-4.41-6.61-4.41S37.5,80.59,37.5,83Z"/>
    </g>
</svg>