<svg xmlns="http://www.w3.org/2000/svg" viewBox="0 0 140 140">
    <defs>
        <style>
            .cls-1{fill:#fafafa;}.cls-2{fill:#019678;}.cls-3{fill:#adafb3;}.cls-4{fill:#837f87;}.cls-5{fill:#b7b9bd;}.cls-6{fill:#7c7880;}.cls-7{fill:#171717;}.cls-8{fill:#fff;}.cls-9{fill:#1a1a1a;}.cls-10{fill:#ffb0d2;}
        </style>
    </defs>
    <title>panther</title>
    <g id="Background">
        <rect class="cls-1" x="-425" y="-230" width="800" height="600"/>
    </g>
    <g id="Round_Backgrounds" data-name="Round Backgrounds">
        <circle class="cls-2" cx="70" cy="70" r="70"/>
    </g>
    <g id="Wildlife_animal_faces" data-name="Wildlife animal faces">
        <path class="cls-3"
              d="M54.2,39.86c-4.4-3.16-19.69-8.79-25.1-6.07S25,49.33,25.62,54.23c.33,2.45,2.21,8.59,4.65,10,3,1.79,8.12-2.63,10.45-4.58,3.74-3.12,15.48-10.86,12.27-17-.43-.83-.39-.82-1.13-1.3"/>
        <path class="cls-4"
              d="M46.42,43.07c-2.35-1.7-9.92-4.27-12.82-2.81s-2.21,8.32-1.86,10.94c.17,1.31,1.18,4.6,2.49,5.37,1.62,1,4.34-1.41,5.59-2.45,2-1.67,8.29-5.81,6.57-9.09a1.21,1.21,0,0,0-.6-.69"/>
        <path class="cls-3"
              d="M86,38.71c4.4-3.16,19.46-8.64,24.87-5.92s4.13,15.54,3.48,20.44c-.33,2.45-2.21,8.59-4.65,10-3,1.79-8.12-2.63-10.45-4.58C95.54,55.56,83.8,47.82,87,41.71c.43-.83.39-.82,1.13-1.3"/>
        <path class="cls-4"
              d="M93.58,42.07c2.35-1.7,9.92-4.27,12.82-2.81s2.21,8.32,1.86,10.94c-.17,1.31-1.18,4.6-2.48,5.37-1.63,1-4.35-1.41-5.6-2.45-2-1.67-8.29-5.81-6.57-9.09a1.21,1.21,0,0,1,.6-.69"/>
        <path class="cls-5"
              d="M111.57,71.83c0,19.94-18.61,36.11-41.57,36.11S28.43,91.77,28.43,71.83,47,35.71,70,35.71,111.57,51.88,111.57,71.83Z"/>
        <path class="cls-6"
              d="M98.68,59.54A21.18,21.18,0,0,0,88,53c-4.59-1.29-10.59.41-10.59.41a30.5,30.5,0,0,1-14.27,0c-6.55-1.9-11.2-.61-13.22.22a21.74,21.74,0,0,0-8.6,5.94c-6.69,7.46-7.38,17.74-1.54,23s17.32,4,24-3.46c1.23-1.37.91-3.42,1.73-4.93l8.69-.52c.86,1.7-.5,2.86.87,4.39,6.69,7.46,19.31,9.75,25.15,4.52S105.37,67,98.68,59.54Z"/>
        <path class="cls-4" d="M59.64,80.64s7.59-6.36,20,.22l-1-9.38H56.74Z"/>
        <path class="cls-7"
              d="M69.28,89.47V84a.68.68,0,0,1,.68-.67h0a.67.67,0,0,1,.68.67h0v5.44a.67.67,0,0,1-.68.68h0a.68.68,0,0,1-.68-.68Z"/>
        <path class="cls-7"
              d="M66.77,91a7.87,7.87,0,0,1-5.24-2.06h0a.69.69,0,0,1,0-1h0a.69.69,0,0,1,1,0h0a2.07,2.07,0,0,0,.28.24h0a5.62,5.62,0,0,0,.87.58h0a6.32,6.32,0,0,0,3.13.85h0a6.78,6.78,0,0,0,2.87-.67h0a.68.68,0,0,1,.9.32h0a.7.7,0,0,1-.33.91h0a8.11,8.11,0,0,1-3.43.79h0Z"/>
        <path class="cls-7"
              d="M69.79,90.16a.69.69,0,0,1-.33-.91h0a.68.68,0,0,1,.9-.32h0a6.78,6.78,0,0,0,2.87.67h0a6.6,6.6,0,0,0,4-1.43h0c.2-.16.28-.24.28-.24h0a.69.69,0,0,1,1,0h0a.69.69,0,0,1,0,1h0A7.87,7.87,0,0,1,73.23,91h0a8.08,8.08,0,0,1-3.43-.79Z"/>
        <path class="cls-7"
              d="M62.21,78.06c-.13,3,3.26,6.89,7.94,6.75,5.24-.16,7.59-3.73,7.64-6.75.06-3.53-3.1-5.62-7.4-5.62S62.4,74,62.21,78.06Z"/>
        <path class="cls-8" d="M64.31,76a1.5,1.5,0,1,0,1.49-1.5A1.49,1.49,0,0,0,64.31,76Z"/>
        <path class="cls-9"
              d="M90.66,66.58a.68.68,0,0,1,.06-1h0l2.61-2.33a.68.68,0,0,1,1,.06h0a.68.68,0,0,1-.05.95h0l-2.62,2.34a.7.7,0,0,1-.45.17h0a.68.68,0,0,1-.51-.23Z"/>
        <path class="cls-9"
              d="M88.34,65.16a.67.67,0,0,1-.32-.9h0l1.49-3.17a.68.68,0,0,1,.9-.32h0a.67.67,0,0,1,.32.9h0l-1.49,3.17a.67.67,0,0,1-.61.39h0a.62.62,0,0,1-.29-.07Z"/>
        <path class="cls-9"
              d="M85.57,64.27l-.39-3.47a.68.68,0,0,1,.6-.75h0a.68.68,0,0,1,.75.6h0l.39,3.47a.68.68,0,0,1-.6.75h-.08a.68.68,0,0,1-.67-.61Z"/>
        <path class="cls-8" d="M94,70.91a7.24,7.24,0,1,1-7.22-7.26A7.23,7.23,0,0,1,94,70.91Z"/>
        <path class="cls-9" d="M91.3,70.9a4.53,4.53,0,1,1-4.52-4.53A4.52,4.52,0,0,1,91.3,70.9Z"/>
        <path class="cls-8" d="M85.24,68.08A1.24,1.24,0,1,1,84,66.85,1.24,1.24,0,0,1,85.24,68.08Z"/>
        <path class="cls-9"
              d="M49.34,66.58a.68.68,0,0,0-.06-1h0l-2.61-2.33a.68.68,0,0,0-1,.06h0a.68.68,0,0,0,0,.95h0l2.62,2.34a.7.7,0,0,0,.45.17h0a.68.68,0,0,0,.51-.23Z"/>
        <path class="cls-9"
              d="M51.66,65.16a.67.67,0,0,0,.32-.9h0l-1.49-3.17a.68.68,0,0,0-.9-.32h0a.67.67,0,0,0-.32.9h0l1.49,3.17a.67.67,0,0,0,.61.39h0a.62.62,0,0,0,.29-.07Z"/>
        <path class="cls-9"
              d="M54.43,64.27l.39-3.47a.68.68,0,0,0-.6-.75h0a.68.68,0,0,0-.75.6h0l-.39,3.47a.68.68,0,0,0,.6.75h.08a.68.68,0,0,0,.67-.61Z"/>
        <path class="cls-8" d="M60.46,70.91a7.24,7.24,0,1,1-7.22-7.26A7.24,7.24,0,0,1,60.46,70.91Z"/>
        <path class="cls-9" d="M57.75,70.9a4.53,4.53,0,1,1-4.52-4.53A4.53,4.53,0,0,1,57.75,70.9Z"/>
        <path class="cls-8" d="M51.69,68.08a1.24,1.24,0,0,1-2.47,0,1.24,1.24,0,0,1,2.47,0Z"/>
        <path class="cls-10"
              d="M88.31,84.81c0,2.24,2.27,4.06,5.07,4.06s5.07-1.81,5.08-4.05-2.27-4.06-5.07-4.06S88.32,82.57,88.31,84.81Z"/>
        <path class="cls-10"
              d="M41.54,84.81c0,2.24,2.27,4.06,5.07,4.06s5.07-1.81,5.08-4.05-2.27-4.06-5.07-4.06S41.55,82.57,41.54,84.81Z"/>
    </g>
</svg>