<svg xmlns="http://www.w3.org/2000/svg" viewBox="0 0 140 140">
    <defs>
        <style>
            .cls-1{fill:#fafafa;}.cls-2{fill:#5f5494;}.cls-3{fill:#aebac9;}.cls-4{fill:#8599ad;}.cls-5{fill:#a9b5c4;}.cls-6{fill:#171717;}.cls-7{fill:#fff;}.cls-8{fill:#1a1a1a;}.cls-9{fill:#ced5e0;}.cls-10{fill:#acb2bd;}.cls-11{fill:#fdffe9;fill-rule:evenodd;}
        </style>
    </defs>
    <title>rhinoceros</title>
    <g id="Background">
        <rect class="cls-1" x="-45" y="-230" width="800" height="600"/>
    </g>
    <g id="Round_Backgrounds" data-name="Round Backgrounds">
        <circle class="cls-2" cx="70" cy="70" r="70"/>
    </g>
    <g id="Wildlife_animal_faces" data-name="Wildlife animal faces">
        <path class="cls-3" d="M50.21,42.69c-3.57-3.35-13.83-8.81-11.89,1.79,1.35,7.38,12,7.84,12.68-.3"/>
        <path class="cls-4" d="M47.6,43.63c-1.77-1.56-6.84-4.11-5.88.83.66,3.44,5.94,3.66,6.27-.14"/>
        <path class="cls-3" d="M91.36,42.69c3.57-3.35,13.83-8.81,11.89,1.79-1.35,7.38-12,7.84-12.68-.3"/>
        <path class="cls-4" d="M94,43.63c1.77-1.56,6.85-4.11,5.89.83-.67,3.44-6,3.66-6.28-.14"/>
        <path class="cls-5"
              d="M104.41,67.69c1.41,18.28-15.31,32-34.18,32S36.12,87.48,36.12,69.8,51.35,35.68,70.23,35.68,103,50.06,104.41,67.69Z"/>
        <path class="cls-6"
              d="M87.14,52.34a.44.44,0,0,1,.3-.55h0l.18-.07h0a4.82,4.82,0,0,0,.52-.28h0a3.6,3.6,0,0,0,1.25-1.39h0a.44.44,0,0,1,.6-.19h0a.44.44,0,0,1,.19.59h0a4.48,4.48,0,0,1-2.49,2.19h0l-.13,0h0a.44.44,0,0,1-.42-.32Z"/>
        <path class="cls-6"
              d="M85.7,50.54A.45.45,0,0,1,86,50h0l.21-.09h0c.13-.07.33-.18.54-.32h0a3.88,3.88,0,0,0,1.22-1.31h0a.44.44,0,0,1,.6-.19h0a.44.44,0,0,1,.18.6h0a5.13,5.13,0,0,1-2.43,2.14h0a.41.41,0,0,1-.16,0h0a.44.44,0,0,1-.41-.28Z"/>
        <path class="cls-7" d="M88.34,54.23a5.79,5.79,0,1,1-5.78-5.8A5.79,5.79,0,0,1,88.34,54.23Z"/>
        <path class="cls-8" d="M86.17,54.22a3.62,3.62,0,1,1-3.61-3.62A3.6,3.6,0,0,1,86.17,54.22Z"/>
        <path class="cls-7" d="M81.33,52a1,1,0,0,1-1,1,1,1,0,0,1,0-2A1,1,0,0,1,81.33,52Z"/>
        <path class="cls-6"
              d="M52.86,52.34a.44.44,0,0,0-.3-.55h0l-.18-.07h0a4.82,4.82,0,0,1-.52-.28h0a3.6,3.6,0,0,1-1.25-1.39h0a.44.44,0,0,0-.6-.19h0a.44.44,0,0,0-.19.59h0a4.48,4.48,0,0,0,2.49,2.19h0l.13,0h0a.44.44,0,0,0,.42-.32Z"/>
        <path class="cls-6"
              d="M54.3,50.54a.45.45,0,0,0-.25-.58h0l-.21-.09h0c-.13-.07-.33-.18-.54-.32h0a3.88,3.88,0,0,1-1.22-1.31h0a.44.44,0,0,0-.6-.19h0a.44.44,0,0,0-.18.6h0a5.13,5.13,0,0,0,2.43,2.14h0a.41.41,0,0,0,.16,0h0a.44.44,0,0,0,.41-.28Z"/>
        <path class="cls-7" d="M63.23,54.23a5.79,5.79,0,1,1-5.78-5.8A5.79,5.79,0,0,1,63.23,54.23Z"/>
        <path class="cls-8" d="M61.06,54.22a3.62,3.62,0,1,1-3.61-3.62A3.6,3.6,0,0,1,61.06,54.22Z"/>
        <path class="cls-7" d="M56.22,52a1,1,0,0,1-1,1,1,1,0,0,1,0-2A1,1,0,0,1,56.22,52Z"/>
        <path class="cls-9"
              d="M104.48,96.64c-5.52,5.23-11.66,7-19,7.76-14.66,1.47-37.63,1.57-49.11-7.2-7.59-5.8-8.16-17.88-2.92-25,6.56-9,19-9.7,29.43-9.36,11.07.36,22.8-1.41,33.44,2.53,8.74,3.24,14.5,10.24,13.6,19.27C109.37,90,107.39,93.88,104.48,96.64Z"/>
        <path class="cls-9" d="M60.64,62.83a5.47,5.47,0,1,1-5.45-5.08A5.27,5.27,0,0,1,60.64,62.83Z"/>
        <path class="cls-9" d="M91.08,62.83a5.47,5.47,0,1,1-5.46-5.08A5.27,5.27,0,0,1,91.08,62.83Z"/>
        <path class="cls-10" d="M57.6,62.07a2.29,2.29,0,1,1-2.29-2.29A2.29,2.29,0,0,1,57.6,62.07Z"/>
        <path class="cls-10" d="M87.78,62.07a2.29,2.29,0,1,1-2.28-2.29A2.28,2.28,0,0,1,87.78,62.07Z"/>
        <path class="cls-6"
              d="M66.7,85C53,84.8,46,83.37,42.3,81.93h0c-3.64-1.41-4.07-3-4.08-3.38h0a.77.77,0,0,1,.72-.82h0a.77.77,0,0,1,.82.66h0a.08.08,0,0,0,0,0h0a1.51,1.51,0,0,0,.28.4h0a7.55,7.55,0,0,0,2.82,1.68h0c3.36,1.32,10.22,2.76,23.86,3h1.06c4.23,0,20.12-.17,28.11-2.31h0c2.68-.67,4.31-1.75,4.36-2.37h0a.77.77,0,0,1,.93-.57h0a.77.77,0,0,1,.57.93h0c-.57,1.88-2.69,2.71-5.46,3.5h0a64.79,64.79,0,0,1-10.16,1.6h0c-7.48.69-15.49.76-18.35.76H66.7Z"/>
        <path class="cls-5"
              d="M69.72,36.64a.77.77,0,0,1-.68-.86h0a3.37,3.37,0,0,0,0-.57h0a11.32,11.32,0,0,0-1-4.46h0c-.69-1.47-1.62-2.37-2.66-2.35h0a1.75,1.75,0,0,0-.44.05h0c-.73.15-1.25.69-1.22,1.19h0a1.19,1.19,0,0,0,.07.39h0c.14.35.23.41.35.47h0a1.62,1.62,0,0,0,.74.11h.25a.76.76,0,0,1,.78.76h0a.76.76,0,0,1-.76.78h-.27a3.28,3.28,0,0,1-1.44-.27h0a2.3,2.3,0,0,1-1.1-1.31h0a2.6,2.6,0,0,1-.17-.94h0a2.9,2.9,0,0,1,2.46-2.71h0a3.91,3.91,0,0,1,.75-.08h0c2,0,3.29,1.58,4.06,3.24h0a13.1,13.1,0,0,1,1.17,5.12h0c0,.26,0,.51,0,.75h0a.78.78,0,0,1-.77.68h-.09Z"/>
        <path class="cls-5"
              d="M69.64,36a5.86,5.86,0,0,1,0-.75h0a12.82,12.82,0,0,1,1.16-5.11h0c.77-1.67,2.06-3.23,4.06-3.25h0a3.91,3.91,0,0,1,.75.08h0A2.9,2.9,0,0,1,78,29.64h0a2.35,2.35,0,0,1-.17.93h0a2.29,2.29,0,0,1-1.1,1.32h0a3.26,3.26,0,0,1-1.43.27h-.28a.76.76,0,0,1-.76-.78h0a.77.77,0,0,1,.79-.76h.25a1.68,1.68,0,0,0,.74-.11h0c.11-.06.21-.13.34-.46h0a1.25,1.25,0,0,0,.07-.4h0c0-.5-.49-1-1.22-1.19h0a1.75,1.75,0,0,0-.44-.05h0c-1,0-2,.89-2.66,2.35h0a11.32,11.32,0,0,0-1,4.46h0a4.67,4.67,0,0,0,0,.57h0a.78.78,0,0,1-.68.86h-.09a.77.77,0,0,1-.77-.68Z"/>
        <path class="cls-11"
              d="M64.13,64c0-5.28,4.61-18.26,5.87-18.26s5.87,13,5.87,18.26c0,4.4-2.93,5.74-5.87,5.74S64.13,68.41,64.13,64Z"/>
    </g>
</svg>