<svg xmlns="http://www.w3.org/2000/svg" viewBox="0 0 140 140">
    <defs>
        <style>
            .cls-1{fill:#fafafa;}.cls-2{fill:#e83942;}.cls-3{fill:#fba017;}.cls-4{fill:#ef7c01;}.cls-5{fill:#fbae17;}.cls-6{fill:#f072ab;}.cls-7{fill:#492d2c;}.cls-8{fill:#fff;}.cls-9{fill:#1a1a1a;}.cls-10{fill:#ffc657;}.cls-11{fill:#be1e2d;}.cls-12{fill:#fefff5;}
        </style>
    </defs>
    <title>tiger</title>
    <g id="Background">
        <rect class="cls-1" x="-235" y="-230" width="800" height="600"/>
    </g>
    <g id="Round_Backgrounds" data-name="Round Backgrounds">
        <circle class="cls-2" cx="70" cy="70" r="70"/>
    </g>
    <g id="Wildlife_animal_faces" data-name="Wildlife animal faces">
        <path class="cls-3" d="M47.22,45.8A11.11,11.11,0,1,1,36.13,34.67,11.1,11.1,0,0,1,47.22,45.8Z"/>
        <path class="cls-4" d="M41.67,45.79a5.56,5.56,0,1,1-5.55-5.56A5.57,5.57,0,0,1,41.67,45.79Z"/>
        <path class="cls-3" d="M92.78,45.88a11.11,11.11,0,1,0,11.13-11.09A11.11,11.11,0,0,0,92.78,45.88Z"/>
        <path class="cls-4" d="M98.33,45.89a5.56,5.56,0,1,0,5.57-5.55A5.55,5.55,0,0,0,98.33,45.89Z"/>
        <path class="cls-5"
              d="M113.24,70.26c0,20.4-19.42,36.9-43.3,36.86s-43.21-16.61-43.18-37,19.42-36.9,43.3-36.86S113.27,49.86,113.24,70.26Z"/>
        <path class="cls-6"
              d="M91.31,74.76c0,2.25,2.27,4.07,5.07,4.07s5.07-1.81,5.08-4-2.27-4.06-5.07-4.07S91.32,72.52,91.31,74.76Z"/>
        <path class="cls-6"
              d="M38.54,74.76c0,2.25,2.27,4.07,5.07,4.07s5.07-1.81,5.08-4-2.27-4.06-5.07-4.07S38.55,72.52,38.54,74.76Z"/>
        <path class="cls-7"
              d="M80.54,37.79A21.43,21.43,0,0,0,74.92,36c.06-.84.12-1.71.18-2.63a25.27,25.27,0,0,0-4.61-.44,25.66,25.66,0,0,0-5.53.6c.06.79.12,1.62.19,2.48a21.22,21.22,0,0,0-5.52,1.79s-3,1.48-2.75,2.91c0,0,0,2.08,5.62,1.25l3.23-.31c.13.93.26,1.85.41,2.75a18,18,0,0,0-4.55,1.49S59,47.11,59.26,48.32c0,0,0,1.76,4.77,1l3.16-.3c.77,2.58,1.76,4.37,3.06,4.54,0,0,1.4.33,2.76-4.6l3.87.38c4.77.73,4.78-1,4.78-1,.22-1.21-2.33-2.47-2.33-2.47A18.17,18.17,0,0,0,74,44.22c.13-.8.25-1.67.37-2.61l3.29.32c5.61.86,5.62-1.22,5.62-1.22C83.54,39.28,80.54,37.79,80.54,37.79Z"/>
        <path class="cls-7"
              d="M36.39,76.71s.6-2.56-9.9-4.41a31.66,31.66,0,0,0,1.45,7.59C31.86,79.6,36.05,78.79,36.39,76.71Z"/>
        <path class="cls-7"
              d="M37.37,81.57s-.77-2.15-8.83.05a34.26,34.26,0,0,0,3.37,6.57C35.1,86.15,38.22,83.54,37.37,81.57Z"/>
        <path class="cls-7"
              d="M103.27,76.82c.35,2.08,4.63,2.9,8.62,3.22a31.25,31.25,0,0,0,1.51-7.59C102.67,74.26,103.27,76.82,103.27,76.82Z"/>
        <path class="cls-7"
              d="M102.26,81.68c-.88,2,2.3,4.59,5.55,6.65a34.38,34.38,0,0,0,3.46-6.57C103.06,79.53,102.26,81.68,102.26,81.68Z"/>
        <path class="cls-8" d="M94.86,63.74a8.12,8.12,0,1,1-8.1-8.14A8.12,8.12,0,0,1,94.86,63.74Z"/>
        <path class="cls-9" d="M91.82,63.73a5.08,5.08,0,1,1-5.07-5.08A5.09,5.09,0,0,1,91.82,63.73Z"/>
        <path class="cls-8" d="M85,60.57a1.39,1.39,0,1,1-1.38-1.39A1.38,1.38,0,0,1,85,60.57Z"/>
        <path class="cls-8" d="M61.37,63.74a8.12,8.12,0,1,1-8.1-8.14A8.11,8.11,0,0,1,61.37,63.74Z"/>
        <path class="cls-9" d="M58.33,63.73a5.08,5.08,0,1,1-5.07-5.08A5.09,5.09,0,0,1,58.33,63.73Z"/>
        <path class="cls-8" d="M51.53,60.57a1.38,1.38,0,1,1-1.38-1.39A1.38,1.38,0,0,1,51.53,60.57Z"/>
        <path class="cls-10"
              d="M90.19,80.47c0,10-9.44,18-20.21,18S49.8,90.55,49.81,80.58,59.28,62.3,70,62.31,90.2,70.5,90.19,80.47Z"/>
        <path class="cls-7"
              d="M64.06,68.91c-.1,2.3,2.49,5.26,6.06,5.15,4-.14,5.79-2.86,5.83-5.17,0-2.69-2.38-4.29-5.66-4.28S64.19,65.77,64.06,68.91Z"/>
        <path class="cls-8" d="M65.65,67.34a1.15,1.15,0,0,0,2.29,0,1.15,1.15,0,0,0-2.29,0Z"/>
        <path class="cls-11"
              d="M83.24,77.43a1.4,1.4,0,0,0-1.4-1.27l-23.66,0a1.42,1.42,0,0,0-1.41,1.31c0,.37,0,.74,0,1.09a10.33,10.33,0,0,0,1.87,6.27A11.8,11.8,0,0,0,65.12,89a20.06,20.06,0,0,0,4.95.68h.5c5.57,0,9-2.12,10.74-4.72a12.05,12.05,0,0,0,2-6.68A7,7,0,0,0,83.24,77.43Z"/>
        <path class="cls-12" d="M60.59,76s.45,4.28,2.21,4c0,0,1.72.22,2-4Z"/>
        <path class="cls-12" d="M79.41,76s-.46,4.27-2.23,4c0,0-1.71.21-2-4Z"/>
    </g>
</svg>