<svg xmlns="http://www.w3.org/2000/svg" viewBox="0 0 140 140">
    <defs>
        <style>
            .cls-1{fill:#fafafa;}.cls-2{fill:#fbae17;}.cls-3{fill:#e6e6e6;}.cls-4{fill:#b3b3b3;}.cls-5{fill:#fff;}.cls-6{fill:#1a1a1a;}.cls-7{fill:#171717;}.cls-8{fill:#696969;}.cls-9{fill:#ffb0d2;}
        </style>
    </defs>
    <title>zebra</title>
    <g id="Background">
        <rect class="cls-1" x="-615" y="-420" width="800" height="600"/>
    </g>
    <g id="Round_Backgrounds" data-name="Round Backgrounds">
        <circle class="cls-2" cx="70" cy="70" r="70"/>
    </g>
    <g id="Wildlife_animal_faces" data-name="Wildlife animal faces">
        <path class="cls-3"
              d="M57.51,46.25c-2.55-1.37-7.33-5.36-10-7.74-1.82-1.62-3.66-4.25-5.74-2.19-1.46,1.45-1.39,5-1.39,6.89,0,4.51,1.77,9.19,6.53,10.51,4,1.13,9.59-1.37,9.66-6"/>
        <path class="cls-4"
              d="M53,46.16a41.43,41.43,0,0,1-5.54-4.28c-1-.89-2-2.35-3.17-1.21-.81.8-.76,2.75-.76,3.81,0,2.49,1,5.08,3.6,5.81,2.24.63,5.31-.76,5.35-3.3"/>
        <path class="cls-3"
              d="M83.45,46.25c2.55-1.37,7.34-5.36,10-7.74,1.82-1.62,3.66-4.25,5.74-2.19,1.46,1.45,1.38,5,1.38,6.89,0,4.51-1.76,9.19-6.52,10.51-4,1.13-9.6-1.37-9.67-6"/>
        <path class="cls-4"
              d="M88,46.16a40.75,40.75,0,0,0,5.53-4.28c1-.89,2-2.35,3.18-1.21.8.8.76,2.75.76,3.81,0,2.49-1,5.08-3.61,5.81-2.23.63-5.3-.76-5.34-3.3"/>
        <path class="cls-3"
              d="M106.2,73.29C102.7,44.67,76,38.83,76,38.83a13.7,13.7,0,0,0-4.08-.3,14.51,14.51,0,0,0-4.18.3s-28.12,5.84-31.8,34.46c0,0-9.48,39.4,35.28,40.55v0h1.54v0C115.21,112.64,106.2,73.29,106.2,73.29Z"/>
        <path class="cls-5"
              d="M61.9,61.45c.53,4.18-1.43,7.86-4.39,8.24S51.73,67,51.19,62.83s1.43-7.86,4.39-8.24S61.36,57.28,61.9,61.45Z"/>
        <path class="cls-6"
              d="M59.68,61.74c.32,2.44-.83,4.61-2.57,4.83s-3.39-1.58-3.7-4,.83-4.6,2.57-4.83S59.37,59.29,59.68,61.74Z"/>
        <path class="cls-5"
              d="M56.05,59.32c.09.73-.25,1.38-.78,1.45s-1-.48-1.11-1.21.25-1.39.77-1.46S56,58.58,56.05,59.32Z"/>
        <path class="cls-5"
              d="M78.1,61.45c-.53,4.18,1.43,7.86,4.39,8.24s5.78-2.69,6.32-6.86S87.38,55,84.42,54.59,78.64,57.28,78.1,61.45Z"/>
        <path class="cls-6"
              d="M80.32,61.74c-.32,2.44.83,4.61,2.57,4.83s3.39-1.58,3.7-4-.83-4.6-2.57-4.83S80.63,59.29,80.32,61.74Z"/>
        <path class="cls-5"
              d="M81.07,59.32c-.1.73.25,1.38.77,1.45s1-.48,1.12-1.21-.25-1.39-.78-1.46S81.16,58.58,81.07,59.32Z"/>
        <path class="cls-7"
              d="M77.66,39.33a5,5,0,0,1,.15,2.5A4.66,4.66,0,0,1,76.93,44a7.72,7.72,0,0,1-3.66,2.68,12.3,12.3,0,0,1-2.67.61C66.53,47.7,61,47,59,42.87a9.52,9.52,0,0,1-.92-3.22,11.49,11.49,0,0,1,2.75-8.27,16,16,0,0,1,7.37-4.59A15.75,15.75,0,0,1,73,26.14c3.54.19,7.29,1.28,9.67,4.07A17.25,17.25,0,0,1,86.4,38a21.82,21.82,0,0,1,.3,5.29,52.69,52.69,0,0,0-8.94-3.93"/>
        <path class="cls-8"
              d="M70,26.37a18.25,18.25,0,0,0-1.83.42,16,16,0,0,0-7.37,4.59,9.48,9.48,0,0,0-.79,1c0,5,4.71,9.2,9,9.68,2.78.4,5.84,1.07,8.59.47a4.29,4.29,0,0,0,.16-.71c0-.2.06-.54.08-.91C72.72,38.27,68.89,32.38,70,26.37Z"/>
        <path class="cls-8"
              d="M79.56,27.77a28.42,28.42,0,0,0-.92,11.87c.89.31,1.77.65,2.68,1A21.17,21.17,0,0,1,85,33.72a16.67,16.67,0,0,0-2.28-3.51A10.24,10.24,0,0,0,79.56,27.77Z"/>
        <path class="cls-8" d="M79,39.78l.21.08a.16.16,0,0,0,0-.07Z"/>
        <path class="cls-9"
              d="M43.58,65.65c-2.91,0-5.28,1.95-5.28,4.35s2.37,4.35,5.28,4.35S48.87,72.4,48.87,70,46.5,65.65,43.58,65.65Z"/>
        <path class="cls-9"
              d="M96.42,65.65c-2.92,0-5.29,1.95-5.29,4.35s2.37,4.35,5.29,4.35S101.7,72.4,101.7,70,99.33,65.65,96.42,65.65Z"/>
        <path class="cls-3" d="M71.17,113.84h0v0h0v0Z"/>
        <path class="cls-3" d="M71.94,113.86h0Z"/>
        <path class="cls-8" d="M71.2,113.87Z"/>
        <path class="cls-8"
              d="M106.88,84.94c-6.11-8.36-20.14-14.44-35.17-14.09a49.71,49.71,0,0,0-36.18,17c1.75,11.35,9.29,25.3,35.64,26h0v0h1.53v0C99.94,113.07,106,96.65,106.88,84.94Z"/>
        <path class="cls-7"
              d="M67.26,97.17c0,1-1.12,1.78-2.51,1.78s-2.52-.79-2.52-1.78,1.13-1.77,2.52-1.77S67.26,96.19,67.26,97.17Z"/>
        <path class="cls-7"
              d="M79.84,97.17c0,1-1.13,1.78-2.52,1.78s-2.51-.79-2.51-1.78,1.12-1.77,2.51-1.77S79.84,96.19,79.84,97.17Z"/>
        <path class="cls-7"
              d="M83.49,112.12a.55.55,0,0,1,.34-.69h0a2.78,2.78,0,0,0,.3-.12h0a8.08,8.08,0,0,0,.83-.42h0a11.06,11.06,0,0,0,2.57-2h0c1.87-1.94,3.76-5.16,3.76-10.5h0q0-.63,0-1.32h0a.53.53,0,0,1,.51-.57h0a.55.55,0,0,1,.58.51h0c0,.48,0,.94,0,1.38h0c0,11.25-8.12,14.07-8.21,14.08h0a.51.51,0,0,1-.17,0h0a.56.56,0,0,1-.52-.38Z"/>
        <path class="cls-7"
              d="M94.48,98.14a4,4,0,0,0-2.71-1.09h0a5.07,5.07,0,0,0-2.43.69h0l-.18.11h0a.54.54,0,0,1-.76-.13h0a.54.54,0,0,1,.13-.76h0a6,6,0,0,1,3.24-1h0a5.06,5.06,0,0,1,3.44,1.37h0a.55.55,0,0,1,0,.77h0a.55.55,0,0,1-.41.18h0a.5.5,0,0,1-.36-.14Z"/>
        <path class="cls-7" d="M45,76.53S41.32,76,35.1,80c0,1.25-.05,2.62,0,4.08A32.23,32.23,0,0,1,45,76.53Z"/>
        <path class="cls-7" d="M35.68,74.44c-.12.72-.28,1.75-.4,3a32.79,32.79,0,0,1,9.3-3.1S41.7,73,35.68,74.44Z"/>
        <path class="cls-7"
              d="M96.9,74.83A32,32,0,0,1,107,82.62c0-1.58,0-3-.11-4.29C100.62,74.24,96.9,74.83,96.9,74.83Z"/>
        <path class="cls-7"
              d="M106.12,72.71c-5.94-1.41-8.78,0-8.78,0a32.8,32.8,0,0,1,9.27,3.09c-.2-1.54-.41-2.46-.41-2.46C106.18,73.09,106.15,72.9,106.12,72.71Z"/>
        <path class="cls-3" d="M33.45,91.39a1.56,1.56,0,0,1,.16.2A1.56,1.56,0,0,0,33.45,91.39Z"/>
        <path class="cls-3" d="M33.84,91.9l.21.3C34,92.1,33.92,92,33.84,91.9Z"/>
        <path class="cls-8" d="M33.61,91.59l.23.31Z"/>
        <path class="cls-8" d="M34.05,92.2a2.53,2.53,0,0,1,.13.22A2.53,2.53,0,0,0,34.05,92.2Z"/>
        <path class="cls-8" d="M33,90.9a5.23,5.23,0,0,1,.45.49A5.23,5.23,0,0,0,33,90.9Z"/>
    </g>
</svg>