<svg xmlns:xlink="http://www.w3.org/1999/xlink" id="Layer_1" data-name="Layer 1" xmlns="http://www.w3.org/2000/svg"
     viewBox="0 0 705.61 193.73">
    <defs>
        <style>
            .cls-1{fill:#2c1521;}.cls-2{fill:url(#radial-gradient);}.cls-3{fill:#faa41a;}.cls-4{fill:url(#radial-gradient-2);}.cls-5{fill:url(#radial-gradient-3);}.cls-6{fill:#54aab0;}.cls-7{fill:url(#radial-gradient-4);}.cls-8{fill:#ffe2b4;}.cls-9{fill:url(#radial-gradient-5);}.cls-10{fill:#2d1237;}.cls-11{fill:url(#radial-gradient-6);}.cls-12{fill:url(#radial-gradient-7);}.cls-13{fill:#eee;}
        </style>
        <radialGradient id="radial-gradient" cx="1328.77" cy="-1249.99" r="35.38"
                        gradientTransform="matrix(-1, 0, 0, 1, 1444.08, 1283.97)" gradientUnits="userSpaceOnUse">
            <stop offset="0.28" stop-color="#54aab0"/>
            <stop offset="0.41" stop-color="#54a6ac"/>
            <stop offset="0.51" stop-color="#539ca4"/>
            <stop offset="0.6" stop-color="#528d98"/>
            <stop offset="0.69" stop-color="#4f7988"/>
            <stop offset="0.77" stop-color="#496073"/>
            <stop offset="0.84" stop-color="#40445c"/>
            <stop offset="0.92" stop-color="#342544"/>
            <stop offset="0.95" stop-color="#2d1237"/>
        </radialGradient>
        <radialGradient id="radial-gradient-2" cx="-2437.95" cy="2184.87" r="13.7"
                        gradientTransform="matrix(0.71, -0.71, -0.71, -0.71, 3409.64, -102.34)"
                        gradientUnits="userSpaceOnUse">
            <stop offset="0" stop-color="#5d3c4c"/>
            <stop offset="0.14" stop-color="#583948"/>
            <stop offset="0.4" stop-color="#4a2e3c"/>
            <stop offset="0.76" stop-color="#321b27"/>
            <stop offset="0.84" stop-color="#2c1521"/>
        </radialGradient>
        <radialGradient id="radial-gradient-3" cx="62.52" cy="-1212.2" r="49.2" gradientTransform="translate(0 1283.97)"
                        gradientUnits="userSpaceOnUse">
            <stop offset="0" stop-color="#5d3c4c"/>
            <stop offset="0.15" stop-color="#5b3b4b"/>
            <stop offset="0.3" stop-color="#573847"/>
            <stop offset="0.45" stop-color="#503341"/>
            <stop offset="0.59" stop-color="#462b38"/>
            <stop offset="0.74" stop-color="#38202d"/>
            <stop offset="0.84" stop-color="#2c1521"/>
        </radialGradient>
        <radialGradient id="radial-gradient-4" cx="-2471.79" cy="2261.14" r="16.01"
                        gradientTransform="matrix(0.71, -0.71, -0.71, -0.71, 3409.64, -102.34)"
                        xlink:href="#radial-gradient-3"/>
        <radialGradient id="radial-gradient-5" cx="89.46" cy="-1174.29" r="21.75"
                        gradientTransform="translate(0 1283.97)" gradientUnits="userSpaceOnUse">
            <stop offset="0.32" stop-color="#faa41a"/>
            <stop offset="0.61" stop-color="#f6a11b"/>
            <stop offset="0.72" stop-color="#ec981e"/>
            <stop offset="0.79" stop-color="#df8b20"/>
            <stop offset="0.86" stop-color="#cf7b22"/>
            <stop offset="0.91" stop-color="#bb6722"/>
            <stop offset="0.93" stop-color="#b35e22"/>
        </radialGradient>
        <radialGradient id="radial-gradient-6" cx="-2533.17" cy="2257.96" r="19.12"
                        gradientTransform="matrix(0.71, -0.71, -0.71, -0.71, 3409.64, -102.34)"
                        xlink:href="#radial-gradient-3"/>
        <radialGradient id="radial-gradient-7" cx="-2472.5" cy="2141.2" r="41.14"
                        gradientTransform="matrix(0.71, -0.71, -0.71, -0.71, 3409.64, -102.34)"
                        xlink:href="#radial-gradient-3"/>
    </defs>
    <title>logo-white</title>
    <path class="cls-1"
          d="M149.41,27.13c-5.8.7-8,4.3-16.9,4.5-3.9.1-6.4-.6-10.3.8-1.4.5-4,1.7-8.4,6-6,6-5.9,8.9-11.1,14.9-3.4,3.9-8.4,9.3-11.8,8.5-7-1.6-7.5-10.3-5-20,2-8-3.4-12.3-9.4-7.1a17.4,17.4,0,0,1-4.8,3.1c-12.1,4.2-13.9-9.4-27.2-2.3-7.1,3.9-10.2,10.5-11.1,17.4-6.9.8-13.5,3.9-17.3,11.1a15.08,15.08,0,0,0-2.1,7.1l80.7,80.7s75.3-67.1,72.9-72.9c-.8-2-.8-3.7,1-5.3,2.5-2.3-.9-8.8-6.9-5-4.4,2.8-6.5-6.2,1.9-4.8a11.78,11.78,0,0,0,6.9-.9c4-1.9,7-7.4,7.3-11.7C178.71,39.63,162.11,25.53,149.41,27.13Z"/>
    <path class="cls-2"
          d="M132.51,18.73c.3,2.6,1.5,7.7-7.2,6.7s-10.2-9.2-7.6-14.9c5.6-12.1-13.8-14.9-12.5-2.4s11.6,20.2-.1,24.4c-7.8,2.8-10.3,9.7-8.7,15.9,2.7,10.2-11.6,10.2-12.3,3.4-.7-7.7-11.5,11.1-.9,15.1s73.9-3.5,68.5-25S131.81,12.43,132.51,18.73Z"/>
    <path class="cls-1"
          d="M5.31,109.63a84.15,84.15,0,1,0,160.9-34.7c-6.4-14.1-43.4,5.5-75.5,3.1-34.5-2.5-64.2-26.1-71.9-14.1A83.57,83.57,0,0,0,5.31,109.63Z"/>
    <path class="cls-3"
          d="M183.51,56.63c-4.8-16.9-32.1-17.9-43.4-2.6-4.9,6.7,2.4,11.7,6.9,6.9,17.7-18.9,31.2-8.7,33.1-3.7C181.11,59.93,184.21,58.93,183.51,56.63Z"/>
    <path class="cls-4"
          d="M140.31,74.13a16.45,16.45,0,0,1,5.8-3.9c5.7-2.3,12.1,2.7,11.5,7.9-.5,4.6-5.5,5.8-5.8,2.3-.5-4.5-5.4-5.7-13.1.9-7.4,6.3-17.5.1-11.2-10.6,5.7-9.6,14.4-5,10.3,1.5C136.11,74.83,138.51,76.23,140.31,74.13Z"/>
    <path class="cls-5"
          d="M107.31,97c-7.8,3.2-29.2,7.3-37.2,5.6-18.8-4.1-11.8-26-27.1-34.5-9-5-13.4.5-8.3,7a114.74,114.74,0,0,1,12.4,20.4c4.9,11.1-4.3,21-11.8,9.8-10.4-15.7-20.4-17.9-29.1-8.1,1.3-8.3-6.8-17,3.4-22.4,6.6-3.4-3.1-4.7-4.7-9.4-2.5-7.5,7.3-15.7,24-13.4a5.29,5.29,0,0,0,5.79-4.73V47.2h0c.6-4.9,4.7-8.9,9.8-11.6,8.8-4.7,12.6-.3,17.6,2,3.4,24.2,30.9,37.1,43.6,32.9C120.21,65.73,129.71,87.83,107.31,97Z"/>
    <path class="cls-6"
          d="M186.41,35.53c0,2.7-3.3,3.6-6.1.1-6.1-7.4-24.6-3.1-41,10.1-11.9,9.7-23.9,20.4-38.6,26C62.41,86.13,48.91,60,37,50.13c-5.6-4.7-11-4.7-13.4-3.1-4.7,3.2-10.3-.5-8.2-5.5,2.6-6,13.6-6.7,21.5,2.2,15.4,17.2,32.4,30.8,60.7,21.6,16-5.2,24.8-14.9,36.8-24.6,14.5-11.5,29.1-19.3,39.8-17.6C182.81,24.53,186.31,31.23,186.41,35.53Z"/>
    <path class="cls-7"
          d="M69.71,38.43c-5,8.6,5.8,9.9,7.9,14.6,3.3,7.5-3.6,13.4-14,8.2-8.2-4.1-13.7-18.7-12.9-27.8.7-7.8,9-8.2,9.9-2.7C61.41,35.83,65.31,39.13,69.71,38.43Z"/>
    <path class="cls-8" d="M60.31,109.63a29.15,29.15,0,1,0,29.2-29.1h-.1A29.14,29.14,0,0,0,60.31,109.63Z"/>
    <path class="cls-6" d="M63.81,109.63A25.6,25.6,0,1,0,89.41,84h0A25.65,25.65,0,0,0,63.81,109.63Z"/>
    <path class="cls-9" d="M67.71,109.63a21.75,21.75,0,1,0,21.8-21.7h0a21.71,21.71,0,0,0-21.8,21.6Z"/>
    <path class="cls-10" d="M86.91,109.63a2.6,2.6,0,1,1,2.6,2.6h0a2.47,2.47,0,0,1-2.6-2.33Z"/>
    <path class="cls-11"
          d="M41.51,98.13c.4,9.1-3.6,9.9-6.2,7-10.4-15.7-20.4-17.9-29.1-8.1-10.1-3.8-8-20.3,7.2-23.6C27.21,70.53,41.21,89.33,41.51,98.13Z"/>
    <path class="cls-12"
          d="M168.51,80.73a84.31,84.31,0,0,1-26.2,94.5c-6.3-3.7-5.7-11.4-.5-19.7,5.3-8.5-5.9-13-9.8-6.4-7.9,13.5-28.2,11.8-37.2,2.8-3.3-3.4-1.9-6.9,2.2-6,7.1,1.6,19.8,2.4,24.1-12,2.9-9.4,13.5-13.2,20.9-9.8,9.7,4.5,21.6-4.3,12.4-19.6C149.31,95.93,153.71,80.23,168.51,80.73Z"/>
    <path class="cls-6"
          d="M14.41,122.23c4,10,15.1,3.8,19.3,8.9s13,5.9,16.4,3.5c2.9-2.1,1.9-4.8-1.5-4-4.1.9-7.3-2.1-9.6-5.8-3.7-6-9.2-1-11.6-11.2S8.41,107.23,14.41,122.23Z"/>
    <path class="cls-6"
          d="M53.11,126.63a2.91,2.91,0,0,0,2.5,3.2,2.84,2.84,0,0,0,1.8-.4,2.77,2.77,0,0,0,1.1-3.7,3.17,3.17,0,0,0-1.5-1.3,2.92,2.92,0,0,0-3.77,1.72l0,.08A.63.63,0,0,1,53.11,126.63Z"/>
    <path class="cls-1"
          d="M85.31,30.13c4.3,1.9,9.2-2.4,8.7-6.8a5.74,5.74,0,0,0-10-3C80.81,23.43,82.31,28.83,85.31,30.13Z"/>
    <path class="cls-13"
          d="M231.51,145.13a6.61,6.61,0,0,1-1.9,4.6,5.84,5.84,0,0,1-4.6,1.9,6.61,6.61,0,0,1-4.6-1.9,6.28,6.28,0,0,1-2-4.6V98.53a30.19,30.19,0,0,1,30.1-30.1,29.24,29.24,0,0,1,15.8,4.5,29.85,29.85,0,0,1,11,12.1,6.49,6.49,0,0,1-2.9,8.7,5.86,5.86,0,0,1-5,.4,6.35,6.35,0,0,1-3.8-3.2,16.22,16.22,0,0,0-6.2-6.8,16.79,16.79,0,0,0-23.17,5.19l-.13.21a17.21,17.21,0,0,0-2.6,9.1Z"/>
    <path class="cls-13"
          d="M312.11,152.63a30,30,0,0,1-30-30V98.33a30.06,30.06,0,0,1,60.1,0v6.9c0,5.1-2.7,7.7-8,7.7h-39v9.6a16.67,16.67,0,0,0,4.9,12.1,16.91,16.91,0,0,0,12.1,4.7h.8a14.84,14.84,0,0,0,10.4-4.1,16.17,16.17,0,0,0,5.6-10.8,5.73,5.73,0,0,1,2.4-3.5,6.12,6.12,0,0,1,4.7-1.4,6.49,6.49,0,0,1,4.5,2.4,4.91,4.91,0,0,1,1.4,3.8,30,30,0,0,1-29.8,26.9Zm17-52.8v-1.5a16.36,16.36,0,0,0-5-12.1,16,16,0,0,0-12-5,16.9,16.9,0,0,0-17,16.8v1.8Z"/>
    <path class="cls-13"
          d="M388.21,139.63c2.9,0,6-1.5,9.2-4.4a16.17,16.17,0,0,0,5.6-10.8,6.8,6.8,0,0,1,7.1-4.9,6.49,6.49,0,0,1,4.5,2.4,4.91,4.91,0,0,1,1.4,3.8,29.52,29.52,0,0,1-9.7,19.2c-5.6,5-11.6,7.5-18,7.6l-1.7.1h-.5a30.12,30.12,0,0,1-30-30.1V98.33a30.12,30.12,0,0,1,30-30.1h.4A29.8,29.8,0,0,1,416,95.13a4.91,4.91,0,0,1-1.4,3.8,6.15,6.15,0,0,1-4.5,2.4,6.8,6.8,0,0,1-7.1-4.9,17,17,0,0,0-16.9-15.1v-.1a16,16,0,0,0-12,5,16.48,16.48,0,0,0-4.9,12.1v24.2a16.77,16.77,0,0,0,16.54,17h.36l2.1.1Z"/>
    <path class="cls-13"
          d="M477.21,98.53a17,17,0,0,0-34,0v46.8a6.61,6.61,0,0,1-1.9,4.6,6.28,6.28,0,0,1-4.6,2,6.62,6.62,0,0,1-6.5-6.5V29.13a6.14,6.14,0,0,1,2-4.6,6.07,6.07,0,0,1,4.5-2,6.66,6.66,0,0,1,6.6,6.6v44.7a30.17,30.17,0,0,1,47.1,24.6v47a6.84,6.84,0,0,1-6.6,6.6,6.62,6.62,0,0,1-6.5-6.5Z"/>
    <path class="cls-13"
          d="M534.21,68.33a30,30,0,0,1,30,30v24.3a30.06,30.06,0,0,1-60.1,0V98.43A30.26,30.26,0,0,1,534.21,68.33Zm17,30.1a16.36,16.36,0,0,0-5-12.1,16,16,0,0,0-12-5,16.9,16.9,0,0,0-17,16.8v24.5a16.75,16.75,0,0,0,16.5,17h.5a16.9,16.9,0,0,0,17-16.8V98.43Z"/>
    <path class="cls-13"
          d="M591.31,145.13a6.14,6.14,0,0,1-2,4.6,5.84,5.84,0,0,1-4.6,1.9,6.21,6.21,0,0,1-4.5-1.9,6.28,6.28,0,0,1-2-4.6V98.53a30.19,30.19,0,0,1,30.1-30.1,29,29,0,0,1,15.9,4.5,30.27,30.27,0,0,1,11,12,6.49,6.49,0,0,1-2.9,8.7,5.86,5.86,0,0,1-5,.4,6.35,6.35,0,0,1-3.8-3.2,16.22,16.22,0,0,0-6.2-6.8,17,17,0,0,0-23.3,5.4,17.21,17.21,0,0,0-2.6,9.1Z"/>
    <path class="cls-13"
          d="M692.51,29a6,6,0,0,1,2-4.6,6.28,6.28,0,0,1,4.6-2,5.91,5.91,0,0,1,4.5,2,6.28,6.28,0,0,1,2,4.6V144.2q0,7.5-7.5,7.5h-22.6a30.19,30.19,0,0,1-30.1-30.1V98.43a30.19,30.19,0,0,1,30.1-30.1,29.45,29.45,0,0,1,17,5.3Zm-34,92.7a17.13,17.13,0,0,0,17,17h17V98.53a16.77,16.77,0,0,0-16.54-17h-.46a17,17,0,0,0-17,17Z"/>
</svg>