<svg xmlns:xlink="http://www.w3.org/1999/xlink" id="Layer_1" data-name="Layer 1" xmlns="http://www.w3.org/2000/svg"
     viewBox="0 0 705.6 193.9">
    <defs>
        <style>
            .cls-1{fill:#2c1521;}.cls-2{fill:url(#radial-gradient);}.cls-3{fill:#faa41a;}.cls-4{fill:url(#radial-gradient-2);}.cls-5{fill:url(#radial-gradient-3);}.cls-6{fill:#54aab0;}.cls-7{fill:url(#radial-gradient-4);}.cls-8{fill:#ffe2b4;}.cls-9{fill:url(#radial-gradient-5);}.cls-10{fill:#2d1237;}.cls-11{fill:url(#radial-gradient-6);}.cls-12{fill:url(#radial-gradient-7);}.cls-13{fill:#4c4c4c;}
        </style>
        <radialGradient id="radial-gradient" cx="1564.68" cy="2024.09" r="35.41"
                        gradientTransform="translate(1679.96 2058.12) rotate(180)" gradientUnits="userSpaceOnUse">
            <stop offset="0.28" stop-color="#54aab0"/>
            <stop offset="0.41" stop-color="#54a6ac"/>
            <stop offset="0.51" stop-color="#539ca4"/>
            <stop offset="0.6" stop-color="#528d98"/>
            <stop offset="0.69" stop-color="#4f7988"/>
            <stop offset="0.77" stop-color="#496073"/>
            <stop offset="0.84" stop-color="#40445c"/>
            <stop offset="0.92" stop-color="#342544"/>
            <stop offset="0.95" stop-color="#2d1237"/>
        </radialGradient>
        <radialGradient id="radial-gradient-2" cx="-1771.31" cy="-3020.39" r="13.7"
                        gradientTransform="translate(3528.98 959.93) rotate(-45)" gradientUnits="userSpaceOnUse">
            <stop offset="0" stop-color="#5d3c4c"/>
            <stop offset="0.14" stop-color="#583948"/>
            <stop offset="0.4" stop-color="#4a2e3c"/>
            <stop offset="0.76" stop-color="#321b27"/>
            <stop offset="0.84" stop-color="#2c1521"/>
        </radialGradient>
        <radialGradient id="radial-gradient-3" cx="62.46" cy="1986.27" r="49.23"
                        gradientTransform="matrix(1, 0, 0, -1, 0, 2058.12)" gradientUnits="userSpaceOnUse">
            <stop offset="0" stop-color="#5d3c4c"/>
            <stop offset="0.15" stop-color="#5b3b4b"/>
            <stop offset="0.3" stop-color="#573847"/>
            <stop offset="0.45" stop-color="#503341"/>
            <stop offset="0.59" stop-color="#462b38"/>
            <stop offset="0.74" stop-color="#38202d"/>
            <stop offset="0.84" stop-color="#2c1521"/>
        </radialGradient>
        <radialGradient id="radial-gradient-4" cx="-1805.16" cy="-3096.67" r="15.97"
                        gradientTransform="translate(3528.98 959.93) rotate(-45)" xlink:href="#radial-gradient-3"/>
        <radialGradient id="radial-gradient-5" cx="89.41" cy="1948.38" r="21.78"
                        gradientTransform="matrix(1, 0, 0, -1, 0, 2058.12)" gradientUnits="userSpaceOnUse">
            <stop offset="0.32" stop-color="#faa41a"/>
            <stop offset="0.61" stop-color="#f6a11b"/>
            <stop offset="0.72" stop-color="#ec981e"/>
            <stop offset="0.79" stop-color="#df8b20"/>
            <stop offset="0.86" stop-color="#cf7b22"/>
            <stop offset="0.91" stop-color="#bb6722"/>
            <stop offset="0.93" stop-color="#b35e22"/>
        </radialGradient>
        <radialGradient id="radial-gradient-6" cx="-1866.53" cy="-3093.48" r="19.14"
                        gradientTransform="translate(3528.98 959.93) rotate(-45)" xlink:href="#radial-gradient-3"/>
        <radialGradient id="radial-gradient-7" cx="-1805.78" cy="-2976.8" r="41.11"
                        gradientTransform="translate(3528.98 959.93) rotate(-45)" xlink:href="#radial-gradient-3"/>
    </defs>
    <title>logo</title>
    <path class="cls-1"
          d="M149.38,27.16c-5.8.7-8,4.32-16.86,4.51-3.94.08-6.44-.58-10.29.81-1.36.49-4,1.65-8.39,6-6,6-5.89,8.88-11.14,14.88-3.37,3.86-8.41,9.31-11.79,8.54-7-1.58-7.46-10.34-5-20,2-8-3.38-12.28-9.44-7.14a15.82,15.82,0,0,1-4.79,3.07c-12.09,4.21-13.91-9.36-27.18-2.31C37.36,39.38,34.26,46,33.43,52.9c-6.91.84-13.52,3.93-17.31,11.06a15.23,15.23,0,0,0-2.07,7.14l80.74,80.74s75.29-67.12,72.94-72.94c-.79-2-.83-3.65,1-5.29,2.51-2.3-.94-8.78-6.93-5-4.35,2.75-6.48-6.22,1.9-4.76a11.5,11.5,0,0,0,6.87-.85c4-1.87,7-7.4,7.33-11.68C178.68,39.66,162.09,25.61,149.38,27.16Z"/>
    <path class="cls-2"
          d="M132.48,18.76c.32,2.63,1.51,7.7-7.21,6.69s-10.18-9.24-7.58-14.91c5.56-12.13-13.77-14.91-12.51-2.4s11.59,20.23-.12,24.39c-7.84,2.78-10.34,9.68-8.72,15.92C99,58.69,84.71,58.69,84.08,51.86,83.37,44.2,72.58,63,83.19,67s73.93-3.54,68.49-25S131.7,12.51,132.48,18.76Z"/>
    <path class="cls-1"
          d="M5.25,109.74A84.16,84.16,0,1,0,166.12,75.07c-6.38-14.07-43.41,5.46-75.51,3.09C56.15,75.62,26.45,52.1,18.69,64.1A83.77,83.77,0,0,0,5.25,109.74Z"/>
    <path class="cls-3"
          d="M183.46,56.66c-4.8-16.88-32.13-17.93-43.45-2.59-4.92,6.67,2.36,11.72,6.91,6.86C164.64,42,178.16,52.21,180,57.26,181,60,184.12,59,183.46,56.66Z"/>
    <path class="cls-4"
          d="M140.27,74.23a17.43,17.43,0,0,1,5.77-3.9c5.66-2.29,12.08,2.74,11.46,7.9C157,82.81,152,84,151.67,80.52c-.48-4.5-5.36-5.73-13.09.91-7.35,6.32-17.45.06-11.21-10.58,5.66-9.63,14.4-5,10.28,1.54C136.09,74.86,138.43,76.25,140.27,74.23Z"/>
    <path class="cls-5"
          d="M107.28,97.05c-7.76,3.18-29.18,7.3-37.2,5.55C51.29,98.52,58.29,76.65,43,68.07c-9-5-13.4.49-8.29,7A113.27,113.27,0,0,1,47.07,95.42c4.9,11.15-4.32,21-11.79,9.8C24.84,89.53,14.83,87.33,6.19,97.1c1.26-8.32-6.83-17,3.4-22.37,6.61-3.44-3.07-4.65-4.68-9.36-2.55-7.45,7.29-15.69,24-13.4a5.29,5.29,0,0,0,5.78-4.77c.57-4.94,4.65-8.88,9.78-11.6,8.81-4.69,12.58-.27,17.65,2C65.47,61.76,93,74.65,105.71,70.52,120.11,65.84,129.64,87.86,107.28,97.05Z"/>
    <path class="cls-6"
          d="M186.31,35.63c0,2.68-3.28,3.59-6.12.12-6.09-7.43-24.64-3.15-41,10.15-11.9,9.7-23.94,20.42-38.63,25.95C62.22,86.3,48.72,60.18,36.9,50.28c-5.64-4.73-11-4.74-13.36-3.11-4.68,3.23-10.33-.54-8.21-5.46,2.6-6,13.57-6.73,21.54,2.16C52.24,61,69.25,74.59,97.54,65.35c16-5.21,24.76-14.93,36.82-24.55,14.46-11.55,29.14-19.27,39.75-17.6C182.77,24.57,186.28,31.29,186.31,35.63Z"/>
    <path class="cls-7"
          d="M69.61,38.48c-5,8.63,5.85,9.93,7.93,14.61,3.33,7.49-3.56,13.44-14,8.24-8.2-4.1-13.7-18.7-12.94-27.76.65-7.84,9-8.23,9.87-2.68C61.3,35.94,65.25,39.19,69.61,38.48Z"/>
    <path class="cls-8" d="M60.25,109.74A29.16,29.16,0,1,0,89.41,80.59,29.16,29.16,0,0,0,60.25,109.74Z"/>
    <path class="cls-6" d="M63.79,109.74A25.62,25.62,0,1,0,89.41,84.12,25.62,25.62,0,0,0,63.79,109.74Z"/>
    <path class="cls-9" d="M67.63,109.74A21.78,21.78,0,1,0,89.41,88,21.77,21.77,0,0,0,67.63,109.74Z"/>
    <path class="cls-10" d="M86.81,109.74a2.6,2.6,0,1,1,2.6,2.61A2.6,2.6,0,0,1,86.81,109.74Z"/>
    <path class="cls-11"
          d="M41.46,98.21c.38,9.13-3.64,9.94-6.18,7C24.84,89.53,14.83,87.33,6.19,97.1c-10.06-3.75-8-20.34,7.23-23.57C27.12,70.63,41.1,89.4,41.46,98.21Z"/>
    <path class="cls-12"
          d="M168.45,80.77a84.26,84.26,0,0,1-26.19,94.47c-6.32-3.69-5.68-11.38-.48-19.72,5.32-8.53-5.92-13-9.75-6.45-7.88,13.49-28.22,11.78-37.24,2.77-3.35-3.35-1.87-6.9,2.2-6,7.05,1.58,19.75,2.37,24.13-12,2.88-9.44,13.48-13.22,20.89-9.78,9.74,4.52,21.63-4.29,12.43-19.56C149.29,96,153.68,80.29,168.45,80.77Z"/>
    <path class="cls-6"
          d="M14.33,122.3c4,10,15.13,3.8,19.26,8.85s13,5.88,16.43,3.47c2.93-2.08,1.91-4.79-1.47-4-4.11.93-7.32-2.12-9.57-5.79-3.66-6-9.23-1-11.61-11.23C25.06,103.64,8.34,107.32,14.33,122.3Z"/>
    <path class="cls-6" d="M53.09,126.7a2.88,2.88,0,0,0,4.37,2.77,2.75,2.75,0,0,0-.42-5A3,3,0,0,0,53.09,126.7Z"/>
    <path class="cls-1"
          d="M85.21,30.18c4.31,1.87,9.24-2.38,8.65-6.76a5.75,5.75,0,0,0-10-3C80.75,23.46,82.25,28.9,85.21,30.18Z"/>
    <path class="cls-13"
          d="M231.44,145.16a6.34,6.34,0,0,1-1.95,4.64,6.15,6.15,0,0,1-4.64,1.95,6,6,0,0,1-4.55-1.95,6.34,6.34,0,0,1-2-4.64V98.59a30.1,30.1,0,0,1,30.06-30.06A29.5,29.5,0,0,1,264.18,73a30,30,0,0,1,11,12.06,6.5,6.5,0,0,1-2.87,8.72,5.91,5.91,0,0,1-5,.37,6.19,6.19,0,0,1-3.8-3.24,16.47,16.47,0,0,0-6.22-6.78,16.91,16.91,0,0,0-25.88,14.48Z"/>
    <path class="cls-13"
          d="M312,152.67a30.08,30.08,0,0,1-30-30.06V98.4a30.06,30.06,0,0,1,60.11,0v6.87q0,7.7-8,7.7H295.08v9.64A16.56,16.56,0,0,0,300,134.67a16.91,16.91,0,0,0,12.06,4.74h.83a14.86,14.86,0,0,0,10.39-4.09,16.36,16.36,0,0,0,5.57-10.76,6,6,0,0,1,2.41-3.52,6.14,6.14,0,0,1,4.73-1.39,6.42,6.42,0,0,1,4.45,2.41,4.89,4.89,0,0,1,1.4,3.8A30,30,0,0,1,312,152.77ZM329,99.88V98.4a16.44,16.44,0,0,0-5-12.06,16.12,16.12,0,0,0-12-5,16.42,16.42,0,0,0-12.06,5,16.59,16.59,0,0,0-4.92,12.06v1.48Z"/>
    <path class="cls-13"
          d="M388.13,139.68q4.37,0,9.18-4.36a16.36,16.36,0,0,0,5.57-10.76,6.85,6.85,0,0,1,7.14-4.91,6.44,6.44,0,0,1,4.46,2.41,4.92,4.92,0,0,1,1.39,3.8,29.16,29.16,0,0,1-9.74,19.21q-8.44,7.52-18,7.6l-1.67.1H386a30.1,30.1,0,0,1-30-30.06V98.49a30.1,30.1,0,0,1,30-30.06h.37a29.94,29.94,0,0,1,29.5,26.91,4.92,4.92,0,0,1-1.39,3.8,6.4,6.4,0,0,1-4.46,2.41,6.85,6.85,0,0,1-7.14-4.91A17.08,17.08,0,0,0,386,81.52v-.1a16.34,16.34,0,0,0-12,5,16.59,16.59,0,0,0-4.92,12.06v24.22a16.78,16.78,0,0,0,16.89,17h2.13Z"/>
    <path class="cls-13"
          d="M477.1,98.59a16.34,16.34,0,0,0-5-12,16.15,16.15,0,0,0-12-5,17,17,0,0,0-17,17v46.75a6,6,0,0,1-1.94,4.55,6.15,6.15,0,0,1-4.64,2,6.66,6.66,0,0,1-6.5-6.5V29.1A6.14,6.14,0,0,1,432,24.46a6,6,0,0,1,4.55-1.95,6.64,6.64,0,0,1,6.58,6.59V73.82a29.7,29.7,0,0,1,17-5.2,29.93,29.93,0,0,1,30.06,30v46.75a6,6,0,0,1-1.95,4.55,6.14,6.14,0,0,1-4.64,2,6.66,6.66,0,0,1-6.49-6.5Z"/>
    <path class="cls-13"
          d="M534.16,68.43a30.1,30.1,0,0,1,30.05,30.06v24.22a30.06,30.06,0,0,1-60.11,0V98.49a30.1,30.1,0,0,1,30.06-30.06Zm17,30.06a16.44,16.44,0,0,0-5-12.06,16.14,16.14,0,0,0-12-5,16.45,16.45,0,0,0-12.07,5,16.62,16.62,0,0,0-4.91,12.06v24.22a16.77,16.77,0,0,0,17,17,16.93,16.93,0,0,0,17-17Z"/>
    <path class="cls-13"
          d="M591.21,145.16a6.34,6.34,0,0,1-2,4.64,6.14,6.14,0,0,1-4.64,1.95,6,6,0,0,1-4.54-1.95,6.34,6.34,0,0,1-2-4.64V98.59a30.08,30.08,0,0,1,30.06-30.06A29.5,29.5,0,0,1,624,73,30.16,30.16,0,0,1,635,85a6.51,6.51,0,0,1-2.88,8.72,5.91,5.91,0,0,1-5,.37,6.19,6.19,0,0,1-3.8-3.24,16.34,16.34,0,0,0-6.22-6.78,16.92,16.92,0,0,0-25.88,14.48Z"/>
    <path class="cls-13"
          d="M692.43,29.1a6,6,0,0,1,2-4.64,6.12,6.12,0,0,1,4.64-1.95,6,6,0,0,1,4.54,1.95,6.14,6.14,0,0,1,2,4.64V144.32q0,7.52-7.51,7.52H675.45a30.1,30.1,0,0,1-30.06-30.06V98.59a30.08,30.08,0,0,1,30.06-30.06,29.34,29.34,0,0,1,17,5.29Zm-34,92.68a17.11,17.11,0,0,0,17,17h17V98.59a16.8,16.8,0,0,0-17-17,17,17,0,0,0-17,17Z"/>
</svg>