<svg xmlns:xlink="http://www.w3.org/1999/xlink" id="Layer_1" data-name="Layer 1" xmlns="http://www.w3.org/2000/svg"
     viewBox="0 0 186.31 193.85">
    <defs>
        <style>
            .cls-1{fill:#2c1521;}.cls-2{fill:url(#radial-gradient);}.cls-3{fill:#faa41a;}.cls-4{fill:url(#radial-gradient-2);}.cls-5{fill:url(#radial-gradient-3);}.cls-6{fill:#54aab0;}.cls-7{fill:url(#radial-gradient-4);}.cls-8{fill:#ffe2b4;}.cls-9{fill:url(#radial-gradient-5);}.cls-10{fill:#2d1237;}.cls-11{fill:url(#radial-gradient-6);}.cls-12{fill:url(#radial-gradient-7);}
        </style>
        <radialGradient id="radial-gradient" cx="1648.18" cy="-1232.11" r="35.4"
                        gradientTransform="matrix(-1, 0, 0, 1, 1763.46, 1266.12)" gradientUnits="userSpaceOnUse">
            <stop offset="0.28" stop-color="#54aab0"/>
            <stop offset="0.41" stop-color="#54a6ac"/>
            <stop offset="0.51" stop-color="#539ca4"/>
            <stop offset="0.6" stop-color="#528d98"/>
            <stop offset="0.69" stop-color="#4f7988"/>
            <stop offset="0.77" stop-color="#496073"/>
            <stop offset="0.84" stop-color="#40445c"/>
            <stop offset="0.92" stop-color="#342544"/>
            <stop offset="0.95" stop-color="#2d1237"/>
        </radialGradient>
        <radialGradient id="radial-gradient-2" cx="-2186.87" cy="2809.11" r="13.69"
                        gradientTransform="matrix(0.71, -0.71, -0.71, -0.71, 3673.44, 516.68)"
                        gradientUnits="userSpaceOnUse">
            <stop offset="0" stop-color="#5d3c4c"/>
            <stop offset="0.14" stop-color="#583948"/>
            <stop offset="0.4" stop-color="#4a2e3c"/>
            <stop offset="0.76" stop-color="#321b27"/>
            <stop offset="0.84" stop-color="#2c1521"/>
        </radialGradient>
        <radialGradient id="radial-gradient-3" cx="62.46" cy="-1194.28" r="49.23"
                        gradientTransform="translate(0 1266.12)" gradientUnits="userSpaceOnUse">
            <stop offset="0" stop-color="#5d3c4c"/>
            <stop offset="0.15" stop-color="#5b3b4b"/>
            <stop offset="0.3" stop-color="#573847"/>
            <stop offset="0.45" stop-color="#503341"/>
            <stop offset="0.59" stop-color="#462b38"/>
            <stop offset="0.74" stop-color="#38202d"/>
            <stop offset="0.84" stop-color="#2c1521"/>
        </radialGradient>
        <radialGradient id="radial-gradient-4" cx="-2220.73" cy="2885.38" r="15.99"
                        gradientTransform="matrix(0.71, -0.71, -0.71, -0.71, 3673.44, 516.68)"
                        xlink:href="#radial-gradient-3"/>
        <radialGradient id="radial-gradient-5" cx="89.41" cy="-1156.34" r="21.78"
                        gradientTransform="translate(0 1266.12)" gradientUnits="userSpaceOnUse">
            <stop offset="0.32" stop-color="#faa41a"/>
            <stop offset="0.61" stop-color="#f6a11b"/>
            <stop offset="0.72" stop-color="#ec981e"/>
            <stop offset="0.79" stop-color="#df8b20"/>
            <stop offset="0.86" stop-color="#cf7b22"/>
            <stop offset="0.91" stop-color="#bb6722"/>
            <stop offset="0.93" stop-color="#b35e22"/>
        </radialGradient>
        <radialGradient id="radial-gradient-6" cx="-2282.08" cy="2882.17" r="19.14"
                        gradientTransform="matrix(0.71, -0.71, -0.71, -0.71, 3673.44, 516.68)"
                        xlink:href="#radial-gradient-3"/>
        <radialGradient id="radial-gradient-7" cx="-2221.34" cy="2765.49" r="41.11"
                        gradientTransform="matrix(0.71, -0.71, -0.71, -0.71, 3673.44, 516.68)"
                        xlink:href="#radial-gradient-3"/>
    </defs>
    <title>logo-symbol</title>
    <path class="cls-1"
          d="M149.38,27.16c-5.8.7-8,4.32-16.86,4.51-3.94.08-6.44-.58-10.29.81-1.36.49-4,1.65-8.39,6-6,6-5.89,8.88-11.14,14.88-3.37,3.86-8.41,9.31-11.79,8.54-7-1.58-7.46-10.34-5-20,2-8-3.38-12.28-9.44-7.14a15.62,15.62,0,0,1-4.79,3.07C59.59,42,57.77,28.47,44.5,35.52,37.36,39.38,34.26,46,33.43,52.9c-6.91.84-13.52,3.93-17.31,11.06a15.23,15.23,0,0,0-2.07,7.14l80.74,80.74s75.29-67.12,72.94-72.94c-.79-2-.83-3.65,1-5.29,2.51-2.3-.94-8.78-6.93-5-4.35,2.75-6.48-6.22,1.9-4.76a11.51,11.51,0,0,0,6.87-.85c4-1.87,7-7.4,7.33-11.68C178.68,39.66,162.09,25.61,149.38,27.16Z"/>
    <path class="cls-2"
          d="M132.48,18.76c.32,2.63,1.51,7.7-7.21,6.69s-10.18-9.24-7.58-14.91c5.56-12.13-13.77-14.91-12.51-2.4s11.59,20.23-.12,24.39c-7.84,2.78-10.34,9.68-8.72,15.92C99,58.69,84.71,58.69,84.08,51.86,83.37,44.2,72.58,63,83.19,67s73.93-3.54,68.49-25S131.7,12.51,132.48,18.76Z"/>
    <path class="cls-1"
          d="M5.25,109.74A84.16,84.16,0,1,0,166.12,75.07c-6.38-14.07-43.41,5.46-75.51,3.09C56.15,75.62,26.45,52.1,18.69,64.1A83.72,83.72,0,0,0,5.25,109.74Z"/>
    <path class="cls-3"
          d="M183.46,56.66c-4.8-16.88-32.13-17.93-43.45-2.59-4.92,6.67,2.36,11.72,6.91,6.86C164.64,42,178.16,52.21,180,57.26,181,60,184.12,59,183.46,56.66Z"/>
    <path class="cls-4"
          d="M140.27,74.23a17.47,17.47,0,0,1,5.77-3.9c5.66-2.29,12.08,2.74,11.46,7.9-.5,4.58-5.5,5.77-5.83,2.29-.48-4.5-5.36-5.73-13.09.91-7.35,6.32-17.45.06-11.21-10.58,5.66-9.63,14.4-5,10.28,1.54C136.09,74.86,138.43,76.25,140.27,74.23Z"/>
    <path class="cls-5"
          d="M107.28,97.05c-7.76,3.18-29.18,7.3-37.2,5.55C51.29,98.52,58.29,76.65,43,68.07c-9-5-13.4.49-8.29,7A113.21,113.21,0,0,1,47.07,95.42c4.9,11.15-4.32,21-11.79,9.8C24.84,89.53,14.83,87.33,6.19,97.1c1.26-8.32-6.83-17,3.4-22.37,6.61-3.44-3.07-4.65-4.68-9.36-2.55-7.45,7.29-15.69,24-13.4a5.29,5.29,0,0,0,5.78-4.75v0c.57-4.94,4.65-8.88,9.78-11.6,8.81-4.69,12.58-.27,17.65,2C65.47,61.76,93,74.65,105.71,70.52,120.11,65.84,129.64,87.86,107.28,97.05Z"/>
    <path class="cls-6"
          d="M186.31,35.63c0,2.68-3.28,3.59-6.12.12-6.09-7.43-24.64-3.15-41,10.15-11.9,9.7-23.94,20.42-38.63,25.95C62.22,86.3,48.72,60.18,36.9,50.28c-5.64-4.73-11-4.74-13.36-3.11-4.68,3.23-10.33-.54-8.21-5.46,2.6-6,13.57-6.73,21.54,2.16C52.24,61,69.25,74.59,97.54,65.35c16-5.21,24.76-14.93,36.82-24.55,14.46-11.55,29.14-19.27,39.75-17.6C182.77,24.57,186.28,31.29,186.31,35.63Z"/>
    <path class="cls-7"
          d="M69.61,38.48c-5,8.63,5.85,9.93,7.93,14.61,3.33,7.49-3.56,13.44-14,8.24-8.2-4.1-13.7-18.7-12.94-27.76.65-7.84,9-8.23,9.87-2.68C61.3,35.94,65.25,39.19,69.61,38.48Z"/>
    <path class="cls-8" d="M60.25,109.74A29.16,29.16,0,1,0,89.42,80.59h0A29.16,29.16,0,0,0,60.25,109.74Z"/>
    <path class="cls-6" d="M63.79,109.74A25.62,25.62,0,1,0,89.41,84.12h0A25.62,25.62,0,0,0,63.79,109.74Z"/>
    <path class="cls-9" d="M67.63,109.74A21.78,21.78,0,1,0,89.45,88h0A21.78,21.78,0,0,0,67.63,109.74Z"/>
    <path class="cls-10" d="M86.81,109.74a2.6,2.6,0,1,1,2.6,2.61,2.61,2.61,0,0,1-2.6-2.61Z"/>
    <path class="cls-11"
          d="M41.46,98.21c.38,9.13-3.64,9.94-6.18,7C24.84,89.53,14.83,87.33,6.19,97.1c-10.06-3.75-8-20.34,7.23-23.57C27.12,70.63,41.1,89.4,41.46,98.21Z"/>
    <path class="cls-12"
          d="M168.45,80.77a84.27,84.27,0,0,1-26.19,94.47c-6.32-3.69-5.68-11.38-.48-19.72,5.32-8.53-5.92-13-9.75-6.45-7.88,13.49-28.22,11.78-37.24,2.77-3.35-3.35-1.87-6.9,2.2-6,7.05,1.58,19.75,2.37,24.13-12,2.88-9.44,13.48-13.22,20.89-9.78,9.74,4.52,21.63-4.29,12.43-19.56C149.29,96,153.68,80.29,168.45,80.77Z"/>
    <path class="cls-6"
          d="M14.33,122.3c4,10,15.13,3.8,19.26,8.85s13,5.88,16.43,3.47c2.93-2.08,1.91-4.79-1.47-4-4.11.93-7.32-2.12-9.57-5.79-3.66-6-9.23-1-11.61-11.23C25.06,103.64,8.34,107.32,14.33,122.3Z"/>
    <path class="cls-6"
          d="M53.09,126.7a2.88,2.88,0,0,0,4.37,2.77,2.74,2.74,0,0,0,1.07-3.74A2.69,2.69,0,0,0,57,124.47a3,3,0,0,0-3.84,1.82C53.16,126.42,53.12,126.56,53.09,126.7Z"/>
    <path class="cls-1"
          d="M85.21,30.18c4.31,1.87,9.24-2.38,8.65-6.76a5.75,5.75,0,0,0-10-3C80.75,23.46,82.25,28.9,85.21,30.18Z"/>
</svg>